Martel-Regular.ufo
<glyph name="exclam" format="1">
  <advance width="345"/>
  <unicode hex="0021"/>
  <outline>
	<contour>
	  <point x="105" y="869" type="line"/>
	  <point x="137" y="239" type="line"/>
	  <point x="194" y="239" type="line"/>
	  <point x="230" y="869" type="line"/>
	</contour>
	<contour>
	  <point x="143" y="121"/>
	  <point x="105" y="90"/>
	  <point x="105" y="49" type="curve" smooth="yes"/>
	  <point x="105" y="12"/>
	  <point x="135" y="-11"/>
	  <point x="167" y="-11" type="curve" smooth="yes"/>
	  <point x="203" y="-11"/>
	  <point x="240" y="17"/>
	  <point x="240" y="60" type="curve" smooth="yes"/>
	  <point x="240" y="93"/>
	  <point x="221" y="121"/>
	  <point x="178" y="121" type="curve" smooth="yes"/>
	</contour>
  </outline>
</glyph>
<glyph name="dollar" format="1">
  <advance width="620"/>
  <unicode hex="0024"/>
  <outline>
    <contour>
      <point x="85" y="30" type="line"/>
      <point x="108" y="16"/>
      <point x="178" y="-3"/>
      <point x="256" y="-9" type="curve"/>
      <point x="252" y="-113" type="line"/>
      <point x="329" y="-113" type="line"/>
      <point x="333" y="-10" type="line"/>
      <point x="456" y="-4"/>
      <point x="560" y="57"/>
      <point x="560" y="194" type="curve" smooth="yes"/>
      <point x="560" y="308"/>
      <point x="445" y="369"/>
      <point x="342" y="425" type="curve" smooth="yes"/>
      <point x="256" y="470"/>
      <point x="178" y="519"/>
      <point x="178" y="593" type="curve" smooth="yes"/>
      <point x="178" y="688"/>
      <point x="265" y="717"/>
      <point x="317" y="717" type="curve" smooth="yes"/>
      <point x="365" y="717"/>
      <point x="411" y="707"/>
      <point x="434" y="686" type="curve"/>
      <point x="472" y="592" type="line"/>
      <point x="514" y="592" type="line"/>
      <point x="514" y="728" type="line"/>
      <point x="489" y="743"/>
      <point x="438" y="760"/>
      <point x="362" y="764" type="curve"/>
      <point x="365" y="845" type="line"/>
      <point x="288" y="845" type="line"/>
      <point x="285" y="762" type="line"/>
      <point x="194" y="750"/>
      <point x="90" y="695"/>
      <point x="90" y="577" type="curve" smooth="yes"/>
      <point x="90" y="467"/>
      <point x="192" y="406"/>
      <point x="291" y="352" type="curve" smooth="yes"/>
      <point x="382" y="300"/>
      <point x="470" y="250"/>
      <point x="470" y="167" type="curve" smooth="yes"/>
      <point x="470" y="76"/>
      <point x="393" y="38"/>
      <point x="321" y="38" type="curve" smooth="yes"/>
      <point x="263" y="38"/>
      <point x="198" y="49"/>
      <point x="159" y="90" type="curve"/>
      <point x="128" y="187" type="line"/>
      <point x="85" y="187" type="line"/>
    </contour>
  </outline>
</glyph>
<glyph name="percent" format="1">
  <advance width="864"/>
  <unicode hex="0025"/>
  <outline>
    <contour>
      <point x="524" y="782" type="line"/>
      <point x="258" y="0" type="line"/>
      <point x="335" y="0" type="line"/>
      <point x="602" y="782" type="line"/>
    </contour>
    <contour>
      <point x="122" y="694"/>
      <point x="45" y="631"/>
      <point x="45" y="514" type="curve" smooth="yes"/>
      <point x="45" y="419"/>
      <point x="102" y="335"/>
      <point x="193" y="338" type="curve" smooth="yes"/>
      <point x="278" y="340"/>
      <point x="354" y="402"/>
      <point x="354" y="519" type="curve" smooth="yes"/>
      <point x="354" y="617"/>
      <point x="310" y="701"/>
      <point x="207" y="697" type="curve" smooth="yes"/>
    </contour>
    <contour>
      <point x="250" y="647"/>
      <point x="277" y="594"/>
      <point x="277" y="515" type="curve" smooth="yes"/>
      <point x="277" y="436"/>
      <point x="250" y="388"/>
      <point x="199" y="388" type="curve" smooth="yes"/>
      <point x="151" y="388"/>
      <point x="124" y="444"/>
      <point x="124" y="518" type="curve" smooth="yes"/>
      <point x="124" y="597"/>
      <point x="151" y="647"/>
      <point x="201" y="647" type="curve" smooth="yes"/>
    </contour>
    <contour>
      <point x="586" y="437"/>
      <point x="509" y="373"/>
      <point x="509" y="256" type="curve" smooth="yes"/>
      <point x="509" y="161"/>
      <point x="565" y="78"/>
      <point x="657" y="80" type="curve" smooth="yes"/>
      <point x="742" y="83"/>
      <point x="818" y="145"/>
      <point x="818" y="261" type="curve" smooth="yes"/>
      <point x="818" y="359"/>
      <point x="774" y="443"/>
      <point x="671" y="439" type="curve" smooth="yes"/>
    </contour>
    <contour>
      <point x="713" y="389"/>
      <point x="741" y="336"/>
      <point x="741" y="257" type="curve" smooth="yes"/>
      <point x="741" y="178"/>
      <point x="714" y="130"/>
      <point x="663" y="130" type="curve" smooth="yes"/>
      <point x="615" y="130"/>
      <point x="587" y="187"/>
      <point x="587" y="260" type="curve" smooth="yes"/>
      <point x="587" y="339"/>
      <point x="615" y="389"/>
      <point x="665" y="389" type="curve" smooth="yes"/>
    </contour>
  </outline>
</glyph>
<glyph name="ampersand" format="1">
  <advance width="766"/>
  <unicode hex="0026"/>
  <outline>
	<contour>
	  <point x="243" y="764"/>
	  <point x="161" y="696"/>
	  <point x="161" y="576" type="curve" smooth="yes"/>
	  <point x="161" y="500"/>
	  <point x="206" y="437"/>
	  <point x="247" y="379" type="curve"/>
	  <point x="155" y="331"/>
	  <point x="91" y="272"/>
	  <point x="91" y="180" type="curve" smooth="yes"/>
	  <point x="91" y="18"/>
	  <point x="262" y="-16"/>
	  <point x="364" y="-16" type="curve" smooth="yes"/>
	  <point x="426" y="-16"/>
	  <point x="505" y="4"/>
	  <point x="553" y="45" type="curve"/>
	  <point x="588" y="22"/>
	  <point x="621" y="10"/>
	  <point x="652" y="5" type="curve" smooth="yes"/>
	  <point x="678" y="0"/>
	  <point x="701" y="1"/>
	  <point x="722" y="8" type="curve"/>
	  <point x="722" y="49" type="line"/>
	  <point x="687" y="55"/>
	  <point x="651" y="73"/>
	  <point x="612" y="103" type="curve"/>
	  <point x="646" y="152"/>
	  <point x="657" y="216"/>
	  <point x="657" y="265" type="curve" smooth="yes"/>
	  <point x="657" y="305"/>
	  <point x="650" y="335"/>
	  <point x="643" y="360" type="curve"/>
	  <point x="552" y="360" type="line"/>
	  <point x="558" y="353"/>
	  <point x="571" y="311"/>
	  <point x="571" y="244" type="curve" smooth="yes"/>
	  <point x="571" y="218"/>
	  <point x="572" y="181"/>
	  <point x="559" y="148" type="curve"/>
	  <point x="506" y="196"/>
	  <point x="400" y="321"/>
	  <point x="355" y="380" type="curve"/>
	  <point x="428" y="427"/>
	  <point x="514" y="502"/>
	  <point x="514" y="601" type="curve" smooth="yes"/>
	  <point x="514" y="686"/>
	  <point x="464" y="764"/>
	  <point x="348" y="764" type="curve" smooth="yes"/>
	</contour>
	<contour>
	  <point x="325" y="267"/>
	  <point x="439" y="139"/>
	  <point x="508" y="80" type="curve"/>
	  <point x="475" y="50"/>
	  <point x="425" y="42"/>
	  <point x="369" y="42" type="curve" smooth="yes"/>
	  <point x="266" y="42"/>
	  <point x="180" y="97"/>
	  <point x="180" y="192" type="curve" smooth="yes"/>
	  <point x="180" y="264"/>
	  <point x="211" y="296"/>
	  <point x="274" y="338" type="curve"/>
	</contour>
	<contour>
	  <point x="416" y="715"/>
	  <point x="434" y="637"/>
	  <point x="434" y="586" type="curve" smooth="yes"/>
	  <point x="434" y="506"/>
	  <point x="388" y="452"/>
	  <point x="324" y="418" type="curve"/>
	  <point x="292" y="456"/>
	  <point x="243" y="517"/>
	  <point x="243" y="608" type="curve" smooth="yes"/>
	  <point x="243" y="689"/>
	  <point x="298" y="715"/>
	  <point x="337" y="715" type="curve" smooth="yes"/>
	</contour>
  </outline>
</glyph>
<glyph name="quotesingle" format="1">
  <advance width="400"/>
  <unicode hex="0027"/>
  <outline>
	<contour>
	  <point x="169" y="472" type="line"/>
	  <point x="231" y="472" type="line"/>
	  <point x="255" y="870" type="line"/>
	  <point x="145" y="870" type="line"/>
	</contour>
  </outline>
</glyph>
<glyph name="parenright" format="1">
  <advance width="397"/>
  <unicode hex="0029"/>
  <outline>
    <contour>
      <point x="105" y="-151" type="line"/>
      <point x="151" y="-125"/>
      <point x="341" y="60"/>
      <point x="341" y="344" type="curve" smooth="yes"/>
      <point x="341" y="669"/>
      <point x="151" y="826"/>
      <point x="105" y="854" type="curve"/>
      <point x="56" y="824" type="line"/>
      <point x="104" y="789"/>
      <point x="261" y="610"/>
      <point x="251" y="320" type="curve" smooth="yes"/>
      <point x="243" y="57"/>
      <point x="103" y="-98"/>
      <point x="63" y="-125" type="curve"/>
    </contour>
  </outline>
</glyph>
<glyph name="asterisk" format="1">
  <advance width="632"/>
  <unicode hex="002A"/>
  <outline>
    <contour>
      <point x="269" y="375" type="line"/>
      <point x="358" y="375" type="line"/>
      <point x="341" y="550" type="line"/>
      <point x="328" y="601" type="line"/>
      <point x="362" y="567" type="line"/>
      <point x="503" y="454" type="line"/>
      <point x="559" y="521" type="line"/>
      <point x="388" y="608" type="line"/>
      <point x="339" y="624" type="line"/>
      <point x="388" y="642" type="line"/>
      <point x="559" y="723" type="line"/>
      <point x="504" y="793" type="line"/>
      <point x="369" y="688" type="line"/>
      <point x="327" y="648" type="line"/>
      <point x="343" y="704" type="line"/>
      <point x="358" y="872" type="line"/>
      <point x="269" y="872" type="line"/>
      <point x="285" y="704" type="line"/>
      <point x="298" y="648" type="line"/>
      <point x="265" y="682" type="line"/>
      <point x="121" y="794" type="line"/>
      <point x="73" y="724" type="line"/>
      <point x="242" y="639" type="line"/>
      <point x="286" y="624" type="line"/>
      <point x="241" y="609" type="line"/>
      <point x="74" y="521" type="line"/>
      <point x="123" y="453" type="line"/>
      <point x="267" y="566" type="line"/>
      <point x="298" y="601" type="line"/>
      <point x="285" y="550" type="line"/>
    </contour>
  </outline>
</glyph>
<glyph name="plus" format="1">
  <advance width="620"/>
  <unicode hex="002B"/>
  <outline>
    <contour>
      <point x="272" y="157" type="line"/>
      <point x="348" y="157" type="line"/>
      <point x="348" y="274" type="line"/>
      <point x="343" y="355" type="line"/>
      <point x="410" y="352" type="line"/>
      <point x="533" y="352" type="line"/>
      <point x="533" y="427" type="line"/>
      <point x="410" y="427" type="line"/>
      <point x="343" y="421" type="line"/>
      <point x="348" y="504" type="line"/>
      <point x="348" y="615" type="line"/>
      <point x="272" y="615" type="line"/>
      <point x="272" y="504" type="line"/>
      <point x="275" y="421" type="line"/>
      <point x="194" y="427" type="line"/>
      <point x="87" y="427" type="line"/>
      <point x="87" y="352" type="line"/>
      <point x="194" y="352" type="line"/>
      <point x="275" y="355" type="line"/>
      <point x="272" y="274" type="line"/>
    </contour>
  </outline>
</glyph>
<glyph name="hyphen" format="1">
  <advance width="606"/>
  <unicode hex="002D"/>
  <outline>
	<contour>
	  <point x="87" y="355" type="line"/>
	  <point x="519" y="355" type="line"/>
	  <point x="519" y="427" type="line"/>
	  <point x="87" y="427" type="line"/>
	</contour>
  </outline>
</glyph>
<glyph name="period" format="1">
  <advance width="345"/>
  <unicode hex="002E"/>
  <outline>
	<contour>
	  <point x="143" y="121"/>
	  <point x="105" y="90"/>
	  <point x="105" y="49" type="curve" smooth="yes"/>
	  <point x="105" y="12"/>
	  <point x="135" y="-11"/>
	  <point x="167" y="-11" type="curve" smooth="yes"/>
	  <point x="203" y="-11"/>
	  <point x="240" y="17"/>
	  <point x="240" y="60" type="curve" smooth="yes"/>
	  <point x="240" y="93"/>
	  <point x="221" y="121"/>
	  <point x="178" y="121" type="curve" smooth="yes"/>
	</contour>
  </outline>
</glyph>
<glyph name="slash" format="1">
  <advance width="398"/>
  <unicode hex="002F"/>
  <outline>
    <contour>
      <point x="15" y="-177" type="line"/>
      <point x="104" y="-177" type="line"/>
      <point x="384" y="781" type="line"/>
      <point x="294" y="781" type="line"/>
    </contour>
  </outline>
</glyph>
<glyph name="zero" format="1">
  <advance width="648"/>
  <unicode hex="0030"/>
  <outline>
    <contour>
      <point x="192" y="610"/>
      <point x="67" y="498"/>
      <point x="64" y="309" type="curve" smooth="yes"/>
      <point x="63" y="141"/>
      <point x="135" y="-14"/>
      <point x="321" y="-14" type="curve" smooth="yes"/>
      <point x="467" y="-14"/>
      <point x="583" y="117"/>
      <point x="584" y="304" type="curve" smooth="yes"/>
      <point x="586" y="477"/>
      <point x="523" y="613"/>
      <point x="333" y="611" type="curve" smooth="yes"/>
    </contour>
    <contour>
      <point x="438" y="557"/>
      <point x="484" y="446"/>
      <point x="484" y="300" type="curve" smooth="yes"/>
      <point x="484" y="134"/>
      <point x="442" y="35"/>
      <point x="325" y="38" type="curve" smooth="yes"/>
      <point x="214" y="40"/>
      <point x="165" y="174"/>
      <point x="165" y="313" type="curve" smooth="yes"/>
      <point x="165" y="468"/>
      <point x="209" y="561"/>
      <point x="327" y="560" type="curve" smooth="yes"/>
    </contour>
  </outline>
</glyph>
<glyph name="one" format="1">
  <advance width="456"/>
  <unicode hex="0031"/>
  <outline>
	<contour>
	  <point x="57" y="0" type="line"/>
	  <point x="424" y="0" type="line"/>
	  <point x="424" y="42" type="line"/>
	  <point x="293" y="54" type="line"/>
	  <point x="294" y="610" type="line"/>
	  <point x="269" y="617" type="line"/>
	  <point x="246" y="598"/>
	  <point x="115" y="540"/>
	  <point x="56" y="522" type="curve"/>
	  <point x="66" y="474" type="line"/>
	  <point x="110" y="483"/>
	  <point x="155" y="491"/>
	  <point x="199" y="500" type="curve"/>
	  <point x="199" y="55" type="line"/>
	  <point x="57" y="42" type="line"/>
	</contour>
  </outline>
</glyph>
<glyph name="three" format="1">
  <advance width="524"/>
  <unicode hex="0033"/>
  <outline>
    <contour>
      <point x="138" y="620"/>
      <point x="62" y="573"/>
      <point x="32" y="542" type="curve"/>
      <point x="58" y="499" type="line"/>
      <point x="94" y="527"/>
      <point x="139" y="554"/>
      <point x="212" y="554" type="curve" smooth="yes"/>
      <point x="275" y="554"/>
      <point x="331" y="521"/>
      <point x="329" y="431" type="curve" smooth="yes"/>
      <point x="328" y="357"/>
      <point x="235" y="302"/>
      <point x="127" y="281" type="curve"/>
      <point x="127" y="216" type="line"/>
      <point x="169" y="225" type="line"/>
      <point x="180" y="227"/>
      <point x="191" y="230"/>
      <point x="202" y="232" type="curve"/>
      <point x="329" y="232"/>
      <point x="370" y="178"/>
      <point x="370" y="85" type="curve" smooth="yes"/>
      <point x="370" y="-21"/>
      <point x="260" y="-107"/>
      <point x="121" y="-107" type="curve" smooth="yes"/>
      <point x="101" y="-107"/>
      <point x="81" y="-106"/>
      <point x="61" y="-102" type="curve"/>
      <point x="61" y="-155" type="line"/>
      <point x="89" y="-160"/>
      <point x="115" y="-162"/>
      <point x="141" y="-162" type="curve" smooth="yes"/>
      <point x="340" y="-162"/>
      <point x="471" y="-28"/>
      <point x="471" y="104" type="curve" smooth="yes"/>
      <point x="471" y="197"/>
      <point x="404" y="273"/>
      <point x="265" y="268" type="curve"/>
      <point x="347" y="292"/>
      <point x="429" y="382"/>
      <point x="429" y="460" type="curve" smooth="yes"/>
      <point x="429" y="575"/>
      <point x="335" y="620"/>
      <point x="244" y="620" type="curve" smooth="yes"/>
    </contour>
  </outline>
</glyph>
<glyph name="four" format="1">
  <advance width="612"/>
  <unicode hex="0034"/>
  <outline>
    <contour>
      <point x="52" y="0" type="line"/>
      <point x="375" y="0" type="line"/>
      <point x="374" y="-184" type="line"/>
      <point x="462" y="-184" type="line"/>
      <point x="462" y="0" type="line"/>
      <point x="565" y="0" type="line"/>
      <point x="565" y="83" type="line"/>
      <point x="462" y="77" type="line"/>
      <point x="462" y="324" type="line"/>
      <point x="376" y="300" type="line"/>
      <point x="375" y="71" type="line"/>
      <point x="120" y="56" type="line"/>
      <point x="155" y="107" type="line"/>
      <point x="247" y="264"/>
      <point x="339" y="422"/>
      <point x="431" y="579" type="curve"/>
      <point x="374" y="622" type="line"/>
      <point x="343" y="622" type="line"/>
      <point x="241" y="399"/>
      <point x="138" y="230"/>
      <point x="37" y="46" type="curve"/>
    </contour>
  </outline>
</glyph>
<glyph name="five" format="1">
  <advance width="527"/>
  <unicode hex="0035"/>
  <outline>
	<contour>
	  <point x="66" y="-165" type="line"/>
	  <point x="83" y="-170"/>
	  <point x="101" y="-171"/>
	  <point x="117" y="-171" type="curve" smooth="yes"/>
	  <point x="318" y="-171"/>
	  <point x="468" y="-11"/>
	  <point x="468" y="126" type="curve" smooth="yes"/>
	  <point x="468" y="326"/>
	  <point x="280" y="384"/>
	  <point x="136" y="315" type="curve"/>
	  <point x="172" y="523" type="line"/>
	  <point x="405" y="523" type="line"/>
	  <point x="429" y="613" type="line"/>
	  <point x="374" y="613" type="line"/>
	  <point x="360" y="604" type="line"/>
	  <point x="101" y="604" type="line"/>
	  <point x="63" y="276" type="line"/>
	  <point x="80" y="262" type="line"/>
	  <point x="231" y="313"/>
	  <point x="368" y="289"/>
	  <point x="368" y="115" type="curve" smooth="yes"/>
	  <point x="368" y="-30"/>
	  <point x="208" y="-135"/>
	  <point x="67" y="-120" type="curve"/>
	</contour>
  </outline>
</glyph>
<glyph name="seven" format="1">
  <advance width="604"/>
  <unicode hex="0037"/>
  <outline>
    <contour>
      <point x="276" y="-154" type="line"/>
      <point x="547" y="593" type="line"/>
      <point x="530" y="612" type="line"/>
      <point x="94" y="612" type="line"/>
      <point x="70" y="453" type="line"/>
      <point x="119" y="448" type="line"/>
      <point x="165" y="535" type="line"/>
      <point x="467" y="546" type="line"/>
      <point x="372" y="313"/>
      <point x="282" y="91"/>
      <point x="178" y="-120" type="curve"/>
    </contour>
  </outline>
</glyph>
<glyph name="eight" format="1">
  <advance width="606"/>
  <unicode hex="0038"/>
  <outline>
	<contour>
	  <point x="212" y="758"/>
	  <point x="101" y="698"/>
	  <point x="101" y="569" type="curve" smooth="yes"/>
	  <point x="101" y="483"/>
	  <point x="151" y="427"/>
	  <point x="216" y="383" type="curve"/>
	  <point x="114" y="332"/>
	  <point x="63" y="255"/>
	  <point x="63" y="182" type="curve" smooth="yes"/>
	  <point x="63" y="46"/>
	  <point x="195" y="-14"/>
	  <point x="309" y="-14" type="curve" smooth="yes"/>
	  <point x="427" y="-14"/>
	  <point x="554" y="50"/>
	  <point x="552" y="197" type="curve" smooth="yes"/>
	  <point x="551" y="276"/>
	  <point x="471" y="332"/>
	  <point x="385" y="384" type="curve"/>
	  <point x="467" y="425"/>
	  <point x="520" y="516"/>
	  <point x="520" y="589" type="curve" smooth="yes"/>
	  <point x="520" y="690"/>
	  <point x="432" y="758"/>
	  <point x="320" y="758" type="curve" smooth="yes"/>
	</contour>
	<contour>
	  <point x="361" y="294"/>
	  <point x="467" y="250"/>
	  <point x="467" y="163" type="curve" smooth="yes"/>
	  <point x="467" y="86"/>
	  <point x="393" y="36"/>
	  <point x="324" y="36" type="curve" smooth="yes"/>
	  <point x="217" y="36"/>
	  <point x="153" y="113"/>
	  <point x="153" y="205" type="curve" smooth="yes"/>
	  <point x="153" y="271"/>
	  <point x="204" y="326"/>
	  <point x="262" y="353" type="curve"/>
	</contour>
	<contour>
	  <point x="387" y="711"/>
	  <point x="444" y="649"/>
	  <point x="440" y="558" type="curve" smooth="yes"/>
	  <point x="438" y="499"/>
	  <point x="389" y="431"/>
	  <point x="333" y="415" type="curve"/>
	  <point x="251" y="464"/>
	  <point x="178" y="516"/>
	  <point x="178" y="585" type="curve" smooth="yes"/>
	  <point x="178" y="662"/>
	  <point x="247" y="711"/>
	  <point x="315" y="711" type="curve" smooth="yes"/>
	</contour>
  </outline>
</glyph>
<glyph name="colon" format="1">
  <advance width="345"/>
  <unicode hex="003A"/>
  <outline>
    <contour>
      <point x="143" y="516"/>
      <point x="105" y="486"/>
      <point x="105" y="445" type="curve" smooth="yes"/>
      <point x="105" y="407"/>
      <point x="135" y="385"/>
      <point x="167" y="385" type="curve" smooth="yes"/>
      <point x="203" y="385"/>
      <point x="240" y="413"/>
      <point x="240" y="456" type="curve" smooth="yes"/>
      <point x="240" y="489"/>
      <point x="221" y="516"/>
      <point x="178" y="516" type="curve" smooth="yes"/>
    </contour>
    <contour>
      <point x="143" y="121"/>
      <point x="105" y="90"/>
      <point x="105" y="49" type="curve" smooth="yes"/>
      <point x="105" y="12"/>
      <point x="135" y="-11"/>
      <point x="167" y="-11" type="curve" smooth="yes"/>
      <point x="203" y="-11"/>
      <point x="240" y="17"/>
      <point x="240" y="60" type="curve" smooth="yes"/>
      <point x="240" y="93"/>
      <point x="221" y="121"/>
      <point x="178" y="121" type="curve" smooth="yes"/>
    </contour>
  </outline>
</glyph>
<glyph name="greater" format="1">
  <advance width="647"/>
  <unicode hex="003E"/>
  <outline>
	<contour>
	  <point x="111" y="93" type="line"/>
	  <point x="584" y="334" type="line"/>
	  <point x="584" y="400" type="line"/>
	  <point x="111" y="641" type="line"/>
	  <point x="111" y="551" type="line"/>
	  <point x="501" y="367" type="line"/>
	  <point x="111" y="182" type="line"/>
	</contour>
  </outline>
</glyph>
<glyph name="question" format="1">
  <advance width="494"/>
  <unicode hex="003F"/>
  <outline>
	<contour>
	  <point x="117" y="896"/>
	  <point x="74" y="887"/>
	  <point x="63" y="874" type="curve"/>
	  <point x="63" y="799" type="line"/>
	  <point x="82" y="807"/>
	  <point x="119" y="810"/>
	  <point x="144" y="810" type="curve" smooth="yes"/>
	  <point x="269" y="810"/>
	  <point x="383" y="703"/>
	  <point x="379" y="578" type="curve" smooth="yes"/>
	  <point x="379" y="561"/>
	  <point x="368" y="554"/>
	  <point x="343" y="541" type="curve" smooth="yes"/>
	  <point x="277" y="506"/>
	  <point x="143" y="470"/>
	  <point x="141" y="409" type="curve" smooth="yes"/>
	  <point x="141" y="364"/>
	  <point x="194" y="267"/>
	  <point x="230" y="239" type="curve"/>
	  <point x="282" y="239" type="line"/>
	  <point x="260" y="294"/>
	  <point x="234" y="346"/>
	  <point x="234" y="396" type="curve" smooth="yes"/>
	  <point x="234" y="446"/>
	  <point x="323" y="472"/>
	  <point x="394" y="513" type="curve" smooth="yes"/>
	  <point x="451" y="546"/>
	  <point x="454" y="564"/>
	  <point x="454" y="617" type="curve" smooth="yes"/>
	  <point x="454" y="738"/>
	  <point x="377" y="896"/>
	  <point x="156" y="896" type="curve" smooth="yes"/>
	</contour>
	<contour>
	  <point x="236" y="121"/>
	  <point x="198" y="90"/>
	  <point x="198" y="49" type="curve" smooth="yes"/>
	  <point x="198" y="12"/>
	  <point x="228" y="-11"/>
	  <point x="260" y="-11" type="curve" smooth="yes"/>
	  <point x="296" y="-11"/>
	  <point x="333" y="17"/>
	  <point x="333" y="60" type="curve" smooth="yes"/>
	  <point x="333" y="93"/>
	  <point x="314" y="121"/>
	  <point x="271" y="121" type="curve" smooth="yes"/>
	</contour>
  </outline>
</glyph>
<glyph name="at" format="1">
  <advance width="1042"/>
  <unicode hex="0040"/>
  <outline>
    <contour>
      <point x="340" y="702"/>
      <point x="115" y="508"/>
      <point x="115" y="203" type="curve" smooth="yes"/>
      <point x="115" y="-35"/>
      <point x="278" y="-185"/>
      <point x="500" y="-185" type="curve" smooth="yes"/>
      <point x="584" y="-185"/>
      <point x="682" y="-162"/>
      <point x="725" y="-128" type="curve"/>
      <point x="707" y="-86" type="line"/>
      <point x="674" y="-102"/>
      <point x="595" y="-118"/>
      <point x="538" y="-118" type="curve" smooth="yes"/>
      <point x="349" y="-118"/>
      <point x="187" y="-26"/>
      <point x="187" y="235" type="curve" smooth="yes"/>
      <point x="187" y="498"/>
      <point x="361" y="638"/>
      <point x="555" y="638" type="curve" smooth="yes"/>
      <point x="708" y="638"/>
      <point x="860" y="568"/>
      <point x="860" y="359" type="curve" smooth="yes"/>
      <point x="860" y="201"/>
      <point x="759" y="76"/>
      <point x="702" y="76" type="curve" smooth="yes"/>
      <point x="687" y="76"/>
      <point x="679" y="125"/>
      <point x="687" y="194" type="curve" smooth="yes"/>
      <point x="697" y="287"/>
      <point x="712" y="422"/>
      <point x="728" y="493" type="curve"/>
      <point x="707" y="500"/>
      <point x="688" y="506"/>
      <point x="670" y="512" type="curve"/>
      <point x="658" y="515"/>
      <point x="652" y="501"/>
      <point x="648" y="490" type="curve"/>
      <point x="615" y="508"/>
      <point x="556" y="515"/>
      <point x="523" y="515" type="curve" smooth="yes"/>
      <point x="383" y="515"/>
      <point x="301" y="335"/>
      <point x="301" y="210" type="curve" smooth="yes"/>
      <point x="301" y="86"/>
      <point x="365" y="12"/>
      <point x="425" y="12" type="curve" smooth="yes"/>
      <point x="501" y="12"/>
      <point x="574" y="122"/>
      <point x="616" y="227" type="curve"/>
      <point x="604" y="159"/>
      <point x="602" y="121"/>
      <point x="605" y="95" type="curve" smooth="yes"/>
      <point x="610" y="39"/>
      <point x="634" y="19"/>
      <point x="664" y="19" type="curve" smooth="yes"/>
      <point x="772" y="19"/>
      <point x="928" y="128"/>
      <point x="928" y="396" type="curve" smooth="yes"/>
      <point x="928" y="587"/>
      <point x="781" y="702"/>
      <point x="594" y="702" type="curve" smooth="yes"/>
    </contour>
    <contour>
      <point x="556" y="443"/>
      <point x="609" y="432"/>
      <point x="629" y="411" type="curve"/>
      <point x="616" y="299"/>
      <point x="510" y="94"/>
      <point x="446" y="94" type="curve" smooth="yes"/>
      <point x="386" y="94"/>
      <point x="378" y="198"/>
      <point x="378" y="247" type="curve" smooth="yes"/>
      <point x="378" y="351"/>
      <point x="417" y="443"/>
      <point x="525" y="443" type="curve" smooth="yes"/>
    </contour>
  </outline>
</glyph>
<glyph name="H" format="1">
  <advance width="833"/>
  <unicode hex="0048"/>
  <outline>
    <contour>
      <point x="52" y="0" type="line"/>
      <point x="313" y="0" type="line"/>
      <point x="313" y="42" type="line"/>
      <point x="229" y="56" type="line"/>
      <point x="229" y="340" type="line"/>
      <point x="604" y="340" type="line"/>
      <point x="604" y="56" type="line"/>
      <point x="520" y="42" type="line"/>
      <point x="520" y="0" type="line"/>
      <point x="783" y="0" type="line"/>
      <point x="783" y="42" type="line"/>
      <point x="699" y="56" type="line"/>
      <point x="699" y="702" type="line"/>
      <point x="777" y="710" type="line"/>
      <point x="777" y="758" type="line"/>
      <point x="523" y="758" type="line"/>
      <point x="523" y="710" type="line"/>
      <point x="604" y="702" type="line"/>
      <point x="604" y="397" type="line"/>
      <point x="229" y="397" type="line"/>
      <point x="229" y="702" type="line"/>
      <point x="309" y="710" type="line"/>
      <point x="309" y="758" type="line"/>
      <point x="54" y="758" type="line"/>
      <point x="54" y="710" type="line"/>
      <point x="134" y="702" type="line"/>
      <point x="134" y="56" type="line"/>
      <point x="52" y="42" type="line"/>
    </contour>
  </outline>
</glyph>
<glyph name="I" format="1">
  <advance width="373"/>
  <unicode hex="0049"/>
  <outline>
	<contour>
	  <point x="51" y="0" type="line"/>
	  <point x="323" y="0" type="line"/>
	  <point x="323" y="42" type="line"/>
	  <point x="234" y="56" type="line"/>
	  <point x="234" y="702" type="line"/>
	  <point x="318" y="710" type="line"/>
	  <point x="318" y="758" type="line"/>
	  <point x="53" y="758" type="line"/>
	  <point x="53" y="710" type="line"/>
	  <point x="139" y="702" type="line"/>
	  <point x="139" y="56" type="line"/>
	  <point x="51" y="42" type="line"/>
	</contour>
  </outline>
</glyph>
<glyph name="J" format="1">
  <advance width="352"/>
  <unicode hex="004A"/>
  <outline>
	<contour>
	  <point x="58" y="758" type="line"/>
	  <point x="58" y="710" type="line"/>
	  <point x="139" y="702" type="line"/>
	  <point x="139" y="196" type="line" smooth="yes"/>
	  <point x="139" y="96"/>
	  <point x="136" y="28"/>
	  <point x="116" y="-29" type="curve" smooth="yes"/>
	  <point x="91" y="-91"/>
	  <point x="31" y="-132"/>
	  <point x="-42" y="-156" type="curve"/>
	  <point x="-17" y="-190" type="line"/>
	  <point x="86" y="-175"/>
	  <point x="199" y="-104"/>
	  <point x="225" y="24" type="curve" smooth="yes"/>
	  <point x="237" y="91"/>
	  <point x="234" y="176"/>
	  <point x="234" y="269" type="curve" smooth="yes"/>
	  <point x="234" y="702" type="line"/>
	  <point x="313" y="710" type="line"/>
	  <point x="313" y="758" type="line"/>
	</contour>
  </outline>
</glyph>
<glyph name="K" format="1">
  <advance width="693"/>
  <unicode hex="004B"/>
  <outline>
	<contour>
	  <point x="52" y="0" type="line"/>
	  <point x="319" y="0" type="line"/>
	  <point x="319" y="42" type="line"/>
	  <point x="229" y="55" type="line"/>
	  <point x="229" y="280" type="line"/>
	  <point x="311" y="374" type="line"/>
	  <point x="381" y="303"/>
	  <point x="520" y="0"/>
	  <point x="554" y="0" type="curve" smooth="yes"/>
	  <point x="705" y="0" type="line"/>
	  <point x="705" y="42" type="line"/>
	  <point x="626" y="60" type="line"/>
	  <point x="593" y="60"/>
	  <point x="431" y="365"/>
	  <point x="366" y="438" type="curve"/>
	  <point x="595" y="702" type="line"/>
	  <point x="675" y="710" type="line"/>
	  <point x="675" y="758" type="line"/>
	  <point x="431" y="758" type="line"/>
	  <point x="432" y="710" type="line"/>
	  <point x="507" y="702" type="line"/>
	  <point x="229" y="365" type="line"/>
	  <point x="229" y="702" type="line"/>
	  <point x="309" y="710" type="line"/>
	  <point x="309" y="758" type="line"/>
	  <point x="54" y="758" type="line"/>
	  <point x="54" y="710" type="line"/>
	  <point x="134" y="702" type="line"/>
	  <point x="134" y="56" type="line"/>
	  <point x="52" y="42" type="line"/>
	</contour>
  </outline>
</glyph>
<glyph name="O" format="1">
  <advance width="759"/>
  <unicode hex="004F"/>
  <outline>
	<contour>
	  <point x="354" y="765"/>
	  <point x="294" y="756"/>
	  <point x="233" y="723" type="curve" smooth="yes"/>
	  <point x="124" y="664"/>
	  <point x="44" y="536"/>
	  <point x="44" y="357" type="curve" smooth="yes"/>
	  <point x="44" y="144"/>
	  <point x="172" y="-14"/>
	  <point x="371" y="-14" type="curve" smooth="yes"/>
	  <point x="560" y="-14"/>
	  <point x="712" y="133"/>
	  <point x="718" y="385" type="curve" smooth="yes"/>
	  <point x="722" y="602"/>
	  <point x="600" y="765"/>
	  <point x="404" y="765" type="curve" smooth="yes"/>
	</contour>
	<contour>
	  <point x="533" y="713"/>
	  <point x="612" y="554"/>
	  <point x="612" y="384" type="curve" smooth="yes"/>
	  <point x="612" y="167"/>
	  <point x="529" y="38"/>
	  <point x="386" y="38" type="curve" smooth="yes"/>
	  <point x="236" y="38"/>
	  <point x="149" y="198"/>
	  <point x="149" y="368" type="curve" smooth="yes"/>
	  <point x="149" y="585"/>
	  <point x="241" y="713"/>
	  <point x="384" y="713" type="curve" smooth="yes"/>
	</contour>
  </outline>
</glyph>
<glyph name="P" format="1">
  <advance width="633"/>
  <unicode hex="0050"/>
  <outline>
	<contour>
	  <point x="42" y="0" type="line"/>
	  <point x="360" y="0" type="line"/>
	  <point x="360" y="42" type="line"/>
	  <point x="229" y="56" type="line"/>
	  <point x="229" y="288" type="line"/>
	  <point x="250" y="292"/>
	  <point x="279" y="292"/>
	  <point x="328" y="291" type="curve" smooth="yes"/>
	  <point x="471" y="287"/>
	  <point x="611" y="380"/>
	  <point x="611" y="539" type="curve" smooth="yes"/>
	  <point x="611" y="714"/>
	  <point x="506" y="765"/>
	  <point x="356" y="765" type="curve" smooth="yes"/>
	  <point x="292" y="765"/>
	  <point x="213" y="758"/>
	  <point x="182" y="758" type="curve" smooth="yes"/>
	  <point x="54" y="758" type="line"/>
	  <point x="54" y="705" type="line"/>
	  <point x="134" y="697" type="line"/>
	  <point x="134" y="56" type="line"/>
	  <point x="42" y="42" type="line"/>
	</contour>
	<contour>
	  <point x="229" y="701" type="line"/>
	  <point x="259" y="708"/>
	  <point x="287" y="709"/>
	  <point x="319" y="711" type="curve" smooth="yes"/>
	  <point x="444" y="715"/>
	  <point x="514" y="657"/>
	  <point x="514" y="537" type="curve" smooth="yes"/>
	  <point x="514" y="372"/>
	  <point x="421" y="340"/>
	  <point x="327" y="340" type="curve" smooth="yes"/>
	  <point x="297" y="340"/>
	  <point x="267" y="340"/>
	  <point x="229" y="346" type="curve"/>
	</contour>
  </outline>
</glyph>
<glyph name="Q" format="1">
  <advance width="759"/>
  <unicode hex="0051"/>
  <outline>
    <contour>
      <point x="354" y="765"/>
      <point x="294" y="756"/>
      <point x="233" y="723" type="curve" smooth="yes"/>
      <point x="124" y="664"/>
      <point x="44" y="536"/>
      <point x="44" y="357" type="curve"/>
      <point x="40" y="149"/>
      <point x="172" y="-14"/>
      <point x="378" y="-14" type="curve"/>
      <point x="389" y="-14" type="line"/>
      <point x="422" y="-143"/>
      <point x="510" y="-174"/>
      <point x="604" y="-174" type="curve" smooth="yes"/>
      <point x="659" y="-174"/>
      <point x="700" y="-156"/>
      <point x="713" y="-137" type="curve"/>
      <point x="704" y="-77" type="line"/>
      <point x="687" y="-88"/>
      <point x="660" y="-93"/>
      <point x="636" y="-93" type="curve" smooth="yes"/>
      <point x="570" y="-93"/>
      <point x="475" y="-83"/>
      <point x="443" y="-6" type="curve"/>
      <point x="597" y="27"/>
      <point x="714" y="166"/>
      <point x="718" y="385" type="curve" smooth="yes"/>
      <point x="722" y="602"/>
      <point x="600" y="765"/>
      <point x="404" y="765" type="curve"/>
    </contour>
    <contour>
      <point x="533" y="713"/>
      <point x="612" y="554"/>
      <point x="612" y="384" type="curve" smooth="yes"/>
      <point x="612" y="167"/>
      <point x="529" y="38"/>
      <point x="386" y="38" type="curve" smooth="yes"/>
      <point x="236" y="38"/>
      <point x="149" y="198"/>
      <point x="149" y="368" type="curve"/>
      <point x="149" y="585"/>
      <point x="241" y="713"/>
      <point x="384" y="713" type="curve"/>
    </contour>
  </outline>
</glyph>
<glyph name="R" format="1">
  <advance width="693"/>
  <unicode hex="0052"/>
  <outline>
    <contour>
      <point x="264" y="765"/>
      <point x="213" y="758"/>
      <point x="182" y="758" type="curve" smooth="yes"/>
      <point x="54" y="758" type="line"/>
      <point x="54" y="705" type="line"/>
      <point x="134" y="697" type="line"/>
      <point x="134" y="56" type="line"/>
      <point x="42" y="42" type="line"/>
      <point x="42" y="0" type="line"/>
      <point x="331" y="0" type="line"/>
      <point x="331" y="42" type="line"/>
      <point x="229" y="56" type="line"/>
      <point x="229" y="328" type="line"/>
      <point x="259" y="328"/>
      <point x="285" y="328"/>
      <point x="308" y="329" type="curve" smooth="yes"/>
      <point x="421" y="340"/>
      <point x="509" y="0"/>
      <point x="559" y="0" type="curve" smooth="yes"/>
      <point x="700" y="0" type="line"/>
      <point x="700" y="42" type="line"/>
      <point x="647" y="56" type="line" smooth="yes"/>
      <point x="597" y="70"/>
      <point x="524" y="298"/>
      <point x="432" y="344" type="curve"/>
      <point x="429" y="345"/>
      <point x="425" y="347"/>
      <point x="422" y="348" type="curve"/>
      <point x="519" y="381"/>
      <point x="585" y="461"/>
      <point x="585" y="563" type="curve" smooth="yes"/>
      <point x="585" y="721"/>
      <point x="479" y="765"/>
      <point x="329" y="765" type="curve" smooth="yes"/>
    </contour>
    <contour>
      <point x="446" y="718"/>
      <point x="486" y="651"/>
      <point x="486" y="552" type="curve" smooth="yes"/>
      <point x="486" y="431"/>
      <point x="420" y="380"/>
      <point x="316" y="380" type="curve" smooth="yes"/>
      <point x="295" y="380"/>
      <point x="245" y="381"/>
      <point x="229" y="383" type="curve"/>
      <point x="229" y="705" type="line"/>
      <point x="254" y="712"/>
      <point x="284" y="711"/>
      <point x="316" y="713" type="curve" smooth="yes"/>
    </contour>
  </outline>
</glyph>
<glyph name="U" format="1">
  <advance width="770"/>
  <unicode hex="0055"/>
  <outline>
	<contour>
	  <point x="515" y="758" type="line"/>
	  <point x="515" y="710" type="line"/>
	  <point x="604" y="701" type="line"/>
	  <point x="604" y="335" type="line" smooth="yes"/>
	  <point x="604" y="150"/>
	  <point x="546" y="37"/>
	  <point x="410" y="37" type="curve" smooth="yes"/>
	  <point x="283" y="37"/>
	  <point x="189" y="100"/>
	  <point x="189" y="320" type="curve" smooth="yes"/>
	  <point x="189" y="701" type="line"/>
	  <point x="276" y="710" type="line"/>
	  <point x="276" y="758" type="line"/>
	  <point x="16" y="758" type="line"/>
	  <point x="16" y="710" type="line"/>
	  <point x="94" y="702" type="line"/>
	  <point x="94" y="575"/>
	  <point x="93" y="450"/>
	  <point x="93" y="323" type="curve" smooth="yes"/>
	  <point x="93" y="103"/>
	  <point x="172" y="-14"/>
	  <point x="394" y="-14" type="curve" smooth="yes"/>
	  <point x="561" y="-14"/>
	  <point x="677" y="91"/>
	  <point x="677" y="335" type="curve" smooth="yes"/>
	  <point x="677" y="701" type="line"/>
	  <point x="754" y="710" type="line"/>
	  <point x="754" y="758" type="line"/>
	</contour>
  </outline>
</glyph>
<glyph name="W" format="1">
  <advance width="1026"/>
  <unicode hex="0057"/>
  <outline>
    <contour>
      <point x="305" y="-10" type="line"/>
      <point x="385" y="-10" type="line"/>
      <point x="524" y="486" type="line"/>
      <point x="664" y="-10" type="line"/>
      <point x="743" y="-10" type="line"/>
      <point x="951" y="702" type="line"/>
      <point x="1023" y="710" type="line"/>
      <point x="1023" y="758" type="line"/>
      <point x="787" y="758" type="line"/>
      <point x="787" y="710" type="line"/>
      <point x="872" y="702" type="line"/>
      <point x="744" y="208" type="line"/>
      <point x="719" y="96" type="line"/>
      <point x="695" y="189" type="line"/>
      <point x="563" y="702" type="line"/>
      <point x="647" y="710" type="line"/>
      <point x="647" y="758" type="line"/>
      <point x="381" y="758" type="line"/>
      <point x="381" y="710" type="line"/>
      <point x="460" y="702" type="line"/>
      <point x="488" y="614" type="line"/>
      <point x="384" y="193" type="line"/>
      <point x="354" y="104" type="line"/>
      <point x="344" y="136"/>
      <point x="334" y="167"/>
      <point x="324" y="199" type="curve" smooth="yes"/>
      <point x="171" y="702" type="line"/>
      <point x="264" y="710" type="line"/>
      <point x="264" y="758" type="line"/>
      <point x="2" y="758" type="line"/>
      <point x="2" y="710" type="line"/>
      <point x="66" y="702" type="line"/>
    </contour>
  </outline>
</glyph>
<glyph name="Z" format="1">
  <advance width="660"/>
  <unicode hex="005A"/>
  <outline>
    <contour>
      <point x="88" y="758" type="line"/>
      <point x="73" y="592" type="line"/>
      <point x="125" y="583" type="line"/>
      <point x="171" y="694" type="line"/>
      <point x="519" y="705" type="line"/>
      <point x="469" y="646" type="line"/>
      <point x="45" y="43" type="line"/>
      <point x="58" y="0" type="line"/>
      <point x="600" y="0" type="line"/>
      <point x="635" y="186" type="line"/>
      <point x="586" y="197" type="line"/>
      <point x="523" y="73" type="line"/>
      <point x="157" y="54" type="line"/>
      <point x="205" y="113" type="line"/>
      <point x="626" y="716" type="line"/>
      <point x="612" y="758" type="line"/>
    </contour>
  </outline>
</glyph>
<glyph name="bracketleft" format="1">
  <advance width="417"/>
  <unicode hex="005B"/>
  <outline>
    <contour>
      <point x="98" y="29" type="line" smooth="yes"/>
      <point x="98" y="-67"/>
      <point x="115" y="-93"/>
      <point x="190" y="-93" type="curve" smooth="yes"/>
      <point x="244" y="-93"/>
      <point x="278" y="-83"/>
      <point x="320" y="-72" type="curve"/>
      <point x="320" y="-58"/>
      <point x="319" y="-44"/>
      <point x="319" y="-30" type="curve"/>
      <point x="177" y="-29" type="line"/>
      <point x="177" y="785" type="line"/>
      <point x="319" y="785" type="line"/>
      <point x="319" y="799"/>
      <point x="320" y="813"/>
      <point x="320" y="827" type="curve"/>
      <point x="278" y="837"/>
      <point x="244" y="848"/>
      <point x="190" y="848" type="curve" smooth="yes"/>
      <point x="115" y="848"/>
      <point x="98" y="822"/>
      <point x="98" y="726" type="curve" smooth="yes"/>
    </contour>
  </outline>
</glyph>
<glyph name="backslash" format="1">
  <advance width="398"/>
  <unicode hex="005C"/>
  <outline>
    <contour>
      <point x="15" y="781" type="line"/>
      <point x="294" y="-177" type="line"/>
      <point x="384" y="-177" type="line"/>
      <point x="104" y="781" type="line"/>
    </contour>
  </outline>
</glyph>
<glyph name="bracketright" format="1">
  <advance width="417"/>
  <unicode hex="005D"/>
  <outline>
	<contour>
	  <point x="98" y="-30" type="line"/>
	  <point x="98" y="-72" type="line"/>
	  <point x="139" y="-83"/>
	  <point x="174" y="-93"/>
	  <point x="227" y="-93" type="curve" smooth="yes"/>
	  <point x="303" y="-93"/>
	  <point x="320" y="-67"/>
	  <point x="320" y="29" type="curve" smooth="yes"/>
	  <point x="320" y="726" type="line" smooth="yes"/>
	  <point x="320" y="822"/>
	  <point x="303" y="848"/>
	  <point x="227" y="848" type="curve" smooth="yes"/>
	  <point x="174" y="848"/>
	  <point x="139" y="837"/>
	  <point x="98" y="827" type="curve"/>
	  <point x="98" y="785" type="line"/>
	  <point x="240" y="785" type="line"/>
	  <point x="240" y="-29" type="line"/>
	</contour>
  </outline>
</glyph>
<glyph name="asciicircum" format="1">
  <advance width="645"/>
  <unicode hex="005E"/>
  <outline>
    <contour>
      <point x="87" y="275" type="line"/>
      <point x="163" y="275" type="line"/>
      <point x="317" y="647" type="line"/>
      <point x="472" y="275" type="line"/>
      <point x="558" y="275" type="line"/>
      <point x="370" y="748" type="line"/>
      <point x="274" y="748" type="line"/>
    </contour>
  </outline>
</glyph>
<glyph name="a" format="1">
  <advance width="559"/>
  <unicode hex="0061"/>
  <outline>
    <contour>
      <point x="226" y="556"/>
      <point x="127" y="538"/>
      <point x="79" y="498" type="curve"/>
      <point x="97" y="454" type="line"/>
      <point x="142" y="476"/>
      <point x="201" y="491"/>
      <point x="239" y="491" type="curve" smooth="yes"/>
      <point x="314" y="491"/>
      <point x="373" y="470"/>
      <point x="373" y="367" type="curve" smooth="yes"/>
      <point x="373" y="325" type="line"/>
      <point x="252" y="325"/>
      <point x="57" y="282"/>
      <point x="57" y="138" type="curve" smooth="yes"/>
      <point x="57" y="55"/>
      <point x="121" y="-12"/>
      <point x="215" y="-12" type="curve" smooth="yes"/>
      <point x="297" y="-12"/>
      <point x="348" y="16"/>
      <point x="378" y="53" type="curve"/>
      <point x="378" y="6"/>
      <point x="388" y="-12"/>
      <point x="436" y="-12" type="curve" smooth="yes"/>
      <point x="469" y="-12"/>
      <point x="505" y="-3"/>
      <point x="528" y="9" type="curve"/>
      <point x="528" y="42" type="line"/>
      <point x="466" y="42" type="line"/>
      <point x="467" y="377" type="line"/>
      <point x="467" y="519"/>
      <point x="378" y="556"/>
      <point x="275" y="556" type="curve" smooth="yes"/>
    </contour>
    <contour>
      <point x="372" y="92" type="line"/>
      <point x="352" y="72"/>
      <point x="306" y="50"/>
      <point x="268" y="50" type="curve" smooth="yes"/>
      <point x="195" y="50"/>
      <point x="152" y="79"/>
      <point x="152" y="155" type="curve" smooth="yes"/>
      <point x="152" y="250"/>
      <point x="290" y="274"/>
      <point x="373" y="274" type="curve"/>
    </contour>
  </outline>
</glyph>
<glyph name="b" format="1">
  <advance width="617"/>
  <unicode hex="0062"/>
  <outline>
	<contour>
	  <point x="99" y="24" type="line"/>
	  <point x="112" y="10"/>
	  <point x="200" y="-14"/>
	  <point x="292" y="-14" type="curve" smooth="yes"/>
	  <point x="457" y="-14"/>
	  <point x="568" y="129"/>
	  <point x="568" y="295" type="curve" smooth="yes"/>
	  <point x="568" y="490"/>
	  <point x="461" y="563"/>
	  <point x="352" y="563" type="curve" smooth="yes"/>
	  <point x="276" y="563"/>
	  <point x="228" y="530"/>
	  <point x="193" y="500" type="curve"/>
	  <point x="193" y="785" type="line"/>
	  <point x="173" y="793" type="line"/>
	  <point x="16" y="776" type="line"/>
	  <point x="16" y="733" type="line"/>
	  <point x="99" y="716" type="line"/>
	</contour>
	<contour>
	  <point x="193" y="449" type="line"/>
	  <point x="214" y="469"/>
	  <point x="256" y="495"/>
	  <point x="313" y="495" type="curve" smooth="yes"/>
	  <point x="394" y="495"/>
	  <point x="478" y="435"/>
	  <point x="475" y="278" type="curve" smooth="yes"/>
	  <point x="473" y="111"/>
	  <point x="388" y="38"/>
	  <point x="303" y="38" type="curve" smooth="yes"/>
	  <point x="247" y="38"/>
	  <point x="203" y="50"/>
	  <point x="193" y="77" type="curve"/>
	</contour>
  </outline>
</glyph>
<glyph name="c" format="1">
  <advance width="510"/>
  <unicode hex="0063"/>
  <outline>
    <contour>
      <point x="167" y="555"/>
      <point x="50" y="443"/>
      <point x="51" y="263" type="curve" smooth="yes"/>
      <point x="53" y="106"/>
      <point x="136" y="-10"/>
      <point x="287" y="-10" type="curve" smooth="yes"/>
      <point x="360" y="-10"/>
      <point x="438" y="9"/>
      <point x="476" y="43" type="curve"/>
      <point x="459" y="86" type="line"/>
      <point x="432" y="70"/>
      <point x="370" y="57"/>
      <point x="319" y="57" type="curve" smooth="yes"/>
      <point x="237" y="57"/>
      <point x="140" y="128"/>
      <point x="141" y="306" type="curve" smooth="yes"/>
      <point x="143" y="440"/>
      <point x="220" y="504"/>
      <point x="307" y="504" type="curve" smooth="yes"/>
      <point x="331" y="504"/>
      <point x="366" y="498"/>
      <point x="387" y="481" type="curve"/>
      <point x="412" y="419" type="line"/>
      <point x="458" y="419" type="line"/>
      <point x="458" y="537" type="line"/>
      <point x="432" y="554"/>
      <point x="373" y="563"/>
      <point x="317" y="561" type="curve" smooth="yes"/>
    </contour>
  </outline>
</glyph>
<glyph name="d" format="1">
  <advance width="620"/>
  <unicode hex="0064"/>
  <outline>
    <contour>
      <point x="319" y="773" type="line"/>
      <point x="319" y="730" type="line"/>
      <point x="423" y="713" type="line"/>
      <point x="423" y="550" type="line"/>
      <point x="400" y="558"/>
      <point x="366" y="563"/>
      <point x="331" y="563" type="curve" smooth="yes"/>
      <point x="173" y="563"/>
      <point x="49" y="438"/>
      <point x="49" y="264" type="curve" smooth="yes"/>
      <point x="49" y="74"/>
      <point x="153" y="-12"/>
      <point x="262" y="-12" type="curve" smooth="yes"/>
      <point x="350" y="-12"/>
      <point x="407" y="25"/>
      <point x="427" y="47" type="curve"/>
      <point x="427" y="35" type="line" smooth="yes"/>
      <point x="427" y="-14"/>
      <point x="457" y="-16"/>
      <point x="480" y="-16" type="curve" smooth="yes"/>
      <point x="514" y="-16"/>
      <point x="561" y="-7"/>
      <point x="583" y="5" type="curve"/>
      <point x="583" y="42" type="line"/>
      <point x="517" y="42" type="line"/>
      <point x="517" y="782" type="line"/>
      <point x="495" y="793" type="line"/>
    </contour>
    <contour>
      <point x="382" y="511"/>
      <point x="409" y="488"/>
      <point x="423" y="472" type="curve"/>
      <point x="423" y="98" type="line"/>
      <point x="408" y="83"/>
      <point x="386" y="69"/>
      <point x="354" y="62" type="curve" smooth="yes"/>
      <point x="338" y="58"/>
      <point x="321" y="55"/>
      <point x="300" y="55" type="curve" smooth="yes"/>
      <point x="219" y="55"/>
      <point x="140" y="128"/>
      <point x="142" y="288" type="curve" smooth="yes"/>
      <point x="144" y="458"/>
      <point x="246" y="511"/>
      <point x="319" y="511" type="curve" smooth="yes"/>
    </contour>
  </outline>
</glyph>
<glyph name="g" format="1">
  <advance width="587"/>
  <unicode hex="0067"/>
  <outline>
    <contour>
      <point x="184" y="564"/>
      <point x="71" y="503"/>
      <point x="71" y="368" type="curve" smooth="yes"/>
      <point x="71" y="297"/>
      <point x="102" y="249"/>
      <point x="150" y="219" type="curve"/>
      <point x="111" y="184"/>
      <point x="90" y="127"/>
      <point x="90" y="104" type="curve" smooth="yes"/>
      <point x="90" y="76"/>
      <point x="86" y="40"/>
      <point x="145" y="19" type="curve"/>
      <point x="110" y="-3"/>
      <point x="62" y="-54"/>
      <point x="62" y="-114" type="curve" smooth="yes"/>
      <point x="62" y="-226"/>
      <point x="181" y="-259"/>
      <point x="298" y="-259" type="curve" smooth="yes"/>
      <point x="459" y="-259"/>
      <point x="555" y="-185"/>
      <point x="555" y="-73" type="curve" smooth="yes"/>
      <point x="555" y="-11"/>
      <point x="545" y="80"/>
      <point x="362" y="80" type="curve" smooth="yes"/>
      <point x="306" y="80"/>
      <point x="266" y="80"/>
      <point x="236" y="83" type="curve" smooth="yes"/>
      <point x="190" y="86"/>
      <point x="174" y="106"/>
      <point x="174" y="141" type="curve" smooth="yes"/>
      <point x="174" y="154"/>
      <point x="171" y="183"/>
      <point x="179" y="204" type="curve"/>
      <point x="209" y="192"/>
      <point x="244" y="186"/>
      <point x="282" y="186" type="curve" smooth="yes"/>
      <point x="397" y="186"/>
      <point x="500" y="257"/>
      <point x="500" y="386" type="curve" smooth="yes"/>
      <point x="500" y="423"/>
      <point x="492" y="455"/>
      <point x="478" y="479" type="curve"/>
      <point x="574" y="479" type="line"/>
      <point x="574" y="553" type="line"/>
      <point x="515" y="553" type="line" smooth="yes"/>
      <point x="473" y="553"/>
      <point x="449" y="543"/>
      <point x="436" y="528" type="curve"/>
      <point x="399" y="556"/>
      <point x="349" y="568"/>
      <point x="294" y="567" type="curve" smooth="yes"/>
    </contour>
    <contour>
      <point x="206" y="5"/>
      <point x="236" y="3"/>
      <point x="274" y="3" type="curve" smooth="yes"/>
      <point x="336" y="2" type="line" smooth="yes"/>
      <point x="457" y="2"/>
      <point x="479" y="-34"/>
      <point x="479" y="-97" type="curve" smooth="yes"/>
      <point x="479" y="-169"/>
      <point x="415" y="-204"/>
      <point x="310" y="-204" type="curve" smooth="yes"/>
      <point x="226" y="-204"/>
      <point x="153" y="-171"/>
      <point x="153" y="-83" type="curve" smooth="yes"/>
      <point x="153" y="-35"/>
      <point x="167" y="-9"/>
      <point x="182" y="9" type="curve"/>
    </contour>
    <contour>
      <point x="365" y="516"/>
      <point x="406" y="470"/>
      <point x="406" y="373" type="curve" smooth="yes"/>
      <point x="406" y="283"/>
      <point x="377" y="238"/>
      <point x="296" y="238" type="curve" smooth="yes"/>
      <point x="202" y="238"/>
      <point x="165" y="306"/>
      <point x="165" y="387" type="curve" smooth="yes"/>
      <point x="165" y="485"/>
      <point x="216" y="516"/>
      <point x="281" y="516" type="curve" smooth="yes"/>
    </contour>
  </outline>
</glyph>
<glyph name="i" format="1">
  <advance width="333"/>
  <unicode hex="0069"/>
  <outline>
	<contour>
	  <point x="70" y="518" type="line"/>
	  <point x="70" y="487" type="line"/>
	  <point x="138" y="452" type="line"/>
	  <point x="138" y="52" type="line"/>
	  <point x="55" y="42" type="line"/>
	  <point x="55" y="0" type="line"/>
	  <point x="307" y="0" type="line"/>
	  <point x="307" y="42" type="line"/>
	  <point x="228" y="52" type="line"/>
	  <point x="228" y="546" type="line"/>
	  <point x="206" y="556" type="line"/>
	</contour>
	<contour>
	  <point x="139" y="803"/>
	  <point x="101" y="772"/>
	  <point x="101" y="731" type="curve" smooth="yes"/>
	  <point x="101" y="694"/>
	  <point x="131" y="671"/>
	  <point x="163" y="671" type="curve" smooth="yes"/>
	  <point x="199" y="671"/>
	  <point x="236" y="699"/>
	  <point x="236" y="742" type="curve" smooth="yes"/>
	  <point x="236" y="775"/>
	  <point x="217" y="803"/>
	  <point x="174" y="803" type="curve" smooth="yes"/>
	</contour>
  </outline>
</glyph>
<glyph name="j" format="1">
  <advance width="317"/>
  <unicode hex="006A"/>
  <outline>
    <contour>
      <point x="66" y="517" type="line"/>
      <point x="66" y="488" type="line"/>
      <point x="134" y="452" type="line"/>
      <point x="134" y="-1" type="line" smooth="yes"/>
      <point x="134" y="-138"/>
      <point x="112" y="-182"/>
      <point x="49" y="-182" type="curve" smooth="yes"/>
      <point x="38" y="-182"/>
      <point x="6" y="-181"/>
      <point x="-4" y="-177" type="curve"/>
      <point x="-4" y="-244" type="line"/>
      <point x="1" y="-249"/>
      <point x="35" y="-251"/>
      <point x="49" y="-251" type="curve" smooth="yes"/>
      <point x="157" y="-251"/>
      <point x="226" y="-160"/>
      <point x="226" y="-8" type="curve" smooth="yes"/>
      <point x="226" y="546" type="line"/>
      <point x="204" y="556" type="line"/>
    </contour>
    <contour>
      <point x="136" y="817"/>
      <point x="98" y="787"/>
      <point x="98" y="746" type="curve" smooth="yes"/>
      <point x="98" y="708"/>
      <point x="127" y="686"/>
      <point x="159" y="686" type="curve" smooth="yes"/>
      <point x="196" y="686"/>
      <point x="232" y="713"/>
      <point x="232" y="756" type="curve" smooth="yes"/>
      <point x="232" y="790"/>
      <point x="213" y="817"/>
      <point x="170" y="817" type="curve" smooth="yes"/>
    </contour>
  </outline>
</glyph>
<glyph name="k" format="1">
  <advance width="622"/>
  <unicode hex="006B"/>
  <outline>
    <contour>
      <point x="54" y="0" type="line"/>
      <point x="298" y="0" type="line"/>
      <point x="298" y="42" type="line"/>
      <point x="228" y="51" type="line"/>
      <point x="228" y="106" type="line"/>
      <point x="225" y="201" type="line"/>
      <point x="302" y="278" type="line"/>
      <point x="463" y="53" type="line"/>
      <point x="395" y="42" type="line"/>
      <point x="395" y="0" type="line"/>
      <point x="632" y="0" type="line"/>
      <point x="632" y="42" type="line"/>
      <point x="565" y="52" type="line"/>
      <point x="359" y="325" type="line"/>
      <point x="525" y="492" type="line"/>
      <point x="599" y="500" type="line"/>
      <point x="599" y="551" type="line"/>
      <point x="369" y="551" type="line"/>
      <point x="369" y="500" type="line"/>
      <point x="442" y="493" type="line"/>
      <point x="225" y="269" type="line"/>
      <point x="228" y="344" type="line"/>
      <point x="228" y="782" type="line"/>
      <point x="208" y="793" type="line"/>
      <point x="46" y="773" type="line"/>
      <point x="46" y="730" type="line"/>
      <point x="134" y="713" type="line"/>
      <point x="134" y="52" type="line"/>
      <point x="54" y="42" type="line"/>
    </contour>
  </outline>
</glyph>
<glyph name="m" format="1">
  <advance width="1011"/>
  <unicode hex="006D"/>
  <outline>
	<contour>
	  <point x="67" y="0" type="line"/>
	  <point x="301" y="0" type="line"/>
	  <point x="301" y="42" type="line"/>
	  <point x="229" y="52" type="line"/>
	  <point x="229" y="434" type="line"/>
	  <point x="278" y="468"/>
	  <point x="325" y="483"/>
	  <point x="360" y="485" type="curve" smooth="yes"/>
	  <point x="459" y="489"/>
	  <point x="479" y="438"/>
	  <point x="479" y="313" type="curve" smooth="yes"/>
	  <point x="479" y="52" type="line"/>
	  <point x="406" y="42" type="line"/>
	  <point x="406" y="0" type="line"/>
	  <point x="648" y="0" type="line"/>
	  <point x="648" y="42" type="line"/>
	  <point x="573" y="51" type="line"/>
	  <point x="573" y="328" type="line" smooth="yes"/>
	  <point x="573" y="371"/>
	  <point x="569" y="412"/>
	  <point x="562" y="443" type="curve"/>
	  <point x="604" y="467"/>
	  <point x="648" y="483"/>
	  <point x="692" y="485" type="curve" smooth="yes"/>
	  <point x="792" y="489"/>
	  <point x="810" y="431"/>
	  <point x="810" y="306" type="curve" smooth="yes"/>
	  <point x="810" y="52" type="line"/>
	  <point x="744" y="42" type="line"/>
	  <point x="744" y="0" type="line"/>
	  <point x="986" y="0" type="line"/>
	  <point x="986" y="42" type="line"/>
	  <point x="904" y="52" type="line"/>
	  <point x="904" y="323" type="line" smooth="yes"/>
	  <point x="904" y="491"/>
	  <point x="863" y="560"/>
	  <point x="741" y="556" type="curve" smooth="yes"/>
	  <point x="678" y="554"/>
	  <point x="593" y="522"/>
	  <point x="546" y="487" type="curve"/>
	  <point x="522" y="540"/>
	  <point x="480" y="559"/>
	  <point x="410" y="556" type="curve" smooth="yes"/>
	  <point x="344" y="554"/>
	  <point x="260" y="515"/>
	  <point x="216" y="477" type="curve"/>
	  <point x="216" y="546" type="line"/>
	  <point x="194" y="556" type="line"/>
	  <point x="64" y="518" type="line"/>
	  <point x="64" y="487" type="line"/>
	  <point x="134" y="449" type="line"/>
	  <point x="134" y="52" type="line"/>
	  <point x="67" y="42" type="line"/>
	</contour>
  </outline>
</glyph>
<glyph name="o" format="1">
  <advance width="601"/>
  <unicode hex="006F"/>
  <outline>
    <contour>
      <point x="175" y="561"/>
      <point x="53" y="458"/>
      <point x="50" y="284" type="curve" smooth="yes"/>
      <point x="48" y="129"/>
      <point x="119" y="-12"/>
      <point x="298" y="-12" type="curve" smooth="yes"/>
      <point x="438" y="-12"/>
      <point x="551" y="106"/>
      <point x="553" y="280" type="curve" smooth="yes"/>
      <point x="554" y="438"/>
      <point x="476" y="564"/>
      <point x="310" y="563" type="curve" smooth="yes"/>
    </contour>
    <contour>
      <point x="408" y="509"/>
      <point x="453" y="407"/>
      <point x="453" y="275" type="curve" smooth="yes"/>
      <point x="453" y="125"/>
      <point x="413" y="41"/>
      <point x="302" y="43" type="curve" smooth="yes"/>
      <point x="199" y="45"/>
      <point x="150" y="162"/>
      <point x="150" y="289" type="curve" smooth="yes"/>
      <point x="150" y="429"/>
      <point x="194" y="513"/>
      <point x="304" y="511" type="curve" smooth="yes"/>
    </contour>
  </outline>
</glyph>
<glyph name="p" format="1">
  <advance width="646"/>
  <unicode hex="0070"/>
  <outline>
	<contour>
	  <point x="302" y="563"/>
	  <point x="239" y="521"/>
	  <point x="211" y="489" type="curve"/>
	  <point x="211" y="546" type="line"/>
	  <point x="189" y="556" type="line"/>
	  <point x="60" y="518" type="line"/>
	  <point x="60" y="487" type="line"/>
	  <point x="129" y="449" type="line"/>
	  <point x="129" y="-197" type="line"/>
	  <point x="61" y="-208" type="line"/>
	  <point x="61" y="-250" type="line"/>
	  <point x="318" y="-250" type="line"/>
	  <point x="318" y="-208" type="line"/>
	  <point x="223" y="-198" type="line"/>
	  <point x="223" y="-127" type="line"/>
	  <point x="220" y="4" type="line"/>
	  <point x="251" y="-4"/>
	  <point x="283" y="-11"/>
	  <point x="319" y="-11" type="curve" smooth="yes"/>
	  <point x="484" y="-11"/>
	  <point x="598" y="124"/>
	  <point x="598" y="291" type="curve" smooth="yes"/>
	  <point x="598" y="490"/>
	  <point x="493" y="563"/>
	  <point x="383" y="563" type="curve" smooth="yes"/>
	</contour>
	<contour>
	  <point x="426" y="500"/>
	  <point x="507" y="442"/>
	  <point x="504" y="278" type="curve" smooth="yes"/>
	  <point x="502" y="106"/>
	  <point x="415" y="40"/>
	  <point x="331" y="40" type="curve" smooth="yes"/>
	  <point x="274" y="40"/>
	  <point x="238" y="57"/>
	  <point x="223" y="83" type="curve"/>
	  <point x="222" y="449" type="line"/>
	  <point x="243" y="467"/>
	  <point x="283" y="500"/>
	  <point x="344" y="500" type="curve" smooth="yes"/>
	</contour>
  </outline>
</glyph>
<glyph name="q" format="1">
  <advance width="606"/>
  <unicode hex="0071"/>
  <outline>
	<contour>
	  <point x="168" y="563"/>
	  <point x="49" y="433"/>
	  <point x="49" y="267" type="curve" smooth="yes"/>
	  <point x="49" y="23"/>
	  <point x="192" y="-14"/>
	  <point x="262" y="-14" type="curve" smooth="yes"/>
	  <point x="351" y="-14"/>
	  <point x="405" y="30"/>
	  <point x="427" y="52" type="curve"/>
	  <point x="424" y="-23" type="line"/>
	  <point x="424" y="-193" type="line"/>
	  <point x="324" y="-203" type="line"/>
	  <point x="324" y="-250" type="line"/>
	  <point x="584" y="-250" type="line"/>
	  <point x="584" y="-203" type="line"/>
	  <point x="518" y="-193" type="line"/>
	  <point x="518" y="547" type="line"/>
	  <point x="499" y="557" type="line"/>
	  <point x="440" y="545" type="line"/>
	  <point x="417" y="555"/>
	  <point x="377" y="563"/>
	  <point x="338" y="563" type="curve" smooth="yes"/>
	</contour>
	<contour>
	  <point x="365" y="511"/>
	  <point x="401" y="501"/>
	  <point x="424" y="472" type="curve"/>
	  <point x="424" y="100" type="line"/>
	  <point x="402" y="78"/>
	  <point x="358" y="54"/>
	  <point x="296" y="54" type="curve" smooth="yes"/>
	  <point x="201" y="54"/>
	  <point x="140" y="132"/>
	  <point x="142" y="283" type="curve" smooth="yes"/>
	  <point x="145" y="435"/>
	  <point x="222" y="511"/>
	  <point x="322" y="511" type="curve" smooth="yes"/>
	</contour>
  </outline>
</glyph>
<glyph name="r" format="1">
  <advance width="451"/>
  <unicode hex="0072"/>
  <outline>
    <contour>
      <point x="55" y="0" type="line"/>
      <point x="368" y="0" type="line"/>
      <point x="368" y="42" type="line"/>
      <point x="229" y="53" type="line"/>
      <point x="229" y="435" type="line"/>
      <point x="258" y="454"/>
      <point x="292" y="469"/>
      <point x="344" y="469" type="curve" smooth="yes"/>
      <point x="389" y="469"/>
      <point x="409" y="460"/>
      <point x="431" y="453" type="curve"/>
      <point x="431" y="553" type="line"/>
      <point x="423" y="555"/>
      <point x="405" y="556"/>
      <point x="383" y="556" type="curve" smooth="yes"/>
      <point x="323" y="556"/>
      <point x="241" y="508"/>
      <point x="216" y="471" type="curve"/>
      <point x="216" y="546" type="line"/>
      <point x="193" y="556" type="line"/>
      <point x="64" y="518" type="line"/>
      <point x="64" y="487" type="line"/>
      <point x="134" y="449" type="line"/>
      <point x="134" y="52" type="line"/>
      <point x="55" y="42" type="line"/>
    </contour>
  </outline>
</glyph>
<glyph name="s" format="1">
  <advance width="512"/>
  <unicode hex="0073"/>
  <outline>
    <contour>
      <point x="82" y="30" type="line"/>
      <point x="131" y="2"/>
      <point x="193" y="-12"/>
      <point x="252" y="-12" type="curve" smooth="yes"/>
      <point x="371" y="-12"/>
      <point x="466" y="44"/>
      <point x="466" y="155" type="curve" smooth="yes"/>
      <point x="466" y="248"/>
      <point x="384" y="281"/>
      <point x="312" y="315" type="curve" smooth="yes"/>
      <point x="244" y="348"/>
      <point x="174" y="373"/>
      <point x="176" y="432" type="curve" smooth="yes"/>
      <point x="178" y="490"/>
      <point x="224" y="514"/>
      <point x="286" y="514" type="curve" smooth="yes"/>
      <point x="329" y="514"/>
      <point x="353" y="498"/>
      <point x="371" y="479" type="curve"/>
      <point x="392" y="424" type="line"/>
      <point x="433" y="424" type="line"/>
      <point x="433" y="529" type="line"/>
      <point x="403" y="546"/>
      <point x="346" y="564"/>
      <point x="281" y="563" type="curve" smooth="yes"/>
      <point x="193" y="561"/>
      <point x="88" y="516"/>
      <point x="86" y="415" type="curve" smooth="yes"/>
      <point x="84" y="329"/>
      <point x="160" y="281"/>
      <point x="237" y="245" type="curve" smooth="yes"/>
      <point x="306" y="211"/>
      <point x="376" y="192"/>
      <point x="376" y="133" type="curve" smooth="yes"/>
      <point x="376" y="68"/>
      <point x="324" y="39"/>
      <point x="251" y="41" type="curve" smooth="yes"/>
      <point x="206" y="42"/>
      <point x="177" y="55"/>
      <point x="145" y="82" type="curve"/>
      <point x="125" y="142" type="line"/>
      <point x="82" y="142" type="line"/>
    </contour>
  </outline>
</glyph>
<glyph name="t" format="1">
  <advance width="421"/>
  <unicode hex="0074"/>
  <outline>
	<contour>
	  <point x="173" y="677" type="line"/>
	  <point x="170" y="660"/>
	  <point x="151" y="589"/>
	  <point x="142" y="566" type="curve" smooth="yes"/>
	  <point x="128" y="534"/>
	  <point x="112" y="536"/>
	  <point x="55" y="521" type="curve"/>
	  <point x="55" y="485" type="line"/>
	  <point x="129" y="485" type="line"/>
	  <point x="129" y="365"/>
	  <point x="129" y="248"/>
	  <point x="129" y="128" type="curve" smooth="yes"/>
	  <point x="129" y="29"/>
	  <point x="170" y="-12"/>
	  <point x="241" y="-12" type="curve" smooth="yes"/>
	  <point x="286" y="-12"/>
	  <point x="363" y="6"/>
	  <point x="393" y="38" type="curve"/>
	  <point x="377" y="81" type="line"/>
	  <point x="362" y="71"/>
	  <point x="311" y="57"/>
	  <point x="278" y="57" type="curve" smooth="yes"/>
	  <point x="226" y="57"/>
	  <point x="221" y="88"/>
	  <point x="221" y="239" type="curve" smooth="yes"/>
	  <point x="221" y="485" type="line"/>
	  <point x="385" y="485" type="line"/>
	  <point x="385" y="546" type="line"/>
	  <point x="221" y="546" type="line"/>
	  <point x="221" y="677" type="line"/>
	</contour>
  </outline>
</glyph>
<glyph name="v" format="1">
  <advance width="580"/>
  <unicode hex="0076"/>
  <outline>
	<contour>
	  <point x="263" y="-12" type="line"/>
	  <point x="329" y="-12" type="line"/>
	  <point x="527" y="484" type="line"/>
	  <point x="579" y="495" type="line"/>
	  <point x="579" y="546" type="line"/>
	  <point x="384" y="546" type="line"/>
	  <point x="384" y="495" type="line"/>
	  <point x="447" y="485" type="line"/>
	  <point x="354" y="218" type="line"/>
	  <point x="309" y="84" type="line"/>
	  <point x="263" y="224" type="line"/>
	  <point x="156" y="485" type="line"/>
	  <point x="216" y="495" type="line"/>
	  <point x="216" y="546" type="line"/>
	  <point x="1" y="546" type="line"/>
	  <point x="1" y="495" type="line"/>
	  <point x="48" y="486" type="line"/>
	</contour>
  </outline>
</glyph>
<glyph name="w" format="1">
  <advance width="826"/>
  <unicode hex="0077"/>
  <outline>
    <contour>
      <point x="217" y="-12" type="line"/>
      <point x="298" y="-12" type="line"/>
      <point x="396" y="360" type="line"/>
      <point x="415" y="433" type="line"/>
      <point x="427" y="360" type="line"/>
      <point x="533" y="-12" type="line"/>
      <point x="619" y="-12" type="line"/>
      <point x="764" y="484" type="line"/>
      <point x="825" y="495" type="line"/>
      <point x="825" y="546" type="line"/>
      <point x="628" y="546" type="line"/>
      <point x="628" y="495" type="line"/>
      <point x="688" y="485" type="line"/>
      <point x="612" y="183" type="line"/>
      <point x="585" y="81" type="line"/>
      <point x="558" y="187" type="line"/>
      <point x="463" y="546" type="line"/>
      <point x="379" y="546" type="line"/>
      <point x="287" y="186" type="line"/>
      <point x="265" y="81" type="line"/>
      <point x="238" y="187" type="line"/>
      <point x="146" y="484" type="line"/>
      <point x="214" y="495" type="line"/>
      <point x="214" y="546" type="line"/>
      <point x="1" y="546" type="line"/>
      <point x="1" y="495" type="line"/>
      <point x="51" y="486" type="line"/>
    </contour>
  </outline>
</glyph>
<glyph name="y" format="1">
  <advance width="562"/>
  <unicode hex="0079"/>
  <outline>
    <contour>
      <point x="73" y="-244" type="line"/>
      <point x="79" y="-248"/>
      <point x="99" y="-251"/>
      <point x="112" y="-251" type="curve" smooth="yes"/>
      <point x="127" y="-251"/>
      <point x="142" y="-250"/>
      <point x="155" y="-247" type="curve" smooth="yes"/>
      <point x="235" y="-227"/>
      <point x="284" y="-149"/>
      <point x="335" y="-19" type="curve" smooth="yes"/>
      <point x="351" y="20"/>
      <point x="381" y="107"/>
      <point x="512" y="487" type="curve"/>
      <point x="566" y="495" type="line"/>
      <point x="566" y="546" type="line"/>
      <point x="355" y="546" type="line"/>
      <point x="355" y="495" type="line"/>
      <point x="432" y="486" type="line"/>
      <point x="333" y="157" type="line"/>
      <point x="304" y="58" type="line"/>
      <point x="271" y="157" type="line"/>
      <point x="157" y="485" type="line"/>
      <point x="227" y="495" type="line"/>
      <point x="227" y="546" type="line"/>
      <point x="1" y="546" type="line"/>
      <point x="1" y="495" type="line"/>
      <point x="52" y="486" type="line"/>
      <point x="248" y="0" type="line"/>
      <point x="269" y="0" type="line"/>
      <point x="226" y="-145"/>
      <point x="159" y="-171"/>
      <point x="112" y="-171" type="curve" smooth="yes"/>
      <point x="101" y="-171"/>
      <point x="84" y="-169"/>
      <point x="73" y="-166" type="curve"/>
    </contour>
  </outline>
</glyph>
<glyph name="braceleft" format="1">
  <advance width="505"/>
  <unicode hex="007B"/>
  <outline>
    <contour>
      <point x="161" y="29" type="line" smooth="yes"/>
      <point x="161" y="-67"/>
      <point x="178" y="-93"/>
      <point x="254" y="-93" type="curve" smooth="yes"/>
      <point x="307" y="-93"/>
      <point x="342" y="-83"/>
      <point x="383" y="-72" type="curve"/>
      <point x="383" y="-29" type="line"/>
      <point x="241" y="-29" type="line"/>
      <point x="241" y="281" type="line" smooth="yes"/>
      <point x="241" y="328"/>
      <point x="189" y="354"/>
      <point x="133" y="379" type="curve"/>
      <point x="192" y="406"/>
      <point x="241" y="425"/>
      <point x="241" y="474" type="curve" smooth="yes"/>
      <point x="241" y="785" type="line"/>
      <point x="383" y="785" type="line"/>
      <point x="383" y="827" type="line"/>
      <point x="342" y="837"/>
      <point x="307" y="848"/>
      <point x="254" y="848" type="curve" smooth="yes"/>
      <point x="178" y="848"/>
      <point x="161" y="822"/>
      <point x="161" y="726" type="curve" smooth="yes"/>
      <point x="161" y="472" type="line" smooth="yes"/>
      <point x="161" y="445"/>
      <point x="94" y="423"/>
      <point x="39" y="410" type="curve"/>
      <point x="39" y="349" type="line"/>
      <point x="95" y="335"/>
      <point x="161" y="309"/>
      <point x="161" y="283" type="curve" smooth="yes"/>
    </contour>
  </outline>
</glyph>
<glyph name="bar" format="1">
  <advance width="426"/>
  <unicode hex="007C"/>
  <outline>
	<contour>
	  <point x="175" y="-91" type="line"/>
	  <point x="259" y="-91" type="line"/>
	  <point x="259" y="869" type="line"/>
	  <point x="175" y="869" type="line"/>
	</contour>
  </outline>
</glyph>
<glyph name="braceright" format="1">
  <advance width="468"/>
  <unicode hex="007D"/>
  <outline>
    <contour>
      <point x="85" y="-29" type="line"/>
      <point x="85" y="-43"/>
      <point x="84" y="-58"/>
      <point x="84" y="-72" type="curve"/>
      <point x="126" y="-83"/>
      <point x="161" y="-93"/>
      <point x="214" y="-93" type="curve" smooth="yes"/>
      <point x="290" y="-93"/>
      <point x="307" y="-67"/>
      <point x="307" y="29" type="curve" smooth="yes"/>
      <point x="307" y="283" type="line" smooth="yes"/>
      <point x="307" y="309"/>
      <point x="373" y="335"/>
      <point x="429" y="349" type="curve"/>
      <point x="429" y="410" type="line"/>
      <point x="374" y="423"/>
      <point x="307" y="445"/>
      <point x="307" y="472" type="curve" smooth="yes"/>
      <point x="307" y="726" type="line" smooth="yes"/>
      <point x="307" y="822"/>
      <point x="290" y="848"/>
      <point x="214" y="848" type="curve" smooth="yes"/>
      <point x="161" y="848"/>
      <point x="126" y="837"/>
      <point x="84" y="827" type="curve"/>
      <point x="84" y="813"/>
      <point x="85" y="799"/>
      <point x="85" y="785" type="curve"/>
      <point x="227" y="785" type="line"/>
      <point x="227" y="474" type="line" smooth="yes"/>
      <point x="227" y="447"/>
      <point x="242" y="430"/>
      <point x="264" y="415" type="curve" smooth="yes"/>
      <point x="283" y="401"/>
      <point x="309" y="391"/>
      <point x="334" y="379" type="curve"/>
      <point x="303" y="365"/>
      <point x="274" y="352"/>
      <point x="253" y="333" type="curve" smooth="yes"/>
      <point x="237" y="319"/>
      <point x="227" y="302"/>
      <point x="227" y="281" type="curve" smooth="yes"/>
      <point x="227" y="-29" type="line"/>
    </contour>
  </outline>
</glyph>
<glyph name="asciitilde" format="1">
  <advance width="614"/>
  <unicode hex="007E"/>
  <outline>
    <contour>
      <point x="108" y="380" type="line"/>
      <point x="132" y="402"/>
      <point x="166" y="431"/>
      <point x="211" y="431" type="curve" smooth="yes"/>
      <point x="269" y="431"/>
      <point x="296" y="349"/>
      <point x="374" y="349" type="curve" smooth="yes"/>
      <point x="445" y="349"/>
      <point x="511" y="393"/>
      <point x="541" y="442" type="curve"/>
      <point x="505" y="485" type="line"/>
      <point x="482" y="463"/>
      <point x="446" y="435"/>
      <point x="402" y="435" type="curve" smooth="yes"/>
      <point x="345" y="435"/>
      <point x="316" y="517"/>
      <point x="240" y="517" type="curve" smooth="yes"/>
      <point x="169" y="517"/>
      <point x="102" y="474"/>
      <point x="73" y="424" type="curve"/>
    </contour>
  </outline>
</glyph>
<glyph name="exclamdown" format="1">
  <advance width="348"/>
  <unicode hex="00A1"/>
  <outline>
	<contour>
	  <point x="141" y="450" type="line"/>
	  <point x="105" y="-199" type="line"/>
	  <point x="230" y="-199" type="line"/>
	  <point x="198" y="450" type="line"/>
	</contour>
	<contour>
	  <point x="146" y="702"/>
	  <point x="108" y="672"/>
	  <point x="108" y="631" type="curve" smooth="yes"/>
	  <point x="108" y="593"/>
	  <point x="138" y="571"/>
	  <point x="170" y="571" type="curve" smooth="yes"/>
	  <point x="207" y="571"/>
	  <point x="243" y="599"/>
	  <point x="243" y="642" type="curve" smooth="yes"/>
	  <point x="243" y="675"/>
	  <point x="224" y="702"/>
	  <point x="181" y="702" type="curve" smooth="yes"/>
	</contour>
  </outline>
</glyph>
<glyph name="sterling" format="1">
  <advance width="704"/>
  <unicode hex="00A3"/>
  <outline>
    <contour>
      <point x="301" y="765"/>
      <point x="204" y="628"/>
      <point x="204" y="482" type="curve" smooth="yes"/>
      <point x="204" y="427" type="line"/>
      <point x="116" y="427" type="line"/>
      <point x="116" y="355" type="line"/>
      <point x="204" y="355" type="line"/>
      <point x="204" y="232" type="line" smooth="yes"/>
      <point x="204" y="194"/>
      <point x="201" y="135"/>
      <point x="188" y="106" type="curve"/>
      <point x="99" y="110"/>
      <point x="43" y="65"/>
      <point x="43" y="30" type="curve" smooth="yes"/>
      <point x="43" y="-9"/>
      <point x="73" y="-15"/>
      <point x="91" y="-15" type="curve" smooth="yes"/>
      <point x="134" y="-15"/>
      <point x="169" y="15"/>
      <point x="194" y="49" type="curve"/>
      <point x="237" y="57"/>
      <point x="321" y="-33"/>
      <point x="487" y="-17" type="curve" smooth="yes"/>
      <point x="654" y="-3"/>
      <point x="665" y="121"/>
      <point x="657" y="182" type="curve" smooth="yes"/>
      <point x="650" y="236"/>
      <point x="623" y="279"/>
      <point x="578" y="298" type="curve"/>
      <point x="533" y="212" type="line"/>
      <point x="558" y="193"/>
      <point x="568" y="164"/>
      <point x="568" y="139" type="curve" smooth="yes"/>
      <point x="568" y="79"/>
      <point x="530" y="16"/>
      <point x="407" y="38" type="curve" smooth="yes"/>
      <point x="346" y="48"/>
      <point x="287" y="89"/>
      <point x="243" y="91" type="curve"/>
      <point x="282" y="160"/>
      <point x="298" y="204"/>
      <point x="298" y="340" type="curve" smooth="yes"/>
      <point x="298" y="355" type="line"/>
      <point x="457" y="355" type="line"/>
      <point x="457" y="427" type="line"/>
      <point x="297" y="427" type="line"/>
      <point x="297" y="483" type="line" smooth="yes"/>
      <point x="297" y="660"/>
      <point x="345" y="705"/>
      <point x="400" y="705" type="curve" smooth="yes"/>
      <point x="476" y="705"/>
      <point x="527" y="646"/>
      <point x="533" y="636" type="curve"/>
      <point x="580" y="726" type="line"/>
      <point x="542" y="758"/>
      <point x="501" y="765"/>
      <point x="447" y="765" type="curve" smooth="yes"/>
    </contour>
  </outline>
</glyph>
<glyph name="currency" format="1">
  <advance width="701"/>
  <unicode hex="00A4"/>
  <outline>
	<contour>
	  <point x="110" y="535" type="line"/>
	  <point x="197" y="447" type="line"/>
	  <point x="174" y="416"/>
	  <point x="161" y="378"/>
	  <point x="161" y="337" type="curve" smooth="yes"/>
	  <point x="161" y="294"/>
	  <point x="175" y="256"/>
	  <point x="198" y="225" type="curve"/>
	  <point x="111" y="138" type="line"/>
	  <point x="153" y="97" type="line"/>
	  <point x="241" y="185" type="line"/>
	  <point x="272" y="164"/>
	  <point x="308" y="152"/>
	  <point x="347" y="152" type="curve" smooth="yes"/>
	  <point x="388" y="152"/>
	  <point x="424" y="165"/>
	  <point x="455" y="187" type="curve"/>
	  <point x="543" y="99" type="line"/>
	  <point x="585" y="141" type="line"/>
	  <point x="497" y="229" type="line"/>
	  <point x="519" y="259"/>
	  <point x="532" y="296"/>
	  <point x="532" y="337" type="curve" smooth="yes"/>
	  <point x="532" y="375"/>
	  <point x="521" y="409"/>
	  <point x="501" y="438" type="curve"/>
	  <point x="591" y="528" type="line"/>
	  <point x="550" y="570" type="line"/>
	  <point x="461" y="482" type="line"/>
	  <point x="430" y="507"/>
	  <point x="390" y="521"/>
	  <point x="347" y="521" type="curve" smooth="yes"/>
	  <point x="306" y="521"/>
	  <point x="271" y="509"/>
	  <point x="240" y="488" type="curve"/>
	  <point x="151" y="577" type="line"/>
	</contour>
	<contour>
	  <point x="411" y="458"/>
	  <point x="462" y="403"/>
	  <point x="462" y="337" type="curve" smooth="yes"/>
	  <point x="462" y="271"/>
	  <point x="411" y="216"/>
	  <point x="347" y="216" type="curve" smooth="yes"/>
	  <point x="283" y="216"/>
	  <point x="231" y="271"/>
	  <point x="231" y="337" type="curve" smooth="yes"/>
	  <point x="231" y="403"/>
	  <point x="283" y="458"/>
	  <point x="347" y="458" type="curve" smooth="yes"/>
	</contour>
  </outline>
</glyph>
<glyph name="dieresis" format="1">
  <advance width="519"/>
  <unicode hex="00A8"/>
  <outline>
    <contour>
      <point x="116" y="804"/>
      <point x="79" y="774"/>
      <point x="79" y="733" type="curve" smooth="yes"/>
      <point x="79" y="696"/>
      <point x="108" y="675"/>
      <point x="140" y="675" type="curve" smooth="yes"/>
      <point x="176" y="675"/>
      <point x="213" y="701"/>
      <point x="213" y="744" type="curve" smooth="yes"/>
      <point x="213" y="777"/>
      <point x="194" y="804"/>
      <point x="151" y="804" type="curve" smooth="yes"/>
    </contour>
    <contour>
      <point x="344" y="804"/>
      <point x="307" y="774"/>
      <point x="307" y="733" type="curve" smooth="yes"/>
      <point x="307" y="696"/>
      <point x="335" y="675"/>
      <point x="367" y="675" type="curve" smooth="yes"/>
      <point x="404" y="675"/>
      <point x="440" y="701"/>
      <point x="440" y="744" type="curve" smooth="yes"/>
      <point x="440" y="777"/>
      <point x="421" y="804"/>
      <point x="378" y="804" type="curve" smooth="yes"/>
    </contour>
  </outline>
</glyph>
<glyph name="ordfeminine" format="1">
  <advance width="471"/>
  <unicode hex="00AA"/>
  <outline>
    <contour>
      <point x="165" y="778"/>
      <point x="90" y="757"/>
      <point x="61" y="731" type="curve"/>
      <point x="80" y="688" type="line"/>
      <point x="103" y="706"/>
      <point x="150" y="718"/>
      <point x="200" y="718" type="curve" smooth="yes"/>
      <point x="262" y="718"/>
      <point x="305" y="710"/>
      <point x="305" y="627" type="curve" smooth="yes"/>
      <point x="305" y="615" type="line"/>
      <point x="168" y="615"/>
      <point x="39" y="594"/>
      <point x="39" y="476" type="curve" smooth="yes"/>
      <point x="39" y="395"/>
      <point x="114" y="359"/>
      <point x="158" y="359" type="curve" smooth="yes"/>
      <point x="242" y="359"/>
      <point x="286" y="391"/>
      <point x="307" y="410" type="curve"/>
      <point x="307" y="372"/>
      <point x="314" y="356"/>
      <point x="351" y="356" type="curve" smooth="yes"/>
      <point x="375" y="356"/>
      <point x="415" y="366"/>
      <point x="432" y="373" type="curve"/>
      <point x="432" y="410" type="line"/>
      <point x="389" y="410" type="line"/>
      <point x="390" y="633" type="line" smooth="yes"/>
      <point x="390" y="760"/>
      <point x="321" y="778"/>
      <point x="228" y="778" type="curve" smooth="yes"/>
    </contour>
    <contour>
      <point x="304" y="450" type="line"/>
      <point x="280" y="428"/>
      <point x="228" y="417"/>
      <point x="195" y="417" type="curve" smooth="yes"/>
      <point x="160" y="417"/>
      <point x="130" y="443"/>
      <point x="130" y="492" type="curve" smooth="yes"/>
      <point x="130" y="553"/>
      <point x="203" y="570"/>
      <point x="304" y="570" type="curve"/>
    </contour>
  </outline>
</glyph>
<glyph name="logicalnot" format="1">
  <advance width="602"/>
  <unicode hex="00AC"/>
  <outline>
	<contour>
	  <point x="87" y="363" type="line"/>
	  <point x="435" y="363" type="line"/>
	  <point x="435" y="167" type="line"/>
	  <point x="515" y="167" type="line"/>
	  <point x="515" y="426" type="line"/>
	  <point x="87" y="426" type="line"/>
	</contour>
  </outline>
</glyph>
<glyph name="registered" format="1">
  <advance width="997"/>
  <unicode hex="00AE"/>
  <outline>
	<contour>
	  <point x="273" y="938"/>
	  <point x="87" y="748"/>
	  <point x="87" y="522" type="curve" smooth="yes"/>
	  <point x="87" y="298"/>
	  <point x="273" y="107"/>
	  <point x="499" y="107" type="curve" smooth="yes"/>
	  <point x="723" y="107"/>
	  <point x="910" y="298"/>
	  <point x="910" y="522" type="curve" smooth="yes"/>
	  <point x="910" y="748"/>
	  <point x="723" y="938"/>
	  <point x="499" y="938" type="curve" smooth="yes"/>
	</contour>
	<contour>
	  <point x="691" y="879"/>
	  <point x="846" y="716"/>
	  <point x="846" y="522" type="curve" smooth="yes"/>
	  <point x="846" y="330"/>
	  <point x="691" y="166"/>
	  <point x="499" y="166" type="curve" smooth="yes"/>
	  <point x="305" y="166"/>
	  <point x="150" y="330"/>
	  <point x="150" y="522" type="curve" smooth="yes"/>
	  <point x="150" y="716"/>
	  <point x="305" y="879"/>
	  <point x="499" y="879" type="curve" smooth="yes"/>
	</contour>
	<contour>
	  <point x="431" y="761"/>
	  <point x="423" y="758"/>
	  <point x="384" y="760" type="curve" smooth="yes"/>
	  <point x="306" y="760" type="line"/>
	  <point x="306" y="712" type="line"/>
	  <point x="351" y="701" type="line"/>
	  <point x="351" y="345" type="line"/>
	  <point x="306" y="332" type="line"/>
	  <point x="306" y="290" type="line"/>
	  <point x="482" y="290" type="line"/>
	  <point x="482" y="332" type="line"/>
	  <point x="438" y="342" type="line"/>
	  <point x="438" y="493" type="line"/>
	  <point x="450" y="493"/>
	  <point x="462" y="493"/>
	  <point x="474" y="493" type="curve"/>
	  <point x="571" y="452"/>
	  <point x="553" y="290"/>
	  <point x="644" y="290" type="curve" smooth="yes"/>
	  <point x="721" y="290" type="line"/>
	  <point x="721" y="335" type="line"/>
	  <point x="642" y="335"/>
	  <point x="645" y="454"/>
	  <point x="557" y="502" type="curve"/>
	  <point x="662" y="521"/>
	  <point x="684" y="589"/>
	  <point x="684" y="647" type="curve" smooth="yes"/>
	  <point x="682" y="722"/>
	  <point x="625" y="762"/>
	  <point x="513" y="762" type="curve" smooth="yes"/>
	</contour>
	<contour>
	  <point x="555" y="713"/>
	  <point x="596" y="688"/>
	  <point x="596" y="625" type="curve" smooth="yes"/>
	  <point x="596" y="579"/>
	  <point x="558" y="537"/>
	  <point x="503" y="537" type="curve" smooth="yes"/>
	  <point x="475" y="537"/>
	  <point x="458" y="537"/>
	  <point x="438" y="541" type="curve"/>
	  <point x="438" y="708" type="line"/>
	  <point x="465" y="714"/>
	  <point x="473" y="713"/>
	  <point x="495" y="713" type="curve" smooth="yes"/>
	</contour>
  </outline>
</glyph>
<glyph name="degree" format="1">
  <advance width="331"/>
  <unicode hex="00B0"/>
  <outline>
	<contour>
	  <point x="80" y="778"/>
	  <point x="10" y="708"/>
	  <point x="10" y="624" type="curve" smooth="yes"/>
	  <point x="10" y="539"/>
	  <point x="80" y="469"/>
	  <point x="165" y="469" type="curve" smooth="yes"/>
	  <point x="251" y="469"/>
	  <point x="321" y="539"/>
	  <point x="321" y="624" type="curve" smooth="yes"/>
	  <point x="321" y="708"/>
	  <point x="251" y="778"/>
	  <point x="165" y="778" type="curve" smooth="yes"/>
	</contour>
	<contour>
	  <point x="220" y="723"/>
	  <point x="263" y="678"/>
	  <point x="263" y="624" type="curve" smooth="yes"/>
	  <point x="263" y="567"/>
	  <point x="222" y="525"/>
	  <point x="165" y="525" type="curve" smooth="yes"/>
	  <point x="110" y="525"/>
	  <point x="67" y="570"/>
	  <point x="67" y="624" type="curve" smooth="yes"/>
	  <point x="67" y="680"/>
	  <point x="108" y="723"/>
	  <point x="165" y="723" type="curve" smooth="yes"/>
	</contour>
  </outline>
</glyph>
<glyph name="plusminus" format="1">
  <advance width="620"/>
  <unicode hex="00B1"/>
  <outline>
	<contour>
	  <point x="272" y="157" type="line"/>
	  <point x="348" y="157" type="line"/>
	  <point x="348" y="274" type="line"/>
	  <point x="343" y="355" type="line"/>
	  <point x="410" y="352" type="line"/>
	  <point x="533" y="352" type="line"/>
	  <point x="533" y="427" type="line"/>
	  <point x="410" y="427" type="line"/>
	  <point x="343" y="421" type="line"/>
	  <point x="348" y="504" type="line"/>
	  <point x="348" y="615" type="line"/>
	  <point x="272" y="615" type="line"/>
	  <point x="272" y="504" type="line"/>
	  <point x="275" y="421" type="line"/>
	  <point x="194" y="427" type="line"/>
	  <point x="87" y="427" type="line"/>
	  <point x="87" y="352" type="line"/>
	  <point x="194" y="352" type="line"/>
	  <point x="275" y="355" type="line"/>
	  <point x="272" y="274" type="line"/>
	</contour>
	<contour>
	  <point x="93" y="15" type="line"/>
	  <point x="525" y="15" type="line"/>
	  <point x="525" y="86" type="line"/>
	  <point x="93" y="86" type="line"/>
	</contour>
  </outline>
</glyph>
<glyph name="twosuperior" format="1">
  <advance width="613"/>
  <unicode hex="00B2"/>
  <outline>
	<contour>
	  <point x="91" y="352" type="line"/>
	  <point x="516" y="352" type="line"/>
	  <point x="543" y="477" type="line"/>
	  <point x="493" y="497" type="line"/>
	  <point x="435" y="429" type="line"/>
	  <point x="181" y="410" type="line"/>
	  <point x="354" y="501"/>
	  <point x="485" y="585"/>
	  <point x="485" y="709" type="curve" smooth="yes"/>
	  <point x="485" y="757"/>
	  <point x="451" y="844"/>
	  <point x="292" y="844" type="curve" smooth="yes"/>
	  <point x="190" y="844"/>
	  <point x="101" y="782"/>
	  <point x="70" y="734" type="curve"/>
	  <point x="106" y="691" type="line"/>
	  <point x="145" y="741"/>
	  <point x="215" y="771"/>
	  <point x="271" y="771" type="curve" smooth="yes"/>
	  <point x="326" y="771"/>
	  <point x="378" y="748"/>
	  <point x="378" y="678" type="curve" smooth="yes"/>
	  <point x="378" y="580"/>
	  <point x="145" y="445"/>
	  <point x="70" y="408" type="curve"/>
	</contour>
  </outline>
</glyph>
<glyph name="threesuperior" format="1">
  <advance width="559"/>
  <unicode hex="00B3"/>
  <outline>
    <contour>
      <point x="110" y="329" type="line"/>
      <point x="158" y="307"/>
      <point x="220" y="296"/>
      <point x="259" y="296" type="curve" smooth="yes"/>
      <point x="402" y="296"/>
      <point x="485" y="367"/>
      <point x="485" y="458" type="curve" smooth="yes"/>
      <point x="485" y="503"/>
      <point x="453" y="593"/>
      <point x="336" y="587" type="curve"/>
      <point x="411" y="615"/>
      <point x="447" y="658"/>
      <point x="447" y="717" type="curve" smooth="yes"/>
      <point x="447" y="780"/>
      <point x="390" y="838"/>
      <point x="292" y="838" type="curve" smooth="yes"/>
      <point x="230" y="838"/>
      <point x="140" y="811"/>
      <point x="92" y="774" type="curve"/>
      <point x="116" y="730" type="line"/>
      <point x="149" y="754"/>
      <point x="214" y="775"/>
      <point x="259" y="775" type="curve" smooth="yes"/>
      <point x="301" y="775"/>
      <point x="349" y="762"/>
      <point x="349" y="715" type="curve" smooth="yes"/>
      <point x="349" y="649"/>
      <point x="288" y="605"/>
      <point x="188" y="586" type="curve"/>
      <point x="188" y="527" type="line"/>
      <point x="250" y="540" type="line"/>
      <point x="261" y="542"/>
      <point x="273" y="545"/>
      <point x="284" y="547" type="curve"/>
      <point x="343" y="545"/>
      <point x="389" y="519"/>
      <point x="389" y="462" type="curve" smooth="yes"/>
      <point x="389" y="404"/>
      <point x="343" y="359"/>
      <point x="247" y="357" type="curve" smooth="yes"/>
      <point x="206" y="357"/>
      <point x="148" y="368"/>
      <point x="110" y="383" type="curve"/>
    </contour>
  </outline>
</glyph>
<glyph name="acute" format="1">
  <advance width="432"/>
  <unicode hex="00B4"/>
  <outline>
    <contour>
      <point x="134" y="654" type="line"/>
      <point x="188" y="679"/>
      <point x="284" y="736"/>
      <point x="323" y="796" type="curve"/>
      <point x="252" y="869" type="line"/>
      <point x="108" y="681" type="line"/>
    </contour>
  </outline>
</glyph>
<glyph name="paragraph" format="1">
  <advance width="657"/>
  <unicode hex="00B6"/>
  <outline>
    <contour>
      <point x="136" y="768"/>
      <point x="58" y="678"/>
      <point x="58" y="550" type="curve" smooth="yes"/>
      <point x="58" y="398"/>
      <point x="126" y="330"/>
      <point x="265" y="330" type="curve"/>
      <point x="265" y="56" type="line"/>
      <point x="167" y="42" type="line"/>
      <point x="167" y="0" type="line"/>
      <point x="346" y="0" type="line"/>
      <point x="346" y="693" type="line"/>
      <point x="441" y="693" type="line"/>
      <point x="442" y="0" type="line"/>
      <point x="597" y="0" type="line"/>
      <point x="597" y="42" type="line"/>
      <point x="525" y="56" type="line"/>
      <point x="525" y="693" type="line"/>
      <point x="609" y="709" type="line"/>
      <point x="609" y="758" type="line"/>
      <point x="525" y="758" type="line" smooth="yes"/>
      <point x="471" y="760"/>
      <point x="354" y="768"/>
      <point x="310" y="768" type="curve" smooth="yes"/>
    </contour>
  </outline>
</glyph>
<glyph name="periodcentered" format="1">
  <advance width="345"/>
  <unicode hex="00B7"/>
  <outline>
	<contour>
	  <point x="143" y="479"/>
	  <point x="105" y="449"/>
	  <point x="105" y="408" type="curve" smooth="yes"/>
	  <point x="105" y="370"/>
	  <point x="135" y="348"/>
	  <point x="167" y="348" type="curve" smooth="yes"/>
	  <point x="203" y="348"/>
	  <point x="240" y="375"/>
	  <point x="240" y="418" type="curve" smooth="yes"/>
	  <point x="240" y="452"/>
	  <point x="221" y="479"/>
	  <point x="178" y="479" type="curve" smooth="yes"/>
	</contour>
  </outline>
</glyph>
<glyph name="guillemetright" format="1">
  <advance width="926"/>
  <unicode hex="00BB"/>
  <outline>
	<contour>
	  <point x="466" y="121" type="line"/>
	  <point x="491" y="80" type="line"/>
	  <point x="807" y="266" type="line"/>
	  <point x="807" y="347" type="line"/>
	  <point x="491" y="525" type="line"/>
	  <point x="466" y="480" type="line"/>
	  <point x="716" y="304" type="line"/>
	</contour>
	<contour>
	  <point x="145" y="80" type="line"/>
	  <point x="461" y="266" type="line"/>
	  <point x="461" y="347" type="line"/>
	  <point x="145" y="525" type="line"/>
	  <point x="120" y="480" type="line"/>
	  <point x="370" y="304" type="line"/>
	  <point x="120" y="121" type="line"/>
	</contour>
  </outline>
</glyph>
<glyph name="onehalf" format="1">
  <advance width="1282"/>
  <unicode hex="00BD"/>
  <outline>
    <contour>
      <point x="389" y="-152" type="line"/>
      <point x="453" y="-167" type="line"/>
      <point x="831" y="900" type="line"/>
      <point x="767" y="918" type="line"/>
    </contour>
    <contour>
      <point x="120" y="351" type="line"/>
      <point x="473" y="351" type="line"/>
      <point x="473" y="393" type="line"/>
      <point x="347" y="405" type="line"/>
      <point x="348" y="834" type="line"/>
      <point x="323" y="842" type="line"/>
      <point x="300" y="823"/>
      <point x="169" y="765"/>
      <point x="110" y="747" type="curve"/>
      <point x="120" y="699" type="line"/>
      <point x="164" y="708"/>
      <point x="208" y="716"/>
      <point x="252" y="725" type="curve"/>
      <point x="252" y="406" type="line"/>
      <point x="120" y="393" type="line"/>
    </contour>
    <contour>
      <point x="736" y="-1" type="line"/>
      <point x="1160" y="-1" type="line"/>
      <point x="1188" y="124" type="line"/>
      <point x="1137" y="145" type="line"/>
      <point x="1079" y="76" type="line"/>
      <point x="826" y="58" type="line"/>
      <point x="999" y="149"/>
      <point x="1130" y="232"/>
      <point x="1130" y="357" type="curve" smooth="yes"/>
      <point x="1130" y="405"/>
      <point x="1095" y="492"/>
      <point x="937" y="492" type="curve" smooth="yes"/>
      <point x="834" y="492"/>
      <point x="746" y="430"/>
      <point x="714" y="381" type="curve"/>
      <point x="750" y="339" type="line"/>
      <point x="790" y="389"/>
      <point x="859" y="419"/>
      <point x="915" y="419" type="curve" smooth="yes"/>
      <point x="971" y="419"/>
      <point x="1022" y="395"/>
      <point x="1022" y="325" type="curve" smooth="yes"/>
      <point x="1022" y="227"/>
      <point x="789" y="93"/>
      <point x="715" y="56" type="curve"/>
    </contour>
  </outline>
</glyph>
<glyph name="questiondown" format="1">
  <advance width="494"/>
  <unicode hex="00BF"/>
  <outline>
    <contour>
      <point x="215" y="453" type="line"/>
      <point x="237" y="393"/>
      <point x="270" y="335"/>
      <point x="262" y="283" type="curve"/>
      <point x="243" y="221"/>
      <point x="46" y="187"/>
      <point x="46" y="115" type="curve"/>
      <point x="28" y="-12"/>
      <point x="97" y="-204"/>
      <point x="341" y="-204" type="curve" smooth="yes"/>
      <point x="380" y="-204"/>
      <point x="423" y="-194"/>
      <point x="434" y="-181" type="curve"/>
      <point x="434" y="-107" type="line"/>
      <point x="415" y="-115"/>
      <point x="378" y="-118"/>
      <point x="353" y="-118" type="curve" smooth="yes"/>
      <point x="226" y="-118"/>
      <point x="110" y="-6"/>
      <point x="118" y="122" type="curve"/>
      <point x="132" y="169"/>
      <point x="360" y="206"/>
      <point x="356" y="287" type="curve" smooth="yes"/>
      <point x="353" y="341"/>
      <point x="298" y="430"/>
      <point x="267" y="453" type="curve"/>
    </contour>
    <contour>
      <point x="194" y="703"/>
      <point x="156" y="673"/>
      <point x="156" y="632" type="curve" smooth="yes"/>
      <point x="156" y="594"/>
      <point x="186" y="572"/>
      <point x="217" y="572" type="curve" smooth="yes"/>
      <point x="254" y="572"/>
      <point x="291" y="600"/>
      <point x="291" y="643" type="curve" smooth="yes"/>
      <point x="291" y="676"/>
      <point x="271" y="703"/>
      <point x="229" y="703" type="curve" smooth="yes"/>
    </contour>
  </outline>
</glyph>
<glyph name="Aacute" format="1">
  <advance width="729"/>
  <unicode hex="00C1"/>
  <outline>
    <contour>
      <point x="361" y="785" type="line"/>
      <point x="422" y="795"/>
      <point x="495" y="826"/>
      <point x="556" y="865" type="curve"/>
      <point x="485" y="938" type="line"/>
      <point x="335" y="811" type="line"/>
    </contour>
    <contour>
      <point x="1" y="0" type="line"/>
      <point x="234" y="0" type="line"/>
      <point x="234" y="42" type="line"/>
      <point x="153" y="56" type="line"/>
      <point x="206" y="213" type="line"/>
      <point x="499" y="213" type="line"/>
      <point x="551" y="56" type="line"/>
      <point x="470" y="42" type="line"/>
      <point x="470" y="0" type="line"/>
      <point x="728" y="0" type="line"/>
      <point x="728" y="42" type="line"/>
      <point x="650" y="56" type="line"/>
      <point x="407" y="758" type="line"/>
      <point x="325" y="758" type="line"/>
      <point x="71" y="56" type="line"/>
      <point x="1" y="42" type="line"/>
    </contour>
    <contour>
      <point x="225" y="271" type="line"/>
      <point x="354" y="656" type="line"/>
      <point x="400" y="509" type="line"/>
      <point x="479" y="271" type="line"/>
    </contour>
  </outline>
</glyph>
<glyph name="Adieresis" format="1">
  <advance width="729"/>
  <unicode hex="00C4"/>
  <outline>
    <contour>
      <point x="325" y="758" type="line"/>
      <point x="71" y="56" type="line"/>
      <point x="1" y="42" type="line"/>
      <point x="1" y="0" type="line"/>
      <point x="234" y="0" type="line"/>
      <point x="234" y="42" type="line"/>
      <point x="153" y="56" type="line"/>
      <point x="206" y="213" type="line"/>
      <point x="499" y="213" type="line"/>
      <point x="551" y="56" type="line"/>
      <point x="470" y="42" type="line"/>
      <point x="470" y="0" type="line"/>
      <point x="728" y="0" type="line"/>
      <point x="728" y="42" type="line"/>
      <point x="650" y="56" type="line"/>
      <point x="407" y="758" type="line"/>
    </contour>
    <contour>
      <point x="400" y="509" type="line"/>
      <point x="479" y="271" type="line"/>
      <point x="225" y="271" type="line"/>
      <point x="354" y="656" type="line"/>
    </contour>
    <contour>
      <point x="222" y="938"/>
      <point x="184" y="907"/>
      <point x="184" y="866" type="curve" smooth="yes"/>
      <point x="184" y="829"/>
      <point x="213" y="806"/>
      <point x="245" y="806" type="curve" smooth="yes"/>
      <point x="282" y="806"/>
      <point x="318" y="834"/>
      <point x="318" y="877" type="curve" smooth="yes"/>
      <point x="318" y="910"/>
      <point x="299" y="938"/>
      <point x="256" y="938" type="curve" smooth="yes"/>
    </contour>
    <contour>
      <point x="449" y="938"/>
      <point x="411" y="907"/>
      <point x="411" y="866" type="curve" smooth="yes"/>
      <point x="411" y="829"/>
      <point x="441" y="806"/>
      <point x="473" y="806" type="curve" smooth="yes"/>
      <point x="509" y="806"/>
      <point x="546" y="834"/>
      <point x="546" y="877" type="curve" smooth="yes"/>
      <point x="546" y="910"/>
      <point x="527" y="938"/>
      <point x="484" y="938" type="curve" smooth="yes"/>
    </contour>
  </outline>
</glyph>
<glyph name="Aring" format="1">
  <advance width="729"/>
  <unicode hex="00C5"/>
  <outline>
	<contour>
	  <point x="297" y="938"/>
	  <point x="242" y="887"/>
	  <point x="242" y="822" type="curve" smooth="yes"/>
	  <point x="242" y="775"/>
	  <point x="270" y="737"/>
	  <point x="311" y="718" type="curve"/>
	  <point x="71" y="56" type="line"/>
	  <point x="1" y="42" type="line"/>
	  <point x="1" y="0" type="line"/>
	  <point x="234" y="0" type="line"/>
	  <point x="234" y="42" type="line"/>
	  <point x="153" y="56" type="line"/>
	  <point x="206" y="213" type="line"/>
	  <point x="499" y="213" type="line"/>
	  <point x="551" y="56" type="line"/>
	  <point x="470" y="42" type="line"/>
	  <point x="470" y="0" type="line"/>
	  <point x="728" y="0" type="line"/>
	  <point x="728" y="42" type="line"/>
	  <point x="650" y="56" type="line"/>
	  <point x="420" y="719" type="line"/>
	  <point x="461" y="738"/>
	  <point x="488" y="776"/>
	  <point x="488" y="822" type="curve" smooth="yes"/>
	  <point x="488" y="887"/>
	  <point x="432" y="938"/>
	  <point x="365" y="938" type="curve" smooth="yes"/>
	</contour>
	<contour>
	  <point x="400" y="509" type="line"/>
	  <point x="479" y="271" type="line"/>
	  <point x="225" y="271" type="line"/>
	  <point x="354" y="656" type="line"/>
	</contour>
	<contour>
	  <point x="400" y="883"/>
	  <point x="430" y="856"/>
	  <point x="430" y="821" type="curve" smooth="yes"/>
	  <point x="430" y="785"/>
	  <point x="400" y="759"/>
	  <point x="365" y="759" type="curve" smooth="yes"/>
	  <point x="329" y="759"/>
	  <point x="300" y="785"/>
	  <point x="300" y="821" type="curve" smooth="yes"/>
	  <point x="300" y="856"/>
	  <point x="329" y="883"/>
	  <point x="365" y="883" type="curve" smooth="yes"/>
	</contour>
  </outline>
</glyph>
<glyph name="Eacute" format="1">
  <advance width="644"/>
  <unicode hex="00C9"/>
  <outline>
	<contour>
	  <point x="351" y="785" type="line"/>
	  <point x="411" y="795"/>
	  <point x="484" y="826"/>
	  <point x="545" y="865" type="curve"/>
	  <point x="474" y="938" type="line"/>
	  <point x="325" y="811" type="line"/>
	</contour>
	<contour>
	  <point x="50" y="0" type="line"/>
	  <point x="591" y="0" type="line"/>
	  <point x="613" y="151" type="line"/>
	  <point x="566" y="163" type="line"/>
	  <point x="517" y="62" type="line"/>
	  <point x="227" y="53" type="line"/>
	  <point x="227" y="370" type="line"/>
	  <point x="409" y="367" type="line"/>
	  <point x="423" y="292" type="line"/>
	  <point x="473" y="292" type="line"/>
	  <point x="473" y="502" type="line"/>
	  <point x="423" y="502" type="line"/>
	  <point x="409" y="426" type="line"/>
	  <point x="227" y="422" type="line"/>
	  <point x="227" y="707" type="line"/>
	  <point x="497" y="701" type="line"/>
	  <point x="519" y="619" type="line"/>
	  <point x="573" y="619" type="line"/>
	  <point x="559" y="758" type="line"/>
	  <point x="52" y="758" type="line"/>
	  <point x="52" y="710" type="line"/>
	  <point x="132" y="702" type="line"/>
	  <point x="132" y="56" type="line"/>
	  <point x="50" y="42" type="line"/>
	</contour>
  </outline>
</glyph>
<glyph name="Ecircumflex" format="1">
  <advance width="644"/>
  <unicode hex="00CA"/>
  <outline>
    <contour>
      <point x="223" y="789" type="line"/>
      <point x="355" y="871" type="line"/>
      <point x="484" y="789" type="line"/>
      <point x="526" y="813" type="line"/>
      <point x="401" y="938" type="line"/>
      <point x="309" y="938" type="line"/>
      <point x="185" y="812" type="line"/>
    </contour>
    <contour>
      <point x="50" y="0" type="line"/>
      <point x="591" y="0" type="line"/>
      <point x="613" y="151" type="line"/>
      <point x="566" y="163" type="line"/>
      <point x="517" y="62" type="line"/>
      <point x="227" y="53" type="line"/>
      <point x="227" y="370" type="line"/>
      <point x="409" y="367" type="line"/>
      <point x="423" y="292" type="line"/>
      <point x="473" y="292" type="line"/>
      <point x="473" y="502" type="line"/>
      <point x="423" y="502" type="line"/>
      <point x="409" y="426" type="line"/>
      <point x="227" y="422" type="line"/>
      <point x="227" y="707" type="line"/>
      <point x="497" y="701" type="line"/>
      <point x="519" y="619" type="line"/>
      <point x="573" y="619" type="line"/>
      <point x="559" y="758" type="line"/>
      <point x="52" y="758" type="line"/>
      <point x="52" y="710" type="line"/>
      <point x="132" y="702" type="line"/>
      <point x="132" y="56" type="line"/>
      <point x="50" y="42" type="line"/>
    </contour>
  </outline>
</glyph>
<glyph name="Edieresis" format="1">
  <advance width="644"/>
  <unicode hex="00CB"/>
  <outline>
    <contour>
      <point x="52" y="758" type="line"/>
      <point x="52" y="710" type="line"/>
      <point x="132" y="702" type="line"/>
      <point x="132" y="56" type="line"/>
      <point x="50" y="42" type="line"/>
      <point x="50" y="0" type="line"/>
      <point x="591" y="0" type="line"/>
      <point x="613" y="151" type="line"/>
      <point x="566" y="163" type="line"/>
      <point x="517" y="62" type="line"/>
      <point x="227" y="53" type="line"/>
      <point x="227" y="370" type="line"/>
      <point x="409" y="367" type="line"/>
      <point x="423" y="292" type="line"/>
      <point x="473" y="292" type="line"/>
      <point x="473" y="502" type="line"/>
      <point x="423" y="502" type="line"/>
      <point x="409" y="426" type="line"/>
      <point x="227" y="422" type="line"/>
      <point x="227" y="707" type="line"/>
      <point x="497" y="701" type="line"/>
      <point x="519" y="619" type="line"/>
      <point x="573" y="619" type="line"/>
      <point x="559" y="758" type="line"/>
    </contour>
    <contour>
      <point x="211" y="938"/>
      <point x="173" y="907"/>
      <point x="173" y="866" type="curve" smooth="yes"/>
      <point x="173" y="829"/>
      <point x="203" y="806"/>
      <point x="234" y="806" type="curve" smooth="yes"/>
      <point x="271" y="806"/>
      <point x="308" y="834"/>
      <point x="308" y="877" type="curve" smooth="yes"/>
      <point x="308" y="910"/>
      <point x="289" y="938"/>
      <point x="246" y="938" type="curve" smooth="yes"/>
    </contour>
    <contour>
      <point x="438" y="938"/>
      <point x="400" y="907"/>
      <point x="400" y="866" type="curve" smooth="yes"/>
      <point x="400" y="829"/>
      <point x="430" y="806"/>
      <point x="462" y="806" type="curve" smooth="yes"/>
      <point x="499" y="806"/>
      <point x="535" y="834"/>
      <point x="535" y="877" type="curve" smooth="yes"/>
      <point x="535" y="910"/>
      <point x="516" y="938"/>
      <point x="473" y="938" type="curve" smooth="yes"/>
    </contour>
  </outline>
</glyph>
<glyph name="Igrave" format="1">
  <advance width="373"/>
  <unicode hex="00CC"/>
  <outline>
    <contour>
      <point x="219" y="811" type="line"/>
      <point x="70" y="938" type="line"/>
      <point x="-1" y="865" type="line"/>
      <point x="60" y="826"/>
      <point x="132" y="795"/>
      <point x="193" y="785" type="curve"/>
    </contour>
    <contour>
      <point x="51" y="0" type="line"/>
      <point x="323" y="0" type="line"/>
      <point x="323" y="42" type="line"/>
      <point x="234" y="56" type="line"/>
      <point x="234" y="702" type="line"/>
      <point x="318" y="710" type="line"/>
      <point x="318" y="758" type="line"/>
      <point x="53" y="758" type="line"/>
      <point x="53" y="710" type="line"/>
      <point x="139" y="702" type="line"/>
      <point x="139" y="56" type="line"/>
      <point x="51" y="42" type="line"/>
    </contour>
  </outline>
</glyph>
<glyph name="Iacute" format="1">
  <advance width="373"/>
  <unicode hex="00CD"/>
  <outline>
    <contour>
      <point x="184" y="785" type="line"/>
      <point x="244" y="795"/>
      <point x="317" y="826"/>
      <point x="378" y="865" type="curve"/>
      <point x="307" y="938" type="line"/>
      <point x="158" y="811" type="line"/>
    </contour>
    <contour>
      <point x="51" y="0" type="line"/>
      <point x="323" y="0" type="line"/>
      <point x="323" y="42" type="line"/>
      <point x="234" y="56" type="line"/>
      <point x="234" y="702" type="line"/>
      <point x="318" y="710" type="line"/>
      <point x="318" y="758" type="line"/>
      <point x="53" y="758" type="line"/>
      <point x="53" y="710" type="line"/>
      <point x="139" y="702" type="line"/>
      <point x="139" y="56" type="line"/>
      <point x="51" y="42" type="line"/>
    </contour>
  </outline>
</glyph>
<glyph name="Icircumflex" format="1">
  <advance width="373"/>
  <unicode hex="00CE"/>
  <outline>
	<contour>
	  <point x="56" y="789" type="line"/>
	  <point x="188" y="871" type="line"/>
	  <point x="317" y="789" type="line"/>
	  <point x="359" y="813" type="line"/>
	  <point x="234" y="938" type="line"/>
	  <point x="142" y="938" type="line"/>
	  <point x="18" y="812" type="line"/>
	</contour>
	<contour>
	  <point x="51" y="0" type="line"/>
	  <point x="323" y="0" type="line"/>
	  <point x="323" y="42" type="line"/>
	  <point x="234" y="56" type="line"/>
	  <point x="234" y="702" type="line"/>
	  <point x="318" y="710" type="line"/>
	  <point x="318" y="758" type="line"/>
	  <point x="53" y="758" type="line"/>
	  <point x="53" y="710" type="line"/>
	  <point x="139" y="702" type="line"/>
	  <point x="139" y="56" type="line"/>
	  <point x="51" y="42" type="line"/>
	</contour>
  </outline>
</glyph>
<glyph name="Idieresis" format="1">
  <advance width="373"/>
  <unicode hex="00CF"/>
  <outline>
	<contour>
	  <point x="53" y="758" type="line"/>
	  <point x="53" y="710" type="line"/>
	  <point x="139" y="702" type="line"/>
	  <point x="139" y="56" type="line"/>
	  <point x="51" y="42" type="line"/>
	  <point x="51" y="0" type="line"/>
	  <point x="323" y="0" type="line"/>
	  <point x="323" y="42" type="line"/>
	  <point x="234" y="56" type="line"/>
	  <point x="234" y="702" type="line"/>
	  <point x="318" y="710" type="line"/>
	  <point x="318" y="758" type="line"/>
	</contour>
	<contour>
	  <point x="44" y="938"/>
	  <point x="6" y="907"/>
	  <point x="6" y="866" type="curve" smooth="yes"/>
	  <point x="6" y="829"/>
	  <point x="36" y="806"/>
	  <point x="67" y="806" type="curve" smooth="yes"/>
	  <point x="104" y="806"/>
	  <point x="141" y="834"/>
	  <point x="141" y="877" type="curve" smooth="yes"/>
	  <point x="141" y="910"/>
	  <point x="122" y="938"/>
	  <point x="79" y="938" type="curve" smooth="yes"/>
	</contour>
	<contour>
	  <point x="271" y="938"/>
	  <point x="233" y="907"/>
	  <point x="233" y="866" type="curve" smooth="yes"/>
	  <point x="233" y="829"/>
	  <point x="263" y="806"/>
	  <point x="295" y="806" type="curve" smooth="yes"/>
	  <point x="332" y="806"/>
	  <point x="368" y="834"/>
	  <point x="368" y="877" type="curve" smooth="yes"/>
	  <point x="368" y="910"/>
	  <point x="349" y="938"/>
	  <point x="306" y="938" type="curve" smooth="yes"/>
	</contour>
  </outline>
</glyph>
<glyph name="Eth" format="1">
  <advance width="778"/>
  <unicode hex="00D0"/>
  <outline>
	<contour>
	  <point x="52" y="0" type="line"/>
	  <point x="96" y="0"/>
	  <point x="139" y="0"/>
	  <point x="184" y="0" type="curve" smooth="yes"/>
	  <point x="249" y="0"/>
	  <point x="300" y="-3"/>
	  <point x="348" y="-5" type="curve" smooth="yes"/>
	  <point x="565" y="-10"/>
	  <point x="734" y="143"/>
	  <point x="734" y="399" type="curve" smooth="yes"/>
	  <point x="734" y="626"/>
	  <point x="618" y="767"/>
	  <point x="366" y="765" type="curve" smooth="yes"/>
	  <point x="304" y="765"/>
	  <point x="269" y="758"/>
	  <point x="182" y="758" type="curve" smooth="yes"/>
	  <point x="54" y="758" type="line"/>
	  <point x="54" y="710" type="line"/>
	  <point x="134" y="702" type="line"/>
	  <point x="134" y="425" type="line"/>
	  <point x="48" y="425" type="line"/>
	  <point x="48" y="354" type="line"/>
	  <point x="134" y="354" type="line"/>
	  <point x="134" y="56" type="line"/>
	  <point x="52" y="42" type="line"/>
	</contour>
	<contour>
	  <point x="229" y="354" type="line"/>
	  <point x="355" y="354" type="line"/>
	  <point x="355" y="425" type="line"/>
	  <point x="229" y="425" type="line"/>
	  <point x="229" y="701" type="line"/>
	  <point x="259" y="706"/>
	  <point x="283" y="709"/>
	  <point x="336" y="710" type="curve" smooth="yes"/>
	  <point x="519" y="716"/>
	  <point x="634" y="604"/>
	  <point x="634" y="375" type="curve" smooth="yes"/>
	  <point x="634" y="154"/>
	  <point x="508" y="53"/>
	  <point x="365" y="49" type="curve" smooth="yes"/>
	  <point x="314" y="48"/>
	  <point x="271" y="53"/>
	  <point x="229" y="64" type="curve"/>
	</contour>
  </outline>
</glyph>
<glyph name="Ntilde" format="1">
  <advance width="812"/>
  <unicode hex="00D1"/>
  <outline>
    <contour>
      <point x="543" y="758" type="line"/>
      <point x="543" y="706" type="line"/>
      <point x="623" y="697" type="line"/>
      <point x="623" y="90" type="line"/>
      <point x="554" y="224" type="line"/>
      <point x="227" y="758" type="line"/>
      <point x="54" y="758" type="line"/>
      <point x="54" y="705" type="line"/>
      <point x="134" y="697" type="line"/>
      <point x="134" y="56" type="line"/>
      <point x="51" y="42" type="line"/>
      <point x="51" y="0" type="line"/>
      <point x="299" y="0" type="line"/>
      <point x="299" y="42" type="line"/>
      <point x="204" y="56" type="line"/>
      <point x="204" y="252"/>
      <point x="204" y="448"/>
      <point x="204" y="644" type="curve"/>
      <point x="271" y="508" type="line"/>
      <point x="593" y="0" type="line"/>
      <point x="693" y="0" type="line"/>
      <point x="693" y="697" type="line"/>
      <point x="774" y="706" type="line"/>
      <point x="774" y="758" type="line"/>
    </contour>
    <contour>
      <point x="295" y="938"/>
      <point x="236" y="900"/>
      <point x="211" y="854" type="curve"/>
      <point x="237" y="819" type="line"/>
      <point x="256" y="838"/>
      <point x="293" y="860"/>
      <point x="327" y="860" type="curve" smooth="yes"/>
      <point x="375" y="860"/>
      <point x="390" y="796"/>
      <point x="454" y="796" type="curve" smooth="yes"/>
      <point x="506" y="796"/>
      <point x="565" y="834"/>
      <point x="589" y="880" type="curve"/>
      <point x="564" y="916" type="line"/>
      <point x="543" y="895"/>
      <point x="511" y="876"/>
      <point x="474" y="876" type="curve" smooth="yes"/>
      <point x="426" y="876"/>
      <point x="410" y="938"/>
      <point x="347" y="938" type="curve" smooth="yes"/>
    </contour>
  </outline>
</glyph>
<glyph name="Ocircumflex" format="1">
  <advance width="759"/>
  <unicode hex="00D4"/>
  <outline>
	<contour>
	  <point x="204" y="760"/>
	  <point x="49" y="616"/>
	  <point x="44" y="367" type="curve" smooth="yes"/>
	  <point x="40" y="146"/>
	  <point x="172" y="-18"/>
	  <point x="378" y="-14" type="curve" smooth="yes"/>
	  <point x="564" y="-10"/>
	  <point x="712" y="136"/>
	  <point x="718" y="385" type="curve" smooth="yes"/>
	  <point x="722" y="606"/>
	  <point x="596" y="771"/>
	  <point x="393" y="765" type="curve" smooth="yes"/>
	</contour>
	<contour>
	  <point x="533" y="713"/>
	  <point x="612" y="554"/>
	  <point x="612" y="384" type="curve" smooth="yes"/>
	  <point x="612" y="167"/>
	  <point x="529" y="38"/>
	  <point x="386" y="38" type="curve" smooth="yes"/>
	  <point x="236" y="38"/>
	  <point x="149" y="198"/>
	  <point x="149" y="368" type="curve" smooth="yes"/>
	  <point x="149" y="585"/>
	  <point x="241" y="713"/>
	  <point x="384" y="713" type="curve" smooth="yes"/>
	</contour>
	<contour>
	  <point x="339" y="938" type="line"/>
	  <point x="216" y="812" type="line"/>
	  <point x="254" y="789" type="line"/>
	  <point x="386" y="871" type="line"/>
	  <point x="515" y="789" type="line"/>
	  <point x="557" y="813" type="line"/>
	  <point x="432" y="938" type="line"/>
	</contour>
  </outline>
</glyph>
<glyph name="Otilde" format="1">
  <advance width="759"/>
  <unicode hex="00D5"/>
  <outline>
    <contour>
      <point x="204" y="760"/>
      <point x="49" y="616"/>
      <point x="44" y="367" type="curve" smooth="yes"/>
      <point x="40" y="146"/>
      <point x="172" y="-18"/>
      <point x="378" y="-14" type="curve" smooth="yes"/>
      <point x="564" y="-10"/>
      <point x="712" y="136"/>
      <point x="718" y="385" type="curve" smooth="yes"/>
      <point x="722" y="606"/>
      <point x="596" y="771"/>
      <point x="393" y="765" type="curve" smooth="yes"/>
    </contour>
    <contour>
      <point x="533" y="713"/>
      <point x="612" y="554"/>
      <point x="612" y="384" type="curve" smooth="yes"/>
      <point x="612" y="167"/>
      <point x="529" y="38"/>
      <point x="386" y="38" type="curve" smooth="yes"/>
      <point x="236" y="38"/>
      <point x="149" y="198"/>
      <point x="149" y="368" type="curve" smooth="yes"/>
      <point x="149" y="585"/>
      <point x="241" y="713"/>
      <point x="384" y="713" type="curve" smooth="yes"/>
    </contour>
    <contour>
      <point x="275" y="938"/>
      <point x="216" y="900"/>
      <point x="191" y="854" type="curve"/>
      <point x="217" y="819" type="line"/>
      <point x="236" y="838"/>
      <point x="273" y="860"/>
      <point x="307" y="860" type="curve" smooth="yes"/>
      <point x="355" y="860"/>
      <point x="370" y="796"/>
      <point x="434" y="796" type="curve" smooth="yes"/>
      <point x="486" y="796"/>
      <point x="545" y="834"/>
      <point x="569" y="880" type="curve"/>
      <point x="544" y="916" type="line"/>
      <point x="523" y="895"/>
      <point x="491" y="876"/>
      <point x="454" y="876" type="curve" smooth="yes"/>
      <point x="406" y="876"/>
      <point x="390" y="938"/>
      <point x="327" y="938" type="curve" smooth="yes"/>
    </contour>
  </outline>
</glyph>
<glyph name="Oslash" format="1">
  <advance width="759"/>
  <unicode hex="00D8"/>
  <outline>
    <contour>
      <point x="216" y="-81" type="line"/>
      <point x="259" y="-97" type="line"/>
      <point x="291" y="-5" type="line"/>
      <point x="318" y="-11"/>
      <point x="347" y="-14"/>
      <point x="378" y="-14" type="curve" smooth="yes"/>
      <point x="564" y="-10"/>
      <point x="712" y="136"/>
      <point x="718" y="385" type="curve" smooth="yes"/>
      <point x="720" y="542"/>
      <point x="657" y="672"/>
      <point x="546" y="731" type="curve"/>
      <point x="573" y="810" type="line"/>
      <point x="533" y="827" type="line"/>
      <point x="505" y="749" type="line"/>
      <point x="471" y="760"/>
      <point x="434" y="767"/>
      <point x="393" y="765" type="curve" smooth="yes"/>
      <point x="204" y="760"/>
      <point x="49" y="616"/>
      <point x="44" y="367" type="curve" smooth="yes"/>
      <point x="40" y="198"/>
      <point x="118" y="62"/>
      <point x="247" y="9" type="curve"/>
    </contour>
    <contour>
      <point x="271" y="74" type="line"/>
      <point x="192" y="131"/>
      <point x="149" y="247"/>
      <point x="149" y="368" type="curve" smooth="yes"/>
      <point x="149" y="585"/>
      <point x="241" y="713"/>
      <point x="384" y="713" type="curve" smooth="yes"/>
      <point x="421" y="713"/>
      <point x="453" y="703"/>
      <point x="482" y="686" type="curve"/>
    </contour>
    <contour>
      <point x="519" y="657" type="line"/>
      <point x="580" y="596"/>
      <point x="612" y="492"/>
      <point x="612" y="384" type="curve" smooth="yes"/>
      <point x="612" y="167"/>
      <point x="529" y="38"/>
      <point x="386" y="38" type="curve" smooth="yes"/>
      <point x="359" y="38"/>
      <point x="335" y="42"/>
      <point x="312" y="52" type="curve"/>
    </contour>
  </outline>
</glyph>
<glyph name="Ugrave" format="1">
  <advance width="770"/>
  <unicode hex="00D9"/>
  <outline>
    <contour>
      <point x="515" y="758" type="line"/>
      <point x="515" y="710" type="line"/>
      <point x="604" y="701" type="line"/>
      <point x="604" y="335" type="line" smooth="yes"/>
      <point x="604" y="150"/>
      <point x="546" y="37"/>
      <point x="410" y="37" type="curve" smooth="yes"/>
      <point x="283" y="37"/>
      <point x="189" y="100"/>
      <point x="189" y="320" type="curve" smooth="yes"/>
      <point x="189" y="701" type="line"/>
      <point x="276" y="710" type="line"/>
      <point x="276" y="758" type="line"/>
      <point x="16" y="758" type="line"/>
      <point x="16" y="710" type="line"/>
      <point x="94" y="702" type="line"/>
      <point x="94" y="575"/>
      <point x="93" y="450"/>
      <point x="93" y="323" type="curve" smooth="yes"/>
      <point x="93" y="103"/>
      <point x="172" y="-14"/>
      <point x="394" y="-14" type="curve" smooth="yes"/>
      <point x="561" y="-14"/>
      <point x="677" y="91"/>
      <point x="677" y="335" type="curve" smooth="yes"/>
      <point x="677" y="701" type="line"/>
      <point x="754" y="710" type="line"/>
      <point x="754" y="758" type="line"/>
    </contour>
    <contour>
      <point x="212" y="865" type="line"/>
      <point x="273" y="826"/>
      <point x="346" y="795"/>
      <point x="407" y="785" type="curve"/>
      <point x="433" y="811" type="line"/>
      <point x="283" y="938" type="line"/>
    </contour>
  </outline>
</glyph>
<glyph name="Ucircumflex" format="1">
  <advance width="770"/>
  <unicode hex="00DB"/>
  <outline>
    <contour>
      <point x="515" y="758" type="line"/>
      <point x="515" y="710" type="line"/>
      <point x="604" y="701" type="line"/>
      <point x="604" y="335" type="line" smooth="yes"/>
      <point x="604" y="150"/>
      <point x="546" y="37"/>
      <point x="410" y="37" type="curve" smooth="yes"/>
      <point x="283" y="37"/>
      <point x="189" y="100"/>
      <point x="189" y="320" type="curve" smooth="yes"/>
      <point x="189" y="701" type="line"/>
      <point x="276" y="710" type="line"/>
      <point x="276" y="758" type="line"/>
      <point x="16" y="758" type="line"/>
      <point x="16" y="710" type="line"/>
      <point x="94" y="702" type="line"/>
      <point x="94" y="575"/>
      <point x="93" y="450"/>
      <point x="93" y="323" type="curve" smooth="yes"/>
      <point x="93" y="103"/>
      <point x="172" y="-14"/>
      <point x="394" y="-14" type="curve" smooth="yes"/>
      <point x="561" y="-14"/>
      <point x="677" y="91"/>
      <point x="677" y="335" type="curve" smooth="yes"/>
      <point x="677" y="701" type="line"/>
      <point x="754" y="710" type="line"/>
      <point x="754" y="758" type="line"/>
    </contour>
    <contour>
      <point x="355" y="938" type="line"/>
      <point x="231" y="812" type="line"/>
      <point x="270" y="789" type="line"/>
      <point x="401" y="871" type="line"/>
      <point x="530" y="789" type="line"/>
      <point x="573" y="813" type="line"/>
      <point x="447" y="938" type="line"/>
    </contour>
  </outline>
</glyph>
<glyph name="Yacute" format="1">
  <advance width="660"/>
  <unicode hex="00DD"/>
  <outline>
    <contour>
      <point x="342" y="785" type="line"/>
      <point x="403" y="795"/>
      <point x="476" y="826"/>
      <point x="537" y="865" type="curve"/>
      <point x="466" y="938" type="line"/>
      <point x="316" y="811" type="line"/>
    </contour>
    <contour>
      <point x="196" y="0" type="line"/>
      <point x="496" y="0" type="line"/>
      <point x="496" y="42" type="line"/>
      <point x="391" y="57" type="line"/>
      <point x="391" y="311" type="line"/>
      <point x="590" y="697" type="line"/>
      <point x="654" y="710" type="line"/>
      <point x="654" y="758" type="line"/>
      <point x="429" y="758" type="line"/>
      <point x="429" y="710" type="line"/>
      <point x="512" y="701" type="line"/>
      <point x="372" y="414" type="line"/>
      <point x="350" y="363" type="line"/>
      <point x="326" y="413" type="line"/>
      <point x="171" y="702" type="line"/>
      <point x="246" y="710" type="line"/>
      <point x="246" y="758" type="line"/>
      <point x="6" y="758" type="line"/>
      <point x="6" y="710" type="line"/>
      <point x="62" y="702" type="line"/>
      <point x="296" y="312" type="line"/>
      <point x="296" y="57" type="line"/>
      <point x="196" y="42" type="line"/>
    </contour>
  </outline>
</glyph>
<glyph name="germandbls" format="1">
  <advance width="651"/>
  <unicode hex="00DF"/>
  <outline>
	<contour>
	  <point x="33" y="0" type="line"/>
	  <point x="204" y="0" type="line"/>
	  <point x="204" y="429" type="line" smooth="yes"/>
	  <point x="204" y="646"/>
	  <point x="241" y="717"/>
	  <point x="348" y="717" type="curve" smooth="yes"/>
	  <point x="414" y="717"/>
	  <point x="442" y="663"/>
	  <point x="442" y="598" type="curve" smooth="yes"/>
	  <point x="442" y="502"/>
	  <point x="339" y="423"/>
	  <point x="339" y="356" type="curve" smooth="yes"/>
	  <point x="339" y="234"/>
	  <point x="549" y="236"/>
	  <point x="549" y="135" type="curve" smooth="yes"/>
	  <point x="549" y="63"/>
	  <point x="497" y="44"/>
	  <point x="444" y="44" type="curve" smooth="yes"/>
	  <point x="407" y="44"/>
	  <point x="354" y="70"/>
	  <point x="329" y="83" type="curve"/>
	  <point x="329" y="-1" type="line"/>
	  <point x="368" y="-10"/>
	  <point x="408" y="-10"/>
	  <point x="437" y="-10" type="curve" smooth="yes"/>
	  <point x="543" y="-10"/>
	  <point x="639" y="37"/>
	  <point x="639" y="151" type="curve" smooth="yes"/>
	  <point x="639" y="307"/>
	  <point x="429" y="292"/>
	  <point x="429" y="393" type="curve" smooth="yes"/>
	  <point x="429" y="482"/>
	  <point x="526" y="512"/>
	  <point x="526" y="631" type="curve" smooth="yes"/>
	  <point x="526" y="743"/>
	  <point x="449" y="775"/>
	  <point x="374" y="775" type="curve" smooth="yes"/>
	  <point x="237" y="775"/>
	  <point x="111" y="667"/>
	  <point x="111" y="429" type="curve" smooth="yes"/>
	  <point x="111" y="57" type="line"/>
	  <point x="33" y="42" type="line"/>
	</contour>
  </outline>
</glyph>
<glyph name="ae" format="1">
  <advance width="879"/>
  <unicode hex="00E6"/>
  <outline>
    <contour>
      <point x="561" y="561"/>
      <point x="494" y="529"/>
      <point x="446" y="477" type="curve"/>
      <point x="413" y="538"/>
      <point x="348" y="556"/>
      <point x="275" y="556" type="curve" smooth="yes"/>
      <point x="226" y="556"/>
      <point x="127" y="538"/>
      <point x="79" y="498" type="curve"/>
      <point x="97" y="454" type="line"/>
      <point x="142" y="476"/>
      <point x="201" y="491"/>
      <point x="239" y="491" type="curve" smooth="yes"/>
      <point x="314" y="491"/>
      <point x="373" y="470"/>
      <point x="373" y="367" type="curve" smooth="yes"/>
      <point x="373" y="325" type="line"/>
      <point x="282" y="325"/>
      <point x="71" y="293"/>
      <point x="58" y="157" type="curve" smooth="yes"/>
      <point x="47" y="66"/>
      <point x="114" y="-12"/>
      <point x="215" y="-12" type="curve" smooth="yes"/>
      <point x="310" y="-12"/>
      <point x="389" y="26"/>
      <point x="426" y="78" type="curve"/>
      <point x="468" y="21"/>
      <point x="532" y="-12"/>
      <point x="618" y="-12" type="curve" smooth="yes"/>
      <point x="692" y="-12"/>
      <point x="785" y="9"/>
      <point x="823" y="43" type="curve"/>
      <point x="805" y="84" type="line"/>
      <point x="777" y="69"/>
      <point x="706" y="55"/>
      <point x="655" y="55" type="curve" smooth="yes"/>
      <point x="572" y="55"/>
      <point x="469" y="96"/>
      <point x="466" y="266" type="curve"/>
      <point x="828" y="266" type="line"/>
      <point x="831" y="290"/>
      <point x="835" y="318"/>
      <point x="833" y="359" type="curve" smooth="yes"/>
      <point x="828" y="488"/>
      <point x="758" y="565"/>
      <point x="643" y="563" type="curve" smooth="yes"/>
    </contour>
    <contour>
      <point x="372" y="213"/>
      <point x="372" y="153"/>
      <point x="372" y="92" type="curve"/>
      <point x="352" y="72"/>
      <point x="306" y="50"/>
      <point x="268" y="50" type="curve" smooth="yes"/>
      <point x="195" y="50"/>
      <point x="152" y="79"/>
      <point x="152" y="155" type="curve" smooth="yes"/>
      <point x="152" y="250"/>
      <point x="290" y="274"/>
      <point x="373" y="274" type="curve"/>
    </contour>
    <contour>
      <point x="645" y="510"/>
      <point x="666" y="505"/>
      <point x="683" y="494" type="curve" smooth="yes"/>
      <point x="732" y="462"/>
      <point x="738" y="390"/>
      <point x="734" y="324" type="curve"/>
      <point x="467" y="324" type="line"/>
      <point x="477" y="458"/>
      <point x="544" y="510"/>
      <point x="617" y="510" type="curve" smooth="yes"/>
    </contour>
  </outline>
</glyph>
<glyph name="egrave" format="1">
  <advance width="559"/>
  <unicode hex="00E8"/>
  <outline>
    <contour>
      <point x="159" y="559"/>
      <point x="49" y="438"/>
      <point x="49" y="271" type="curve" smooth="yes"/>
      <point x="49" y="100"/>
      <point x="137" y="-12"/>
      <point x="294" y="-12" type="curve" smooth="yes"/>
      <point x="369" y="-12"/>
      <point x="456" y="9"/>
      <point x="494" y="43" type="curve"/>
      <point x="476" y="84" type="line"/>
      <point x="448" y="68"/>
      <point x="382" y="55"/>
      <point x="332" y="55" type="curve" smooth="yes"/>
      <point x="248" y="55"/>
      <point x="148" y="97"/>
      <point x="143" y="255" type="curve"/>
      <point x="142" y="259"/>
      <point x="142" y="262"/>
      <point x="142" y="266" type="curve"/>
      <point x="504" y="266" type="line"/>
      <point x="507" y="290"/>
      <point x="511" y="318"/>
      <point x="510" y="359" type="curve" smooth="yes"/>
      <point x="504" y="488"/>
      <point x="434" y="565"/>
      <point x="319" y="563" type="curve" smooth="yes"/>
    </contour>
    <contour>
      <point x="321" y="510"/>
      <point x="342" y="505"/>
      <point x="359" y="494" type="curve" smooth="yes"/>
      <point x="409" y="462"/>
      <point x="414" y="390"/>
      <point x="410" y="324" type="curve"/>
      <point x="143" y="324" type="line"/>
      <point x="153" y="458"/>
      <point x="220" y="510"/>
      <point x="293" y="510" type="curve" smooth="yes"/>
    </contour>
    <contour>
      <point x="170" y="796" type="line"/>
      <point x="209" y="736"/>
      <point x="306" y="679"/>
      <point x="359" y="654" type="curve"/>
      <point x="385" y="681" type="line"/>
      <point x="242" y="869" type="line"/>
    </contour>
  </outline>
</glyph>
<glyph name="igrave" format="1">
  <advance width="333"/>
  <unicode hex="00EC"/>
  <outline>
	<contour>
	  <point x="260" y="681" type="line"/>
	  <point x="116" y="869" type="line"/>
	  <point x="45" y="796" type="line"/>
	  <point x="84" y="736"/>
	  <point x="181" y="679"/>
	  <point x="234" y="654" type="curve"/>
	</contour>
	<contour>
	  <point x="55" y="0" type="line"/>
	  <point x="307" y="0" type="line"/>
	  <point x="307" y="42" type="line"/>
	  <point x="228" y="52" type="line"/>
	  <point x="228" y="546" type="line"/>
	  <point x="206" y="556" type="line"/>
	  <point x="70" y="518" type="line"/>
	  <point x="70" y="487" type="line"/>
	  <point x="138" y="452" type="line"/>
	  <point x="138" y="52" type="line"/>
	  <point x="55" y="42" type="line"/>
	</contour>
  </outline>
</glyph>
<glyph name="icircumflex" format="1">
  <advance width="333"/>
  <unicode hex="00EE"/>
  <outline>
	<contour>
	  <point x="31" y="652" type="line"/>
	  <point x="173" y="783" type="line"/>
	  <point x="306" y="652" type="line"/>
	  <point x="348" y="675" type="line"/>
	  <point x="220" y="867" type="line"/>
	  <point x="127" y="867" type="line"/>
	  <point x="-6" y="674" type="line"/>
	</contour>
	<contour>
	  <point x="55" y="0" type="line"/>
	  <point x="307" y="0" type="line"/>
	  <point x="307" y="42" type="line"/>
	  <point x="228" y="52" type="line"/>
	  <point x="228" y="546" type="line"/>
	  <point x="206" y="556" type="line"/>
	  <point x="70" y="518" type="line"/>
	  <point x="70" y="487" type="line"/>
	  <point x="138" y="452" type="line"/>
	  <point x="138" y="52" type="line"/>
	  <point x="55" y="42" type="line"/>
	</contour>
  </outline>
</glyph>
<glyph name="idieresis" format="1">
  <advance width="333"/>
  <unicode hex="00EF"/>
  <outline>
    <contour>
      <point x="70" y="518" type="line"/>
      <point x="70" y="487" type="line"/>
      <point x="138" y="452" type="line"/>
      <point x="138" y="52" type="line"/>
      <point x="55" y="42" type="line"/>
      <point x="55" y="0" type="line"/>
      <point x="307" y="0" type="line"/>
      <point x="307" y="42" type="line"/>
      <point x="228" y="52" type="line"/>
      <point x="228" y="546" type="line"/>
      <point x="206" y="556" type="line"/>
    </contour>
    <contour>
      <point x="30" y="804"/>
      <point x="-7" y="774"/>
      <point x="-7" y="733" type="curve" smooth="yes"/>
      <point x="-7" y="696"/>
      <point x="21" y="675"/>
      <point x="53" y="675" type="curve" smooth="yes"/>
      <point x="90" y="675"/>
      <point x="126" y="701"/>
      <point x="126" y="744" type="curve" smooth="yes"/>
      <point x="126" y="777"/>
      <point x="107" y="804"/>
      <point x="64" y="804" type="curve" smooth="yes"/>
    </contour>
    <contour>
      <point x="257" y="804"/>
      <point x="220" y="774"/>
      <point x="220" y="733" type="curve" smooth="yes"/>
      <point x="220" y="696"/>
      <point x="249" y="675"/>
      <point x="281" y="675" type="curve" smooth="yes"/>
      <point x="317" y="675"/>
      <point x="354" y="701"/>
      <point x="354" y="744" type="curve" smooth="yes"/>
      <point x="354" y="777"/>
      <point x="335" y="804"/>
      <point x="292" y="804" type="curve" smooth="yes"/>
    </contour>
  </outline>
</glyph>
<glyph name="eth" format="1">
  <advance width="601"/>
  <unicode hex="00F0"/>
  <outline>
	<contour>
	  <point x="343" y="815" type="line"/>
	  <point x="289" y="769" type="line"/>
	  <point x="252" y="790"/>
	  <point x="214" y="808"/>
	  <point x="169" y="823" type="curve"/>
	  <point x="157" y="770" type="line"/>
	  <point x="184" y="761"/>
	  <point x="213" y="746"/>
	  <point x="245" y="725" type="curve"/>
	  <point x="165" y="652" type="line"/>
	  <point x="213" y="614" type="line"/>
	  <point x="296" y="685" type="line"/>
	  <point x="364" y="625"/>
	  <point x="426" y="541"/>
	  <point x="448" y="441" type="curve"/>
	  <point x="417" y="477"/>
	  <point x="349" y="504"/>
	  <point x="301" y="504" type="curve" smooth="yes"/>
	  <point x="164" y="504"/>
	  <point x="49" y="416"/>
	  <point x="49" y="245" type="curve" smooth="yes"/>
	  <point x="49" y="93"/>
	  <point x="149" y="-17"/>
	  <point x="300" y="-13" type="curve" smooth="yes"/>
	  <point x="438" y="-11"/>
	  <point x="552" y="97"/>
	  <point x="552" y="302" type="curve" smooth="yes"/>
	  <point x="552" y="457"/>
	  <point x="489" y="621"/>
	  <point x="344" y="731" type="curve"/>
	  <point x="424" y="800" type="line"/>
	  <point x="374" y="842" type="line"/>
	</contour>
	<contour>
	  <point x="396" y="451"/>
	  <point x="438" y="369"/>
	  <point x="448" y="326" type="curve" smooth="yes"/>
	  <point x="452" y="308"/>
	  <point x="451" y="275"/>
	  <point x="451" y="269" type="curve" smooth="yes"/>
	  <point x="451" y="154"/>
	  <point x="397" y="38"/>
	  <point x="308" y="38" type="curve" smooth="yes"/>
	  <point x="205" y="38"/>
	  <point x="151" y="139"/>
	  <point x="151" y="250" type="curve" smooth="yes"/>
	  <point x="151" y="373"/>
	  <point x="195" y="451"/>
	  <point x="300" y="451" type="curve" smooth="yes"/>
	</contour>
  </outline>
</glyph>
<glyph name="odieresis" format="1">
  <advance width="601"/>
  <unicode hex="00F6"/>
  <outline>
    <contour>
      <point x="175" y="561"/>
      <point x="53" y="458"/>
      <point x="50" y="284" type="curve" smooth="yes"/>
      <point x="48" y="129"/>
      <point x="119" y="-12"/>
      <point x="298" y="-12" type="curve" smooth="yes"/>
      <point x="438" y="-12"/>
      <point x="551" y="106"/>
      <point x="553" y="280" type="curve" smooth="yes"/>
      <point x="554" y="438"/>
      <point x="476" y="564"/>
      <point x="310" y="563" type="curve" smooth="yes"/>
    </contour>
    <contour>
      <point x="408" y="509"/>
      <point x="453" y="407"/>
      <point x="453" y="275" type="curve" smooth="yes"/>
      <point x="453" y="125"/>
      <point x="413" y="41"/>
      <point x="302" y="43" type="curve" smooth="yes"/>
      <point x="199" y="45"/>
      <point x="150" y="162"/>
      <point x="150" y="289" type="curve" smooth="yes"/>
      <point x="150" y="429"/>
      <point x="194" y="513"/>
      <point x="304" y="511" type="curve" smooth="yes"/>
    </contour>
    <contour>
      <point x="166" y="804"/>
      <point x="128" y="774"/>
      <point x="128" y="733" type="curve" smooth="yes"/>
      <point x="128" y="696"/>
      <point x="157" y="675"/>
      <point x="189" y="675" type="curve" smooth="yes"/>
      <point x="226" y="675"/>
      <point x="262" y="701"/>
      <point x="262" y="744" type="curve" smooth="yes"/>
      <point x="262" y="777"/>
      <point x="243" y="804"/>
      <point x="200" y="804" type="curve" smooth="yes"/>
    </contour>
    <contour>
      <point x="393" y="804"/>
      <point x="356" y="774"/>
      <point x="356" y="733" type="curve" smooth="yes"/>
      <point x="356" y="696"/>
      <point x="385" y="675"/>
      <point x="417" y="675" type="curve" smooth="yes"/>
      <point x="453" y="675"/>
      <point x="490" y="701"/>
      <point x="490" y="744" type="curve" smooth="yes"/>
      <point x="490" y="777"/>
      <point x="471" y="804"/>
      <point x="428" y="804" type="curve" smooth="yes"/>
    </contour>
  </outline>
</glyph>
<glyph name="oslash" format="1">
  <advance width="601"/>
  <unicode hex="00F8"/>
  <outline>
    <contour>
      <point x="160" y="-79" type="line"/>
      <point x="202" y="-95" type="line"/>
      <point x="232" y="-4" type="line"/>
      <point x="252" y="-9"/>
      <point x="273" y="-12"/>
      <point x="297" y="-12" type="curve" smooth="yes"/>
      <point x="438" y="-12"/>
      <point x="551" y="106"/>
      <point x="552" y="280" type="curve" smooth="yes"/>
      <point x="554" y="396"/>
      <point x="509" y="497"/>
      <point x="419" y="540" type="curve"/>
      <point x="446" y="621" type="line"/>
      <point x="407" y="636" type="line"/>
      <point x="379" y="555" type="line"/>
      <point x="358" y="560"/>
      <point x="335" y="563"/>
      <point x="310" y="563" type="curve" smooth="yes"/>
      <point x="174" y="561"/>
      <point x="52" y="458"/>
      <point x="50" y="284" type="curve" smooth="yes"/>
      <point x="48" y="165"/>
      <point x="89" y="54"/>
      <point x="190" y="9" type="curve"/>
    </contour>
    <contour>
      <point x="216" y="80" type="line"/>
      <point x="171" y="125"/>
      <point x="150" y="205"/>
      <point x="150" y="289" type="curve" smooth="yes"/>
      <point x="150" y="429"/>
      <point x="193" y="513"/>
      <point x="304" y="511" type="curve" smooth="yes"/>
      <point x="323" y="511"/>
      <point x="341" y="507"/>
      <point x="357" y="499" type="curve"/>
    </contour>
    <contour>
      <point x="394" y="472" type="line"/>
      <point x="435" y="431"/>
      <point x="452" y="359"/>
      <point x="452" y="275" type="curve" smooth="yes"/>
      <point x="452" y="125"/>
      <point x="412" y="41"/>
      <point x="302" y="43" type="curve" smooth="yes"/>
      <point x="284" y="43"/>
      <point x="268" y="47"/>
      <point x="253" y="54" type="curve"/>
    </contour>
  </outline>
</glyph>
<glyph name="udieresis" format="1">
  <advance width="631"/>
  <unicode hex="00FC"/>
  <outline>
    <contour>
      <point x="376" y="528" type="line"/>
      <point x="376" y="488" type="line"/>
      <point x="437" y="473" type="line"/>
      <point x="437" y="112" type="line"/>
      <point x="420" y="94"/>
      <point x="360" y="57"/>
      <point x="302" y="57" type="curve" smooth="yes"/>
      <point x="216" y="57"/>
      <point x="197" y="104"/>
      <point x="197" y="211" type="curve" smooth="yes"/>
      <point x="197" y="547" type="line"/>
      <point x="180" y="556" type="line"/>
      <point x="54" y="529" type="line"/>
      <point x="54" y="492" type="line"/>
      <point x="104" y="477" type="line"/>
      <point x="104" y="225" type="line" smooth="yes"/>
      <point x="106" y="90"/>
      <point x="112" y="-10"/>
      <point x="266" y="-10" type="curve" smooth="yes"/>
      <point x="325" y="-10"/>
      <point x="390" y="16"/>
      <point x="446" y="65" type="curve"/>
      <point x="446" y="25" type="line" smooth="yes"/>
      <point x="446" y="-4"/>
      <point x="465" y="-17"/>
      <point x="497" y="-17" type="curve" smooth="yes"/>
      <point x="527" y="-17"/>
      <point x="569" y="-6"/>
      <point x="588" y="4" type="curve"/>
      <point x="588" y="42" type="line"/>
      <point x="529" y="42" type="line"/>
      <point x="529" y="548" type="line"/>
      <point x="516" y="556" type="line"/>
    </contour>
    <contour>
      <point x="160" y="804"/>
      <point x="123" y="774"/>
      <point x="123" y="733" type="curve" smooth="yes"/>
      <point x="123" y="696"/>
      <point x="151" y="675"/>
      <point x="183" y="675" type="curve" smooth="yes"/>
      <point x="220" y="675"/>
      <point x="256" y="701"/>
      <point x="256" y="744" type="curve" smooth="yes"/>
      <point x="256" y="777"/>
      <point x="237" y="804"/>
      <point x="194" y="804" type="curve" smooth="yes"/>
    </contour>
    <contour>
      <point x="387" y="804"/>
      <point x="350" y="774"/>
      <point x="350" y="733" type="curve" smooth="yes"/>
      <point x="350" y="696"/>
      <point x="379" y="675"/>
      <point x="411" y="675" type="curve" smooth="yes"/>
      <point x="447" y="675"/>
      <point x="484" y="701"/>
      <point x="484" y="744" type="curve" smooth="yes"/>
      <point x="484" y="777"/>
      <point x="465" y="804"/>
      <point x="422" y="804" type="curve" smooth="yes"/>
    </contour>
  </outline>
</glyph>
<glyph name="thorn" format="1">
  <advance width="617"/>
  <unicode hex="00FE"/>
  <outline>
    <contour>
      <point x="16" y="776" type="line"/>
      <point x="16" y="733" type="line"/>
      <point x="99" y="716" type="line"/>
      <point x="99" y="-197" type="line"/>
      <point x="31" y="-208" type="line"/>
      <point x="31" y="-250" type="line"/>
      <point x="289" y="-250" type="line"/>
      <point x="289" y="-208" type="line"/>
      <point x="193" y="-198" type="line"/>
      <point x="192" y="-50" type="line"/>
      <point x="190" y="-4" type="line"/>
      <point x="221" y="-10"/>
      <point x="255" y="-14"/>
      <point x="292" y="-14" type="curve" smooth="yes"/>
      <point x="457" y="-14"/>
      <point x="568" y="129"/>
      <point x="568" y="295" type="curve" smooth="yes"/>
      <point x="568" y="490"/>
      <point x="461" y="563"/>
      <point x="352" y="563" type="curve" smooth="yes"/>
      <point x="276" y="563"/>
      <point x="228" y="530"/>
      <point x="193" y="500" type="curve"/>
      <point x="193" y="785" type="line"/>
      <point x="173" y="793" type="line"/>
    </contour>
    <contour>
      <point x="394" y="495"/>
      <point x="478" y="435"/>
      <point x="475" y="278" type="curve" smooth="yes"/>
      <point x="473" y="111"/>
      <point x="388" y="38"/>
      <point x="303" y="38" type="curve" smooth="yes"/>
      <point x="247" y="38"/>
      <point x="203" y="50"/>
      <point x="193" y="77" type="curve"/>
      <point x="193" y="449" type="line"/>
      <point x="214" y="469"/>
      <point x="256" y="495"/>
      <point x="313" y="495" type="curve" smooth="yes"/>
    </contour>
  </outline>
</glyph>
<glyph name="ydieresis" format="1">
  <advance width="562"/>
  <unicode hex="00FF"/>
  <outline>
    <contour>
      <point x="355" y="546" type="line"/>
      <point x="355" y="495" type="line"/>
      <point x="432" y="486" type="line"/>
      <point x="333" y="157" type="line"/>
      <point x="304" y="58" type="line"/>
      <point x="271" y="157" type="line"/>
      <point x="157" y="485" type="line"/>
      <point x="227" y="495" type="line"/>
      <point x="227" y="546" type="line"/>
      <point x="1" y="546" type="line"/>
      <point x="1" y="495" type="line"/>
      <point x="52" y="486" type="line"/>
      <point x="248" y="0" type="line"/>
      <point x="269" y="0" type="line"/>
      <point x="226" y="-145"/>
      <point x="159" y="-171"/>
      <point x="112" y="-171" type="curve" smooth="yes"/>
      <point x="101" y="-171"/>
      <point x="84" y="-169"/>
      <point x="73" y="-166" type="curve"/>
      <point x="73" y="-244" type="line"/>
      <point x="79" y="-248"/>
      <point x="99" y="-251"/>
      <point x="112" y="-251" type="curve" smooth="yes"/>
      <point x="127" y="-251"/>
      <point x="142" y="-250"/>
      <point x="155" y="-247" type="curve" smooth="yes"/>
      <point x="235" y="-227"/>
      <point x="284" y="-149"/>
      <point x="335" y="-19" type="curve" smooth="yes"/>
      <point x="351" y="20"/>
      <point x="381" y="107"/>
      <point x="512" y="487" type="curve"/>
      <point x="566" y="495" type="line"/>
      <point x="566" y="546" type="line"/>
    </contour>
    <contour>
      <point x="155" y="804"/>
      <point x="118" y="774"/>
      <point x="118" y="733" type="curve" smooth="yes"/>
      <point x="118" y="696"/>
      <point x="146" y="675"/>
      <point x="178" y="675" type="curve" smooth="yes"/>
      <point x="215" y="675"/>
      <point x="251" y="701"/>
      <point x="251" y="744" type="curve" smooth="yes"/>
      <point x="251" y="777"/>
      <point x="232" y="804"/>
      <point x="189" y="804" type="curve" smooth="yes"/>
    </contour>
    <contour>
      <point x="382" y="804"/>
      <point x="345" y="774"/>
      <point x="345" y="733" type="curve" smooth="yes"/>
      <point x="345" y="696"/>
      <point x="374" y="675"/>
      <point x="406" y="675" type="curve" smooth="yes"/>
      <point x="442" y="675"/>
      <point x="479" y="701"/>
      <point x="479" y="744" type="curve" smooth="yes"/>
      <point x="479" y="777"/>
      <point x="460" y="804"/>
      <point x="417" y="804" type="curve" smooth="yes"/>
    </contour>
  </outline>
</glyph>
<glyph name="Aogonek" format="1">
  <advance width="729"/>
  <unicode hex="0104"/>
  <outline>
	<contour>
	  <point x="1" y="0" type="line"/>
	  <point x="234" y="0" type="line"/>
	  <point x="234" y="42" type="line"/>
	  <point x="153" y="56" type="line"/>
	  <point x="206" y="213" type="line"/>
	  <point x="499" y="213" type="line"/>
	  <point x="551" y="56" type="line"/>
	  <point x="470" y="42" type="line"/>
	  <point x="470" y="0" type="line"/>
	  <point x="557" y="0" type="line"/>
	  <point x="488" y="-33"/>
	  <point x="413" y="-104"/>
	  <point x="413" y="-165" type="curve" smooth="yes"/>
	  <point x="413" y="-208"/>
	  <point x="438" y="-253"/>
	  <point x="510" y="-257" type="curve" smooth="yes"/>
	  <point x="604" y="-262"/>
	  <point x="653" y="-223"/>
	  <point x="679" y="-203" type="curve"/>
	  <point x="668" y="-160" type="line"/>
	  <point x="652" y="-168"/>
	  <point x="604" y="-197"/>
	  <point x="563" y="-195" type="curve" smooth="yes"/>
	  <point x="521" y="-192"/>
	  <point x="500" y="-182"/>
	  <point x="500" y="-137" type="curve" smooth="yes"/>
	  <point x="500" y="-93"/>
	  <point x="579" y="-23"/>
	  <point x="637" y="0" type="curve"/>
	  <point x="728" y="0" type="line"/>
	  <point x="728" y="42" type="line"/>
	  <point x="650" y="56" type="line"/>
	  <point x="407" y="758" type="line"/>
	  <point x="325" y="758" type="line"/>
	  <point x="71" y="56" type="line"/>
	  <point x="1" y="42" type="line"/>
	</contour>
	<contour>
	  <point x="225" y="271" type="line"/>
	  <point x="354" y="656" type="line"/>
	  <point x="400" y="509" type="line"/>
	  <point x="479" y="271" type="line"/>
	</contour>
  </outline>
</glyph>
<glyph name="aogonek" format="1">
  <advance width="559"/>
  <unicode hex="0105"/>
  <outline>
	<contour>
	  <point x="226" y="556"/>
	  <point x="127" y="538"/>
	  <point x="79" y="498" type="curve"/>
	  <point x="97" y="454" type="line"/>
	  <point x="142" y="476"/>
	  <point x="201" y="491"/>
	  <point x="239" y="491" type="curve" smooth="yes"/>
	  <point x="314" y="491"/>
	  <point x="373" y="470"/>
	  <point x="373" y="367" type="curve" smooth="yes"/>
	  <point x="373" y="325" type="line"/>
	  <point x="253" y="325"/>
	  <point x="53" y="280"/>
	  <point x="57" y="138" type="curve" smooth="yes"/>
	  <point x="57" y="55"/>
	  <point x="121" y="-12"/>
	  <point x="215" y="-12" type="curve" smooth="yes"/>
	  <point x="297" y="-12"/>
	  <point x="348" y="16"/>
	  <point x="378" y="53" type="curve"/>
	  <point x="378" y="9"/>
	  <point x="387" y="-12"/>
	  <point x="430" y="-12" type="curve"/>
	  <point x="373" y="-38"/>
	  <point x="313" y="-103"/>
	  <point x="313" y="-158" type="curve" smooth="yes"/>
	  <point x="313" y="-226"/>
	  <point x="366" y="-253"/>
	  <point x="424" y="-253" type="curve" smooth="yes"/>
	  <point x="465" y="-253"/>
	  <point x="508" y="-239"/>
	  <point x="536" y="-218" type="curve"/>
	  <point x="536" y="-175" type="line"/>
	  <point x="514" y="-184"/>
	  <point x="488" y="-191"/>
	  <point x="465" y="-191" type="curve" smooth="yes"/>
	  <point x="430" y="-191"/>
	  <point x="401" y="-176"/>
	  <point x="401" y="-130" type="curve" smooth="yes"/>
	  <point x="401" y="-87"/>
	  <point x="459" y="-31"/>
	  <point x="528" y="5" type="curve"/>
	  <point x="528" y="42" type="line"/>
	  <point x="466" y="42" type="line"/>
	  <point x="467" y="377" type="line" smooth="yes"/>
	  <point x="467" y="519"/>
	  <point x="378" y="556"/>
	  <point x="275" y="556" type="curve" smooth="yes"/>
	</contour>
	<contour>
	  <point x="372" y="92" type="line"/>
	  <point x="352" y="72"/>
	  <point x="306" y="50"/>
	  <point x="268" y="50" type="curve" smooth="yes"/>
	  <point x="195" y="50"/>
	  <point x="152" y="79"/>
	  <point x="152" y="155" type="curve" smooth="yes"/>
	  <point x="152" y="250"/>
	  <point x="290" y="274"/>
	  <point x="373" y="274" type="curve"/>
	</contour>
  </outline>
</glyph>
<glyph name="dcroat" format="1">
  <advance width="620"/>
  <unicode hex="0111"/>
  <outline>
	<contour>
	  <point x="237" y="594" type="line"/>
	  <point x="598" y="594" type="line"/>
	  <point x="598" y="651" type="line"/>
	  <point x="237" y="651" type="line"/>
	</contour>
	<contour>
	  <point x="319" y="773" type="line"/>
	  <point x="319" y="730" type="line"/>
	  <point x="423" y="713" type="line"/>
	  <point x="423" y="510" type="line"/>
	  <point x="400" y="518"/>
	  <point x="366" y="523"/>
	  <point x="331" y="523" type="curve" smooth="yes"/>
	  <point x="173" y="523"/>
	  <point x="49" y="443"/>
	  <point x="49" y="234" type="curve" smooth="yes"/>
	  <point x="49" y="83"/>
	  <point x="153" y="-12"/>
	  <point x="262" y="-12" type="curve" smooth="yes"/>
	  <point x="350" y="-12"/>
	  <point x="407" y="25"/>
	  <point x="427" y="47" type="curve"/>
	  <point x="427" y="-2"/>
	  <point x="438" y="-16"/>
	  <point x="480" y="-16" type="curve" smooth="yes"/>
	  <point x="514" y="-16"/>
	  <point x="561" y="-7"/>
	  <point x="583" y="5" type="curve"/>
	  <point x="583" y="42" type="line"/>
	  <point x="517" y="42" type="line"/>
	  <point x="517" y="782" type="line"/>
	  <point x="495" y="793" type="line"/>
	</contour>
	<contour>
	  <point x="382" y="471"/>
	  <point x="409" y="448"/>
	  <point x="423" y="432" type="curve"/>
	  <point x="423" y="98" type="line"/>
	  <point x="394" y="69"/>
	  <point x="344" y="55"/>
	  <point x="300" y="55" type="curve" smooth="yes"/>
	  <point x="219" y="55"/>
	  <point x="142" y="116"/>
	  <point x="142" y="258" type="curve" smooth="yes"/>
	  <point x="142" y="422"/>
	  <point x="246" y="471"/>
	  <point x="319" y="471" type="curve" smooth="yes"/>
	</contour>
  </outline>
</glyph>
<glyph name="Eogonek" format="1">
  <advance width="644"/>
  <unicode hex="0118"/>
  <outline>
    <contour>
      <point x="50" y="0" type="line"/>
      <point x="511" y="0" type="line"/>
      <point x="442" y="-33"/>
      <point x="368" y="-104"/>
      <point x="368" y="-165" type="curve" smooth="yes"/>
      <point x="368" y="-208"/>
      <point x="393" y="-253"/>
      <point x="464" y="-257" type="curve" smooth="yes"/>
      <point x="558" y="-262"/>
      <point x="607" y="-223"/>
      <point x="633" y="-203" type="curve"/>
      <point x="623" y="-160" type="line"/>
      <point x="607" y="-168"/>
      <point x="558" y="-197"/>
      <point x="517" y="-195" type="curve" smooth="yes"/>
      <point x="476" y="-192"/>
      <point x="455" y="-182"/>
      <point x="455" y="-137" type="curve" smooth="yes"/>
      <point x="455" y="-93"/>
      <point x="533" y="-23"/>
      <point x="591" y="0" type="curve"/>
      <point x="613" y="151" type="line"/>
      <point x="566" y="163" type="line"/>
      <point x="517" y="62" type="line"/>
      <point x="227" y="53" type="line"/>
      <point x="227" y="370" type="line"/>
      <point x="409" y="367" type="line"/>
      <point x="423" y="292" type="line"/>
      <point x="473" y="292" type="line"/>
      <point x="473" y="502" type="line"/>
      <point x="423" y="502" type="line"/>
      <point x="409" y="426" type="line"/>
      <point x="227" y="422" type="line"/>
      <point x="227" y="707" type="line"/>
      <point x="497" y="701" type="line"/>
      <point x="519" y="619" type="line"/>
      <point x="573" y="619" type="line"/>
      <point x="559" y="758" type="line"/>
      <point x="52" y="758" type="line"/>
      <point x="52" y="710" type="line"/>
      <point x="132" y="702" type="line"/>
      <point x="132" y="56" type="line"/>
      <point x="50" y="42" type="line"/>
    </contour>
  </outline>
</glyph>
<glyph name="eogonek" format="1">
  <advance width="559"/>
  <unicode hex="0119"/>
  <outline>
    <contour>
      <point x="159" y="559"/>
      <point x="49" y="438"/>
      <point x="49" y="271" type="curve" smooth="yes"/>
      <point x="49" y="100"/>
      <point x="137" y="-12"/>
      <point x="294" y="-12" type="curve" smooth="yes"/>
      <point x="317" y="-12"/>
      <point x="341" y="-10"/>
      <point x="365" y="-6" type="curve"/>
      <point x="304" y="-45"/>
      <point x="270" y="-104"/>
      <point x="270" y="-148" type="curve" smooth="yes"/>
      <point x="270" y="-220"/>
      <point x="330" y="-249"/>
      <point x="393" y="-249" type="curve" smooth="yes"/>
      <point x="432" y="-249"/>
      <point x="471" y="-238"/>
      <point x="497" y="-218" type="curve"/>
      <point x="497" y="-175" type="line"/>
      <point x="478" y="-183"/>
      <point x="456" y="-187"/>
      <point x="434" y="-187" type="curve" smooth="yes"/>
      <point x="394" y="-187"/>
      <point x="358" y="-170"/>
      <point x="358" y="-120" type="curve" smooth="yes"/>
      <point x="358" y="-83"/>
      <point x="388" y="-37"/>
      <point x="494" y="43" type="curve"/>
      <point x="476" y="84" type="line"/>
      <point x="448" y="68"/>
      <point x="382" y="55"/>
      <point x="332" y="55" type="curve" smooth="yes"/>
      <point x="210" y="55"/>
      <point x="142" y="137"/>
      <point x="142" y="266" type="curve"/>
      <point x="504" y="266" type="line"/>
      <point x="507" y="287"/>
      <point x="510" y="312"/>
      <point x="510" y="346" type="curve" smooth="yes"/>
      <point x="510" y="483"/>
      <point x="438" y="565"/>
      <point x="319" y="563" type="curve" smooth="yes"/>
    </contour>
    <contour>
      <point x="382" y="510"/>
      <point x="411" y="450"/>
      <point x="411" y="357" type="curve" smooth="yes"/>
      <point x="411" y="346"/>
      <point x="411" y="335"/>
      <point x="410" y="324" type="curve"/>
      <point x="143" y="324" type="line"/>
      <point x="153" y="458"/>
      <point x="220" y="510"/>
      <point x="293" y="510" type="curve" smooth="yes"/>
    </contour>
  </outline>
</glyph>
<glyph name="Itilde" format="1">
  <advance width="373"/>
  <unicode hex="0128"/>
  <outline>
	<contour>
	  <point x="19" y="819" type="line"/>
	  <point x="39" y="838"/>
	  <point x="76" y="860"/>
	  <point x="109" y="860" type="curve" smooth="yes"/>
	  <point x="157" y="860"/>
	  <point x="172" y="796"/>
	  <point x="236" y="796" type="curve" smooth="yes"/>
	  <point x="288" y="796"/>
	  <point x="347" y="834"/>
	  <point x="372" y="880" type="curve"/>
	  <point x="346" y="916" type="line"/>
	  <point x="325" y="895"/>
	  <point x="293" y="876"/>
	  <point x="256" y="876" type="curve" smooth="yes"/>
	  <point x="208" y="876"/>
	  <point x="192" y="938"/>
	  <point x="129" y="938" type="curve" smooth="yes"/>
	  <point x="77" y="938"/>
	  <point x="19" y="900"/>
	  <point x="-6" y="854" type="curve"/>
	</contour>
	<contour>
	  <point x="51" y="0" type="line"/>
	  <point x="323" y="0" type="line"/>
	  <point x="323" y="42" type="line"/>
	  <point x="234" y="56" type="line"/>
	  <point x="234" y="702" type="line"/>
	  <point x="318" y="710" type="line"/>
	  <point x="318" y="758" type="line"/>
	  <point x="53" y="758" type="line"/>
	  <point x="53" y="710" type="line"/>
	  <point x="139" y="702" type="line"/>
	  <point x="139" y="56" type="line"/>
	  <point x="51" y="42" type="line"/>
	</contour>
  </outline>
</glyph>
<glyph name="itilde" format="1">
  <advance width="333"/>
  <unicode hex="0129"/>
  <outline>
    <contour>
      <point x="4" y="692" type="line"/>
      <point x="24" y="712"/>
      <point x="56" y="738"/>
      <point x="94" y="738" type="curve" smooth="yes"/>
      <point x="142" y="738"/>
      <point x="157" y="672"/>
      <point x="221" y="672" type="curve" smooth="yes"/>
      <point x="273" y="672"/>
      <point x="332" y="712"/>
      <point x="356" y="758" type="curve"/>
      <point x="331" y="793" type="line"/>
      <point x="311" y="773"/>
      <point x="278" y="747"/>
      <point x="241" y="747" type="curve" smooth="yes"/>
      <point x="193" y="747"/>
      <point x="177" y="813"/>
      <point x="114" y="813" type="curve" smooth="yes"/>
      <point x="63" y="813"/>
      <point x="3" y="772"/>
      <point x="-21" y="728" type="curve"/>
    </contour>
    <contour>
      <point x="55" y="0" type="line"/>
      <point x="307" y="0" type="line"/>
      <point x="307" y="42" type="line"/>
      <point x="228" y="52" type="line"/>
      <point x="228" y="546" type="line"/>
      <point x="206" y="556" type="line"/>
      <point x="70" y="518" type="line"/>
      <point x="70" y="487" type="line"/>
      <point x="138" y="452" type="line"/>
      <point x="138" y="52" type="line"/>
      <point x="55" y="42" type="line"/>
    </contour>
  </outline>
</glyph>
<glyph name="iogonek" format="1">
  <advance width="333"/>
  <unicode hex="012F"/>
  <outline>
	<contour>
	  <point x="139" y="803"/>
	  <point x="101" y="772"/>
	  <point x="101" y="731" type="curve" smooth="yes"/>
	  <point x="101" y="694"/>
	  <point x="131" y="671"/>
	  <point x="163" y="671" type="curve" smooth="yes"/>
	  <point x="199" y="671"/>
	  <point x="236" y="699"/>
	  <point x="236" y="742" type="curve" smooth="yes"/>
	  <point x="236" y="775"/>
	  <point x="217" y="803"/>
	  <point x="174" y="803" type="curve" smooth="yes"/>
	</contour>
	<component base="idotless"/>
	<component base="ogonek" xOffset="73"/>
  </outline>
</glyph>
<glyph name="IJ" format="1">
  <advance width="724"/>
  <unicode hex="0132"/>
  <outline>
	<contour>
	  <point x="356" y="-190" type="line"/>
	  <point x="458" y="-175"/>
	  <point x="571" y="-104"/>
	  <point x="597" y="24" type="curve" smooth="yes"/>
	  <point x="610" y="91"/>
	  <point x="606" y="176"/>
	  <point x="606" y="269" type="curve" smooth="yes"/>
	  <point x="606" y="702" type="line"/>
	  <point x="686" y="710" type="line"/>
	  <point x="686" y="758" type="line"/>
	  <point x="431" y="758" type="line"/>
	  <point x="431" y="710" type="line"/>
	  <point x="511" y="702" type="line"/>
	  <point x="511" y="196" type="line" smooth="yes"/>
	  <point x="511" y="96"/>
	  <point x="508" y="28"/>
	  <point x="489" y="-29" type="curve" smooth="yes"/>
	  <point x="464" y="-91"/>
	  <point x="403" y="-132"/>
	  <point x="331" y="-156" type="curve"/>
	</contour>
	<contour>
	  <point x="51" y="0" type="line"/>
	  <point x="323" y="0" type="line"/>
	  <point x="323" y="42" type="line"/>
	  <point x="234" y="56" type="line"/>
	  <point x="234" y="702" type="line"/>
	  <point x="318" y="710" type="line"/>
	  <point x="318" y="758" type="line"/>
	  <point x="53" y="758" type="line"/>
	  <point x="53" y="710" type="line"/>
	  <point x="139" y="702" type="line"/>
	  <point x="139" y="56" type="line"/>
	  <point x="51" y="42" type="line"/>
	</contour>
  </outline>
</glyph>
<glyph name="Ldot" format="1">
  <advance width="680"/>
  <unicode hex="013F"/>
  <outline>
	<contour>
	  <point x="54" y="758" type="line"/>
	  <point x="54" y="705" type="line"/>
	  <point x="134" y="697" type="line"/>
	  <point x="134" y="56" type="line"/>
	  <point x="52" y="42" type="line"/>
	  <point x="52" y="0" type="line"/>
	  <point x="561" y="0" type="line"/>
	  <point x="593" y="162" type="line"/>
	  <point x="550" y="183" type="line"/>
	  <point x="490" y="66" type="line"/>
	  <point x="229" y="55" type="line"/>
	  <point x="230" y="697" type="line"/>
	  <point x="316" y="705" type="line"/>
	  <point x="316" y="758" type="line"/>
	</contour>
	<contour>
	  <point x="560" y="479"/>
	  <point x="521" y="449"/>
	  <point x="521" y="408" type="curve" smooth="yes"/>
	  <point x="521" y="370"/>
	  <point x="551" y="348"/>
	  <point x="583" y="348" type="curve" smooth="yes"/>
	  <point x="620" y="348"/>
	  <point x="656" y="375"/>
	  <point x="656" y="418" type="curve" smooth="yes"/>
	  <point x="656" y="452"/>
	  <point x="637" y="479"/>
	  <point x="594" y="479" type="curve" smooth="yes"/>
	</contour>
  </outline>
</glyph>
<glyph name="ldot" format="1">
  <advance width="523"/>
  <unicode hex="0140"/>
  <outline>
    <contour>
      <point x="58" y="773" type="line"/>
      <point x="58" y="730" type="line"/>
      <point x="136" y="713" type="line"/>
      <point x="136" y="52" type="line"/>
      <point x="53" y="42" type="line"/>
      <point x="53" y="0" type="line"/>
      <point x="317" y="0" type="line"/>
      <point x="317" y="42" type="line"/>
      <point x="230" y="52" type="line"/>
      <point x="230" y="782" type="line"/>
      <point x="210" y="793" type="line"/>
    </contour>
    <contour>
      <point x="401" y="460"/>
      <point x="363" y="430"/>
      <point x="363" y="389" type="curve" smooth="yes"/>
      <point x="363" y="352"/>
      <point x="393" y="329"/>
      <point x="424" y="329" type="curve" smooth="yes"/>
      <point x="461" y="329"/>
      <point x="498" y="357"/>
      <point x="498" y="400" type="curve" smooth="yes"/>
      <point x="498" y="433"/>
      <point x="479" y="460"/>
      <point x="436" y="460" type="curve" smooth="yes"/>
    </contour>
  </outline>
</glyph>
<glyph name="lslash" format="1">
  <advance width="341"/>
  <unicode hex="0142"/>
  <outline>
    <contour>
      <point x="53" y="0" type="line"/>
      <point x="317" y="0" type="line"/>
      <point x="317" y="42" type="line"/>
      <point x="230" y="52" type="line"/>
      <point x="230" y="410" type="line"/>
      <point x="320" y="446" type="line"/>
      <point x="320" y="518" type="line"/>
      <point x="230" y="480" type="line"/>
      <point x="230" y="782" type="line"/>
      <point x="210" y="793" type="line"/>
      <point x="58" y="773" type="line"/>
      <point x="58" y="730" type="line"/>
      <point x="136" y="713" type="line"/>
      <point x="136" y="442" type="line"/>
      <point x="60" y="411" type="line"/>
      <point x="60" y="344" type="line"/>
      <point x="136" y="374" type="line"/>
      <point x="136" y="52" type="line"/>
      <point x="53" y="42" type="line"/>
    </contour>
  </outline>
</glyph>
<glyph name="OE" format="1">
  <advance width="1010"/>
  <unicode hex="0152"/>
  <outline>
    <contour>
      <point x="204" y="760"/>
      <point x="49" y="616"/>
      <point x="44" y="367" type="curve" smooth="yes"/>
      <point x="40" y="146"/>
      <point x="172" y="-18"/>
      <point x="378" y="-14" type="curve" smooth="yes"/>
      <point x="409" y="-12"/>
      <point x="438" y="-8"/>
      <point x="467" y="0" type="curve"/>
      <point x="959" y="0" type="line"/>
      <point x="981" y="151" type="line"/>
      <point x="934" y="163" type="line"/>
      <point x="885" y="62" type="line"/>
      <point x="611" y="53" type="line"/>
      <point x="611" y="371" type="line"/>
      <point x="791" y="368" type="line"/>
      <point x="806" y="293" type="line"/>
      <point x="855" y="293" type="line"/>
      <point x="855" y="503" type="line"/>
      <point x="806" y="503" type="line"/>
      <point x="791" y="427" type="line"/>
      <point x="611" y="423" type="line"/>
      <point x="611" y="707" type="line"/>
      <point x="869" y="701" type="line"/>
      <point x="892" y="619" type="line"/>
      <point x="945" y="619" type="line"/>
      <point x="931" y="758" type="line"/>
      <point x="469" y="758" type="line"/>
      <point x="444" y="763"/>
      <point x="419" y="766"/>
      <point x="393" y="765" type="curve" smooth="yes"/>
    </contour>
    <contour>
      <point x="438" y="713"/>
      <point x="481" y="693"/>
      <point x="517" y="659" type="curve"/>
      <point x="517" y="86" type="line"/>
      <point x="481" y="55"/>
      <point x="438" y="38"/>
      <point x="386" y="38" type="curve" smooth="yes"/>
      <point x="236" y="38"/>
      <point x="149" y="198"/>
      <point x="149" y="368" type="curve" smooth="yes"/>
      <point x="149" y="585"/>
      <point x="241" y="713"/>
      <point x="384" y="713" type="curve" smooth="yes"/>
    </contour>
  </outline>
</glyph>
<glyph name="rcaron" format="1">
  <advance width="451"/>
  <unicode hex="0159"/>
  <outline>
    <contour>
      <point x="238" y="652" type="line"/>
      <point x="331" y="652" type="line"/>
      <point x="459" y="844" type="line"/>
      <point x="422" y="867" type="line"/>
      <point x="285" y="736" type="line"/>
      <point x="147" y="866" type="line"/>
      <point x="105" y="844" type="line"/>
    </contour>
    <contour>
      <point x="55" y="0" type="line"/>
      <point x="368" y="0" type="line"/>
      <point x="368" y="42" type="line"/>
      <point x="229" y="53" type="line"/>
      <point x="229" y="435" type="line"/>
      <point x="258" y="454"/>
      <point x="292" y="469"/>
      <point x="344" y="469" type="curve" smooth="yes"/>
      <point x="389" y="469"/>
      <point x="409" y="460"/>
      <point x="431" y="453" type="curve"/>
      <point x="431" y="553" type="line"/>
      <point x="423" y="555"/>
      <point x="405" y="556"/>
      <point x="383" y="556" type="curve" smooth="yes"/>
      <point x="323" y="556"/>
      <point x="241" y="508"/>
      <point x="216" y="471" type="curve"/>
      <point x="216" y="546" type="line"/>
      <point x="193" y="556" type="line"/>
      <point x="64" y="518" type="line"/>
      <point x="64" y="487" type="line"/>
      <point x="134" y="449" type="line"/>
      <point x="134" y="52" type="line"/>
      <point x="55" y="42" type="line"/>
    </contour>
  </outline>
</glyph>
<glyph name="Scaron" format="1">
  <advance width="600"/>
  <unicode hex="0160"/>
  <outline>
    <contour>
      <point x="268" y="789" type="line"/>
      <point x="360" y="789" type="line"/>
      <point x="474" y="915" type="line"/>
      <point x="436" y="938" type="line"/>
      <point x="314" y="855" type="line"/>
      <point x="195" y="938" type="line"/>
      <point x="152" y="914" type="line"/>
    </contour>
    <contour>
      <point x="72" y="30" type="line"/>
      <point x="100" y="13"/>
      <point x="197" y="-11"/>
      <point x="295" y="-11" type="curve" smooth="yes"/>
      <point x="429" y="-11"/>
      <point x="547" y="48"/>
      <point x="547" y="194" type="curve" smooth="yes"/>
      <point x="547" y="308"/>
      <point x="433" y="369"/>
      <point x="329" y="425" type="curve" smooth="yes"/>
      <point x="243" y="470"/>
      <point x="166" y="519"/>
      <point x="166" y="593" type="curve" smooth="yes"/>
      <point x="166" y="688"/>
      <point x="252" y="717"/>
      <point x="305" y="717" type="curve" smooth="yes"/>
      <point x="353" y="717"/>
      <point x="398" y="707"/>
      <point x="421" y="686" type="curve"/>
      <point x="459" y="592" type="line"/>
      <point x="501" y="592" type="line"/>
      <point x="501" y="728" type="line"/>
      <point x="473" y="744"/>
      <point x="407" y="765"/>
      <point x="312" y="765" type="curve" smooth="yes"/>
      <point x="214" y="765"/>
      <point x="77" y="713"/>
      <point x="77" y="577" type="curve" smooth="yes"/>
      <point x="77" y="467"/>
      <point x="179" y="406"/>
      <point x="278" y="352" type="curve" smooth="yes"/>
      <point x="370" y="300"/>
      <point x="457" y="250"/>
      <point x="457" y="167" type="curve" smooth="yes"/>
      <point x="457" y="76"/>
      <point x="380" y="38"/>
      <point x="308" y="38" type="curve" smooth="yes"/>
      <point x="250" y="38"/>
      <point x="185" y="49"/>
      <point x="146" y="90" type="curve"/>
      <point x="115" y="187" type="line"/>
      <point x="72" y="187" type="line"/>
    </contour>
  </outline>
</glyph>
<glyph name="scaron" format="1">
  <advance width="497"/>
  <unicode hex="0161"/>
  <outline>
    <contour>
      <point x="209" y="652" type="line"/>
      <point x="301" y="652" type="line"/>
      <point x="430" y="844" type="line"/>
      <point x="393" y="867" type="line"/>
      <point x="255" y="736" type="line"/>
      <point x="118" y="866" type="line"/>
      <point x="76" y="844" type="line"/>
    </contour>
    <contour>
      <point x="80" y="30" type="line"/>
      <point x="129" y="2"/>
      <point x="191" y="-12"/>
      <point x="250" y="-12" type="curve" smooth="yes"/>
      <point x="369" y="-12"/>
      <point x="463" y="44"/>
      <point x="463" y="155" type="curve" smooth="yes"/>
      <point x="463" y="248"/>
      <point x="381" y="281"/>
      <point x="310" y="315" type="curve" smooth="yes"/>
      <point x="241" y="348"/>
      <point x="171" y="373"/>
      <point x="174" y="432" type="curve" smooth="yes"/>
      <point x="175" y="490"/>
      <point x="222" y="514"/>
      <point x="284" y="514" type="curve" smooth="yes"/>
      <point x="326" y="514"/>
      <point x="351" y="498"/>
      <point x="368" y="479" type="curve"/>
      <point x="389" y="424" type="line"/>
      <point x="431" y="424" type="line"/>
      <point x="431" y="529" type="line"/>
      <point x="400" y="546"/>
      <point x="344" y="564"/>
      <point x="278" y="563" type="curve" smooth="yes"/>
      <point x="191" y="561"/>
      <point x="85" y="516"/>
      <point x="83" y="415" type="curve" smooth="yes"/>
      <point x="82" y="329"/>
      <point x="157" y="281"/>
      <point x="235" y="245" type="curve" smooth="yes"/>
      <point x="304" y="211"/>
      <point x="374" y="192"/>
      <point x="374" y="133" type="curve" smooth="yes"/>
      <point x="374" y="68"/>
      <point x="321" y="39"/>
      <point x="249" y="41" type="curve" smooth="yes"/>
      <point x="203" y="42"/>
      <point x="175" y="55"/>
      <point x="142" y="82" type="curve"/>
      <point x="123" y="142" type="line"/>
      <point x="80" y="142" type="line"/>
    </contour>
  </outline>
</glyph>
<glyph name="florin" format="1">
  <advance width="519"/>
  <unicode hex="0192"/>
  <outline>
    <contour>
      <point x="145" y="-174" type="line"/>
      <point x="239" y="-174" type="line"/>
      <point x="289" y="480" type="line"/>
      <point x="436" y="480" type="line"/>
      <point x="441" y="546" type="line"/>
      <point x="294" y="546" type="line"/>
      <point x="300" y="627" type="line" smooth="yes"/>
      <point x="308" y="738"/>
      <point x="344" y="749"/>
      <point x="396" y="749" type="curve" smooth="yes"/>
      <point x="443" y="749"/>
      <point x="475" y="739"/>
      <point x="484" y="733" type="curve"/>
      <point x="490" y="816" type="line"/>
      <point x="484" y="820"/>
      <point x="466" y="825"/>
      <point x="421" y="825" type="curve" smooth="yes"/>
      <point x="339" y="825"/>
      <point x="214" y="732"/>
      <point x="203" y="587" type="curve" smooth="yes"/>
      <point x="200" y="546" type="line"/>
      <point x="90" y="518" type="line"/>
      <point x="87" y="480" type="line"/>
      <point x="195" y="480" type="line"/>
    </contour>
  </outline>
</glyph>
<glyph name="jdotless" format="1">
  <advance width="317"/>
  <unicode hex="0237"/>
  <outline>
	<contour>
	  <point x="134" y="-1" type="line" smooth="yes"/>
	  <point x="134" y="-138"/>
	  <point x="112" y="-182"/>
	  <point x="49" y="-182" type="curve" smooth="yes"/>
	  <point x="38" y="-182"/>
	  <point x="6" y="-181"/>
	  <point x="-4" y="-177" type="curve"/>
	  <point x="-4" y="-244" type="line"/>
	  <point x="1" y="-249"/>
	  <point x="35" y="-251"/>
	  <point x="49" y="-251" type="curve" smooth="yes"/>
	  <point x="157" y="-251"/>
	  <point x="226" y="-160"/>
	  <point x="226" y="-8" type="curve" smooth="yes"/>
	  <point x="226" y="546" type="line"/>
	  <point x="204" y="556" type="line"/>
	  <point x="66" y="517" type="line"/>
	  <point x="66" y="488" type="line"/>
	  <point x="134" y="452" type="line"/>
	</contour>
  </outline>
</glyph>
<glyph name="ogonek" format="1">
  <advance width="346"/>
  <unicode hex="02DB"/>
  <outline>
	<contour>
	  <point x="114" y="0" type="line"/>
	  <point x="45" y="-33"/>
	  <point x="-29" y="-104"/>
	  <point x="-29" y="-165" type="curve" smooth="yes"/>
	  <point x="-29" y="-208"/>
	  <point x="-4" y="-253"/>
	  <point x="67" y="-257" type="curve" smooth="yes"/>
	  <point x="161" y="-262"/>
	  <point x="210" y="-223"/>
	  <point x="236" y="-203" type="curve"/>
	  <point x="226" y="-160" type="line"/>
	  <point x="210" y="-168"/>
	  <point x="161" y="-197"/>
	  <point x="120" y="-195" type="curve" smooth="yes"/>
	  <point x="79" y="-192"/>
	  <point x="58" y="-182"/>
	  <point x="58" y="-137" type="curve" smooth="yes"/>
	  <point x="58" y="-93"/>
	  <point x="136" y="-23"/>
	  <point x="194" y="0" type="curve"/>
	  <point x="150" y="4" type="line"/>
	</contour>
  </outline>
</glyph>
<glyph name="tilde" format="1">
  <advance width="433"/>
  <unicode hex="02DC"/>
  <outline>
	<contour>
	  <point x="53" y="692" type="line"/>
	  <point x="73" y="712"/>
	  <point x="105" y="738"/>
	  <point x="143" y="738" type="curve" smooth="yes"/>
	  <point x="191" y="738"/>
	  <point x="206" y="672"/>
	  <point x="270" y="672" type="curve" smooth="yes"/>
	  <point x="322" y="672"/>
	  <point x="380" y="712"/>
	  <point x="405" y="758" type="curve"/>
	  <point x="380" y="793" type="line"/>
	  <point x="359" y="773"/>
	  <point x="327" y="747"/>
	  <point x="290" y="747" type="curve" smooth="yes"/>
	  <point x="242" y="747"/>
	  <point x="226" y="813"/>
	  <point x="163" y="813" type="curve" smooth="yes"/>
	  <point x="111" y="813"/>
	  <point x="52" y="772"/>
	  <point x="27" y="728" type="curve"/>
	</contour>
  </outline>
</glyph>
<glyph name="hungarumlaut" format="1">
  <advance width="447"/>
  <unicode hex="02DD"/>
  <outline>
	<contour>
	  <point x="361" y="654" type="line"/>
	  <point x="411" y="687"/>
	  <point x="509" y="767"/>
	  <point x="555" y="826" type="curve"/>
	  <point x="493" y="884" type="line"/>
	  <point x="335" y="681" type="line"/>
	</contour>
	<contour>
	  <point x="122" y="654" type="line"/>
	  <point x="172" y="687"/>
	  <point x="270" y="767"/>
	  <point x="315" y="826" type="curve"/>
	  <point x="254" y="884" type="line"/>
	  <point x="96" y="681" type="line"/>
	</contour>
  </outline>
</glyph>
<glyph name="Omega" format="1">
  <advance width="951"/>
  <unicode hex="03A9"/>
  <outline>
    <contour>
      <point x="69" y="0" type="line"/>
      <point x="412" y="0" type="line"/>
      <point x="412" y="81" type="line"/>
      <point x="333" y="125"/>
      <point x="233" y="241"/>
      <point x="233" y="402" type="curve" smooth="yes"/>
      <point x="233" y="611"/>
      <point x="329" y="718"/>
      <point x="468" y="718" type="curve" smooth="yes"/>
      <point x="585" y="718"/>
      <point x="694" y="623"/>
      <point x="694" y="418" type="curve" smooth="yes"/>
      <point x="694" y="259"/>
      <point x="627" y="141"/>
      <point x="527" y="81" type="curve"/>
      <point x="527" y="0" type="line"/>
      <point x="859" y="0" type="line"/>
      <point x="881" y="191" type="line"/>
      <point x="833" y="195" type="line"/>
      <point x="799" y="89" type="line"/>
      <point x="629" y="89" type="line"/>
      <point x="710" y="157"/>
      <point x="797" y="298"/>
      <point x="800" y="419" type="curve" smooth="yes"/>
      <point x="804" y="638"/>
      <point x="666" y="758"/>
      <point x="475" y="758" type="curve" smooth="yes"/>
      <point x="301" y="758"/>
      <point x="132" y="647"/>
      <point x="128" y="401" type="curve" smooth="yes"/>
      <point x="125" y="256"/>
      <point x="218" y="140"/>
      <point x="300" y="89" type="curve"/>
      <point x="134" y="89" type="line"/>
      <point x="118" y="180" type="line"/>
      <point x="69" y="176" type="line"/>
    </contour>
  </outline>
</glyph>
<glyph name="mu" format="1">
  <advance width="691"/>
  <unicode hex="03BC"/>
  <outline>
    <contour>
      <point x="221" y="-1" type="line"/>
      <point x="240" y="-7"/>
      <point x="263" y="-10"/>
      <point x="291" y="-10" type="curve" smooth="yes"/>
      <point x="350" y="-10"/>
      <point x="414" y="14"/>
      <point x="471" y="65" type="curve"/>
      <point x="471" y="25" type="line" smooth="yes"/>
      <point x="471" y="-4"/>
      <point x="490" y="-17"/>
      <point x="521" y="-17" type="curve" smooth="yes"/>
      <point x="552" y="-17"/>
      <point x="593" y="-6"/>
      <point x="612" y="4" type="curve"/>
      <point x="612" y="42" type="line"/>
      <point x="554" y="42" type="line"/>
      <point x="554" y="548" type="line"/>
      <point x="540" y="556" type="line"/>
      <point x="400" y="528" type="line"/>
      <point x="400" y="488" type="line"/>
      <point x="461" y="473" type="line"/>
      <point x="461" y="112" type="line"/>
      <point x="444" y="94"/>
      <point x="385" y="57"/>
      <point x="327" y="57" type="curve" smooth="yes"/>
      <point x="241" y="57"/>
      <point x="221" y="104"/>
      <point x="221" y="211" type="curve" smooth="yes"/>
      <point x="221" y="547" type="line"/>
      <point x="204" y="556" type="line"/>
      <point x="79" y="529" type="line"/>
      <point x="79" y="492" type="line"/>
      <point x="129" y="477" type="line"/>
      <point x="129" y="-182" type="line"/>
      <point x="221" y="-182" type="line"/>
    </contour>
  </outline>
</glyph>
<glyph name="pi" format="1">
  <advance width="777"/>
  <unicode hex="03C0"/>
  <outline>
	<contour>
	  <point x="653" y="599" type="line"/>
	  <point x="633" y="559"/>
	  <point x="600" y="546"/>
	  <point x="556" y="546" type="curve" smooth="yes"/>
	  <point x="232" y="546" type="line" smooth="yes"/>
	  <point x="166" y="546"/>
	  <point x="112" y="515"/>
	  <point x="83" y="457" type="curve" smooth="yes"/>
	  <point x="74" y="439"/>
	  <point x="74" y="419"/>
	  <point x="76" y="409" type="curve"/>
	  <point x="126" y="403" type="line"/>
	  <point x="138" y="433"/>
	  <point x="177" y="452"/>
	  <point x="215" y="452" type="curve" smooth="yes"/>
	  <point x="245" y="452" type="line"/>
	  <point x="241" y="381"/>
	  <point x="238" y="310"/>
	  <point x="234" y="239" type="curve" smooth="yes"/>
	  <point x="230" y="172"/>
	  <point x="220" y="128"/>
	  <point x="163" y="89" type="curve" smooth="yes"/>
	  <point x="136" y="70"/>
	  <point x="97" y="57"/>
	  <point x="90" y="56" type="curve"/>
	  <point x="160" y="-12" type="line"/>
	  <point x="186" y="-4"/>
	  <point x="209" y="8"/>
	  <point x="229" y="25" type="curve" smooth="yes"/>
	  <point x="273" y="66"/>
	  <point x="285" y="98"/>
	  <point x="293" y="210" type="curve" smooth="yes"/>
	  <point x="296" y="291"/>
	  <point x="300" y="371"/>
	  <point x="303" y="452" type="curve"/>
	  <point x="489" y="452" type="line"/>
	  <point x="482" y="347"/>
	  <point x="476" y="242"/>
	  <point x="469" y="137" type="curve" smooth="yes"/>
	  <point x="465" y="68"/>
	  <point x="465" y="-12"/>
	  <point x="531" y="-12" type="curve" smooth="yes"/>
	  <point x="612" y="-12"/>
	  <point x="674" y="83"/>
	  <point x="688" y="140" type="curve"/>
	  <point x="635" y="140" type="line"/>
	  <point x="623" y="105"/>
	  <point x="586" y="80"/>
	  <point x="557" y="80" type="curve" smooth="yes"/>
	  <point x="547" y="80"/>
	  <point x="533" y="85"/>
	  <point x="533" y="127" type="curve" smooth="yes"/>
	  <point x="538" y="235"/>
	  <point x="544" y="344"/>
	  <point x="549" y="452" type="curve"/>
	  <point x="634" y="454"/>
	  <point x="698" y="509"/>
	  <point x="704" y="599" type="curve"/>
	</contour>
  </outline>
</glyph>
<glyph name="candraBindu-deva" format="1">
  <advance width="0"/>
  <unicode hex="0901"/>
  <outline>
    <contour>
      <point x="-357" y="911" type="line"/>
      <point x="-317" y="843"/>
      <point x="-239" y="752"/>
      <point x="-127" y="752" type="curve" smooth="yes"/>
      <point x="-29" y="752"/>
      <point x="28" y="798"/>
      <point x="75" y="857" type="curve"/>
      <point x="11" y="918" type="line"/>
      <point x="-17" y="874"/>
      <point x="-78" y="818"/>
      <point x="-165" y="818" type="curve" smooth="yes"/>
      <point x="-231" y="818"/>
      <point x="-284" y="867"/>
      <point x="-325" y="925" type="curve"/>
    </contour>
    <contour>
      <point x="-231" y="975" type="line"/>
      <point x="-153" y="897" type="line"/>
      <point x="-76" y="976" type="line"/>
      <point x="-154" y="1053" type="line"/>
    </contour>
    <contour>
      <point x="-153" y="650" type="move" name="_top"/>
    </contour>
  </outline>
</glyph>
<glyph name="anusvara-deva" format="1">
  <advance width="0"/>
  <unicode hex="0902"/>
  <outline>
    <contour>
      <point x="-231" y="800" type="line"/>
      <point x="-153" y="722" type="line"/>
      <point x="-76" y="801" type="line"/>
      <point x="-154" y="879" type="line"/>
    </contour>
    <contour>
      <point x="-153" y="650" type="move" name="_top"/>
    </contour>
  </outline>
</glyph>
<glyph name="uni0904" format="1">
  <advance width="843"/>
  <unicode hex="0904"/>
  <outline>
    <contour>
      <point x="152" y="971"/>
      <point x="137" y="931"/>
      <point x="137" y="893" type="curve" smooth="yes"/>
      <point x="137" y="841"/>
      <point x="246" y="772"/>
      <point x="360" y="772" type="curve" smooth="yes"/>
      <point x="414" y="772"/>
      <point x="508" y="787"/>
      <point x="555" y="787" type="curve" smooth="yes"/>
      <point x="640" y="787"/>
      <point x="664" y="733"/>
      <point x="664" y="684" type="curve" smooth="yes"/>
      <point x="664" y="669"/>
      <point x="660" y="656"/>
      <point x="653" y="645" type="curve"/>
      <point x="707" y="642" type="line"/>
      <point x="711" y="658"/>
      <point x="717" y="684"/>
      <point x="717" y="703" type="curve" smooth="yes"/>
      <point x="717" y="737"/>
      <point x="695" y="774"/>
      <point x="669" y="806" type="curve" smooth="yes"/>
      <point x="636" y="844"/>
      <point x="592" y="875"/>
      <point x="538" y="875" type="curve" smooth="yes"/>
      <point x="492" y="875"/>
      <point x="314" y="859"/>
      <point x="274" y="859" type="curve" smooth="yes"/>
      <point x="225" y="859"/>
      <point x="191" y="874"/>
      <point x="191" y="910" type="curve" smooth="yes"/>
      <point x="191" y="931"/>
      <point x="199" y="958"/>
      <point x="209" y="984" type="curve"/>
      <point x="160" y="991" type="line"/>
    </contour>
    <contour>
      <point x="346" y="323" type="line"/>
      <point x="385" y="296"/>
      <point x="399" y="249"/>
      <point x="399" y="210" type="curve" smooth="yes"/>
      <point x="399" y="150"/>
      <point x="350" y="98"/>
      <point x="280" y="98" type="curve" smooth="yes"/>
      <point x="186" y="98"/>
      <point x="93" y="199"/>
      <point x="42" y="284" type="curve"/>
      <point x="8" y="262" type="line"/>
      <point x="57" y="173"/>
      <point x="153" y="18"/>
      <point x="317" y="18" type="curve" smooth="yes"/>
      <point x="414" y="18"/>
      <point x="478" y="77"/>
      <point x="478" y="173" type="curve" smooth="yes"/>
      <point x="478" y="251"/>
      <point x="441" y="300"/>
      <point x="381" y="351" type="curve"/>
    </contour>
    <contour>
      <point x="219" y="667"/>
      <point x="133" y="630"/>
      <point x="96" y="603" type="curve"/>
      <point x="142" y="516" type="line"/>
      <point x="183" y="553"/>
      <point x="234" y="586"/>
      <point x="290" y="586" type="curve" smooth="yes"/>
      <point x="342" y="586"/>
      <point x="388" y="544"/>
      <point x="388" y="497" type="curve" smooth="yes"/>
      <point x="388" y="450"/>
      <point x="360" y="425"/>
      <point x="328" y="407" type="curve" smooth="yes"/>
      <point x="292" y="388"/>
      <point x="233" y="382"/>
      <point x="197" y="380" type="curve"/>
      <point x="186" y="353" type="line"/>
      <point x="221" y="289" type="line"/>
      <point x="274" y="296"/>
      <point x="316" y="303"/>
      <point x="380" y="324" type="curve"/>
      <point x="433" y="365"/>
      <point x="451" y="422"/>
      <point x="451" y="461" type="curve" smooth="yes"/>
      <point x="451" y="557"/>
      <point x="336" y="665"/>
      <point x="256" y="667" type="curve" smooth="yes"/>
    </contour>
    <contour>
      <point x="625" y="313"/>
      <point x="593" y="296"/>
      <point x="545" y="296" type="curve" smooth="yes"/>
      <point x="488" y="296"/>
      <point x="421" y="324"/>
      <point x="385" y="346" type="curve"/>
      <point x="388" y="301" type="line"/>
      <point x="445" y="261" type="line"/>
      <point x="460" y="270" type="line"/>
      <point x="498" y="240"/>
      <point x="537" y="220"/>
      <point x="585" y="220" type="curve" smooth="yes"/>
      <point x="621" y="220"/>
      <point x="644" y="230"/>
      <point x="661" y="243" type="curve"/>
      <point x="655" y="334" type="line"/>
    </contour>
    <contour>
      <point x="645" y="605" type="line"/>
      <point x="645" y="287" type="line"/>
      <point x="583" y="232" type="line"/>
      <point x="645" y="232" type="line"/>
      <point x="645" y="-1" type="line"/>
      <point x="717" y="-42" type="line"/>
      <point x="733" y="-42" type="line"/>
      <point x="733" y="605" type="line"/>
    </contour>
    <contour>
      <point x="467" y="650" type="line"/>
      <point x="467" y="634" type="line"/>
      <point x="499" y="575" type="line"/>
      <point x="843" y="575" type="line"/>
      <point x="843" y="590" type="line"/>
      <point x="811" y="650" type="line"/>
    </contour>
    <contour>
      <point x="843" y="650" type="move" name="top"/>
    </contour>
  </outline>
</glyph>
<glyph name="a-deva" format="1">
  <advance width="843"/>
  <unicode hex="0905"/>
  <outline>
	<contour>
	  <point x="346" y="323" type="line"/>
	  <point x="385" y="296"/>
	  <point x="399" y="249"/>
	  <point x="399" y="210" type="curve" smooth="yes"/>
	  <point x="399" y="150"/>
	  <point x="350" y="98"/>
	  <point x="280" y="98" type="curve" smooth="yes"/>
	  <point x="186" y="98"/>
	  <point x="93" y="199"/>
	  <point x="42" y="284" type="curve"/>
	  <point x="8" y="262" type="line"/>
	  <point x="57" y="173"/>
	  <point x="153" y="18"/>
	  <point x="317" y="18" type="curve" smooth="yes"/>
	  <point x="414" y="18"/>
	  <point x="478" y="77"/>
	  <point x="478" y="173" type="curve" smooth="yes"/>
	  <point x="478" y="251"/>
	  <point x="441" y="300"/>
	  <point x="381" y="351" type="curve"/>
	</contour>
	<contour>
	  <point x="219" y="667"/>
	  <point x="133" y="630"/>
	  <point x="96" y="603" type="curve"/>
	  <point x="142" y="516" type="line"/>
	  <point x="183" y="553"/>
	  <point x="234" y="586"/>
	  <point x="290" y="586" type="curve" smooth="yes"/>
	  <point x="342" y="586"/>
	  <point x="388" y="544"/>
	  <point x="388" y="497" type="curve" smooth="yes"/>
	  <point x="388" y="450"/>
	  <point x="360" y="425"/>
	  <point x="328" y="407" type="curve" smooth="yes"/>
	  <point x="292" y="388"/>
	  <point x="233" y="382"/>
	  <point x="197" y="380" type="curve"/>
	  <point x="186" y="353" type="line"/>
	  <point x="221" y="289" type="line"/>
	  <point x="274" y="296"/>
	  <point x="316" y="303"/>
	  <point x="380" y="324" type="curve"/>
	  <point x="433" y="365"/>
	  <point x="451" y="422"/>
	  <point x="451" y="461" type="curve" smooth="yes"/>
	  <point x="451" y="557"/>
	  <point x="336" y="665"/>
	  <point x="256" y="667" type="curve" smooth="yes"/>
	</contour>
	<contour>
	  <point x="388" y="301" type="line"/>
	  <point x="445" y="261" type="line"/>
	  <point x="460" y="270" type="line"/>
	  <point x="498" y="240"/>
	  <point x="537" y="220"/>
	  <point x="585" y="220" type="curve" smooth="yes"/>
	  <point x="621" y="220"/>
	  <point x="644" y="230"/>
	  <point x="661" y="243" type="curve"/>
	  <point x="655" y="334" type="line"/>
	  <point x="625" y="313"/>
	  <point x="593" y="296"/>
	  <point x="545" y="296" type="curve" smooth="yes"/>
	  <point x="488" y="296"/>
	  <point x="421" y="324"/>
	  <point x="385" y="346" type="curve"/>
	</contour>
	<contour>
	  <point x="645" y="605" type="line"/>
	  <point x="645" y="287" type="line"/>
	  <point x="583" y="232" type="line"/>
	  <point x="645" y="232" type="line"/>
	  <point x="645" y="-1" type="line"/>
	  <point x="717" y="-42" type="line"/>
	  <point x="733" y="-42" type="line"/>
	  <point x="733" y="605" type="line"/>
	</contour>
	<contour>
	  <point x="467" y="650" type="line"/>
	  <point x="467" y="634" type="line"/>
	  <point x="499" y="575" type="line"/>
	  <point x="843" y="575" type="line"/>
	  <point x="843" y="590" type="line"/>
	  <point x="811" y="650" type="line"/>
	</contour>
	<contour>
	  <point x="68" y="0" type="move" name="nukta"/>
	</contour>
	<contour>
	  <point x="690" y="0" type="move" name="bottom"/>
	</contour>
	<contour>
	  <point x="690" y="650" type="move" name="top"/>
	</contour>
  </outline>
</glyph>
<glyph name="ii-deva" format="1">
  <advance width="517"/>
  <unicode hex="0908"/>
  <outline>
    <contour>
      <point x="281" y="983"/>
      <point x="199" y="928"/>
      <point x="199" y="841" type="curve" smooth="yes"/>
      <point x="199" y="774"/>
      <point x="252" y="703"/>
      <point x="317" y="652" type="curve"/>
      <point x="317" y="591" type="line"/>
      <point x="382" y="650" type="line"/>
      <point x="342" y="687"/>
      <point x="294" y="754"/>
      <point x="294" y="814" type="curve" smooth="yes"/>
      <point x="294" y="878"/>
      <point x="334" y="909"/>
      <point x="383" y="909" type="curve" smooth="yes"/>
      <point x="427" y="909"/>
      <point x="480" y="883"/>
      <point x="502" y="866" type="curve"/>
      <point x="528" y="908" type="line"/>
      <point x="485" y="953"/>
      <point x="427" y="983"/>
      <point x="368" y="983" type="curve" smooth="yes"/>
    </contour>
    <component base="i-deva"/>
    <contour>
      <point x="422" y="630" type="move" name="top"/>
    </contour>
  </outline>
</glyph>
<glyph name="u-deva" format="1">
  <advance width="604"/>
  <unicode hex="0909"/>
  <outline>
	<contour>
	  <point x="360" y="308" type="line"/>
	  <point x="403" y="280"/>
	  <point x="464" y="238"/>
	  <point x="464" y="179" type="curve" smooth="yes"/>
	  <point x="464" y="128"/>
	  <point x="419" y="70"/>
	  <point x="345" y="70" type="curve" smooth="yes"/>
	  <point x="237" y="70"/>
	  <point x="110" y="199"/>
	  <point x="60" y="294" type="curve"/>
	  <point x="25" y="268" type="line"/>
	  <point x="74" y="180"/>
	  <point x="208" y="-10"/>
	  <point x="382" y="-10" type="curve" smooth="yes"/>
	  <point x="483" y="-10"/>
	  <point x="542" y="80"/>
	  <point x="542" y="150" type="curve" smooth="yes"/>
	  <point x="542" y="225"/>
	  <point x="472" y="288"/>
	  <point x="415" y="330" type="curve"/>
	</contour>
	<contour>
	  <point x="321" y="584" type="line"/>
	  <point x="355" y="562"/>
	  <point x="410" y="513"/>
	  <point x="410" y="470" type="curve" smooth="yes"/>
	  <point x="410" y="415"/>
	  <point x="364" y="380"/>
	  <point x="275" y="380" type="curve" smooth="yes"/>
	  <point x="245" y="380"/>
	  <point x="209" y="386"/>
	  <point x="191" y="388" type="curve"/>
	  <point x="182" y="371" type="line"/>
	  <point x="214" y="299" type="line"/>
	  <point x="239" y="291"/>
	  <point x="268" y="286"/>
	  <point x="303" y="286" type="curve" smooth="yes"/>
	  <point x="381" y="286"/>
	  <point x="478" y="337"/>
	  <point x="478" y="434" type="curve" smooth="yes"/>
	  <point x="478" y="472"/>
	  <point x="438" y="534"/>
	  <point x="398" y="584" type="curve"/>
	</contour>
	<contour>
	  <point x="-31" y="650" type="line"/>
	  <point x="-31" y="634" type="line"/>
	  <point x="0" y="575" type="line"/>
	  <point x="604" y="575" type="line"/>
	  <point x="604" y="590" type="line"/>
	  <point x="573" y="650" type="line"/>
	</contour>
	<contour>
	  <point x="365" y="650" type="move" name="top"/>
	</contour>
	<contour>
	  <point x="382" y="-10" type="move" name="bottom"/>
	</contour>
  </outline>
</glyph>
<glyph name="uu-deva" format="1">
  <advance width="859"/>
  <unicode hex="090A"/>
  <outline>
	<contour>
	  <point x="360" y="308" type="line"/>
	  <point x="403" y="280"/>
	  <point x="464" y="238"/>
	  <point x="464" y="179" type="curve" smooth="yes"/>
	  <point x="464" y="128"/>
	  <point x="419" y="70"/>
	  <point x="345" y="70" type="curve" smooth="yes"/>
	  <point x="237" y="70"/>
	  <point x="110" y="199"/>
	  <point x="60" y="294" type="curve"/>
	  <point x="25" y="268" type="line"/>
	  <point x="74" y="180"/>
	  <point x="208" y="-10"/>
	  <point x="382" y="-10" type="curve" smooth="yes"/>
	  <point x="483" y="-10"/>
	  <point x="542" y="80"/>
	  <point x="542" y="150" type="curve" smooth="yes"/>
	  <point x="542" y="225"/>
	  <point x="472" y="288"/>
	  <point x="415" y="330" type="curve"/>
	</contour>
	<contour>
	  <point x="321" y="584" type="line"/>
	  <point x="355" y="562"/>
	  <point x="410" y="513"/>
	  <point x="410" y="470" type="curve" smooth="yes"/>
	  <point x="410" y="415"/>
	  <point x="364" y="380"/>
	  <point x="275" y="380" type="curve" smooth="yes"/>
	  <point x="245" y="380"/>
	  <point x="209" y="386"/>
	  <point x="191" y="388" type="curve"/>
	  <point x="182" y="371" type="line"/>
	  <point x="214" y="299" type="line"/>
	  <point x="239" y="291"/>
	  <point x="268" y="286"/>
	  <point x="303" y="286" type="curve" smooth="yes"/>
	  <point x="381" y="286"/>
	  <point x="478" y="337"/>
	  <point x="478" y="434" type="curve" smooth="yes"/>
	  <point x="478" y="472"/>
	  <point x="438" y="534"/>
	  <point x="398" y="584" type="curve"/>
	</contour>
	<contour>
	  <point x="597" y="388"/>
	  <point x="519" y="327"/>
	  <point x="465" y="285" type="curve"/>
	  <point x="524" y="210" type="line"/>
	  <point x="577" y="266"/>
	  <point x="630" y="313"/>
	  <point x="683" y="313" type="curve" smooth="yes"/>
	  <point x="724" y="313"/>
	  <point x="754" y="291"/>
	  <point x="754" y="243" type="curve" smooth="yes"/>
	  <point x="754" y="180"/>
	  <point x="682" y="103"/>
	  <point x="654" y="72" type="curve"/>
	  <point x="749" y="22" type="line"/>
	  <point x="778" y="71"/>
	  <point x="805" y="162"/>
	  <point x="805" y="218" type="curve" smooth="yes"/>
	  <point x="805" y="315"/>
	  <point x="724" y="388"/>
	  <point x="667" y="388" type="curve" smooth="yes"/>
	</contour>
	<contour>
	  <point x="-31" y="650" type="line"/>
	  <point x="-31" y="634" type="line"/>
	  <point x="0" y="575" type="line"/>
	  <point x="859" y="575" type="line"/>
	  <point x="859" y="590" type="line"/>
	  <point x="828" y="650" type="line"/>
	</contour>
	<contour>
	  <point x="365" y="650" type="move" name="top"/>
	</contour>
	<contour>
	  <point x="382" y="-10" type="move" name="bottom"/>
	</contour>
  </outline>
</glyph>
